%TF.GenerationSoftware,KiCad,Pcbnew,10.0.4*%
%TF.CreationDate,2026-08-08T00:18:09+02:00*%
%TF.ProjectId,IOT DEV BOARD,494f5420-4445-4562-9042-4f4152442e6b,rev?*%
%TF.SameCoordinates,Original*%
%TF.FileFunction,Copper,L3,Inr*%
%TF.FilePolarity,Positive*%
%FSLAX46Y46*%
G04 Gerber Fmt 4.6, Leading zero omitted, Abs format (unit mm)*
G04 Created by KiCad (PCBNEW 10.0.4) date 2026-08-08 00:18:09*
%MOMM*%
%LPD*%
G01*
G04 APERTURE LIST*
%TA.AperFunction,ComponentPad*%
%ADD10C,0.400000*%
%TD*%
%TA.AperFunction,ComponentPad*%
%ADD11C,1.208000*%
%TD*%
%TA.AperFunction,ComponentPad*%
%ADD12R,1.700000X1.700000*%
%TD*%
%TA.AperFunction,ComponentPad*%
%ADD13C,1.700000*%
%TD*%
%TA.AperFunction,ComponentPad*%
%ADD14C,0.650000*%
%TD*%
%TA.AperFunction,ComponentPad*%
%ADD15O,1.050000X2.100000*%
%TD*%
%TA.AperFunction,ViaPad*%
%ADD16C,0.500000*%
%TD*%
%TA.AperFunction,ViaPad*%
%ADD17C,0.600000*%
%TD*%
G04 APERTURE END LIST*
D10*
%TO.N,GND*%
%TO.C,U3*%
X225560000Y-88125000D03*
X226660000Y-88125000D03*
X225010000Y-88675000D03*
X226110000Y-88675000D03*
X227210000Y-88675000D03*
X225560000Y-89225000D03*
X226660000Y-89225000D03*
X225010000Y-89775000D03*
X226110000Y-89775000D03*
X227210000Y-89775000D03*
X225560000Y-90325000D03*
X226660000Y-90325000D03*
%TD*%
D11*
%TO.N,GND*%
%TO.C,MK1*%
X194875000Y-86600000D03*
%TO.N,Net-(C19-Pad2)*%
X192975000Y-86600000D03*
%TD*%
D12*
%TO.N,+3.3V*%
%TO.C,J4*%
X175945000Y-79125000D03*
D13*
%TO.N,/ESP32-C3-02/SCL*%
X178485000Y-79125000D03*
%TO.N,/ESP32-C3-02/SDA*%
X181025000Y-79125000D03*
%TO.N,GND*%
X183565000Y-79125000D03*
%TD*%
D12*
%TO.N,+3.3V*%
%TO.C,J5*%
X160190000Y-79100000D03*
D13*
%TO.N,/ESP32-C3-02/GPIO08*%
X162730000Y-79100000D03*
%TO.N,/ESP32-C3-02/GPIO18*%
X165270000Y-79100000D03*
%TO.N,/ESP32-C3-02/GPIO19*%
X167810000Y-79100000D03*
%TO.N,GND*%
X170350000Y-79100000D03*
%TD*%
D14*
%TO.N,GND*%
%TO.C,J1*%
X189175000Y-119495000D03*
%TO.N,unconnected-(J1-SSTXP2-PadB2)*%
X188775000Y-120205000D03*
%TO.N,unconnected-(J1-SSTXN2-PadB3)*%
X187975000Y-120205000D03*
%TO.N,/VBUS*%
X187575000Y-119495000D03*
%TO.N,Net-(J1-CC2)*%
X187175000Y-120205000D03*
%TO.N,/USB-DP*%
X186775000Y-119495000D03*
%TO.N,/USB-DN*%
X185975000Y-119495000D03*
%TO.N,unconnected-(J1-SBU2-PadB8)*%
X185575000Y-120205000D03*
%TO.N,/VBUS*%
X185175000Y-119495000D03*
%TO.N,unconnected-(J1-SSRXN1-PadB10)*%
X184775000Y-120205000D03*
%TO.N,unconnected-(J1-SSRXP1-PadB11)*%
X183975000Y-120205000D03*
%TO.N,GND*%
X183575000Y-119495000D03*
X188375000Y-119495000D03*
X184375000Y-119495000D03*
D15*
X182105000Y-120645000D03*
X190645000Y-120645000D03*
X182105000Y-125375000D03*
X190645000Y-125375000D03*
%TD*%
D16*
%TO.N,+3.3V*%
X188050000Y-105100000D03*
X163800000Y-99900000D03*
X175550000Y-96250000D03*
X184050000Y-85000000D03*
X176325000Y-105350000D03*
D17*
X187950000Y-77200000D03*
D16*
X196850000Y-96950000D03*
X209750000Y-94100000D03*
X230062500Y-99162500D03*
X189150000Y-81050000D03*
X217850000Y-99050000D03*
X196050000Y-90300000D03*
X166600000Y-97200000D03*
X189825000Y-110525000D03*
X192950000Y-123600000D03*
X209050000Y-83840000D03*
X195500000Y-81100000D03*
X219800000Y-104350000D03*
X160250000Y-76900000D03*
X209250000Y-95700000D03*
X167150000Y-108350000D03*
X185410000Y-89760000D03*
D17*
X172150000Y-85400000D03*
D16*
X222725000Y-97700000D03*
D17*
X175950000Y-77500000D03*
D16*
X190962500Y-81462500D03*
D17*
%TO.N,/ESP32-C3-02/EN*%
X208750000Y-109150000D03*
D16*
X219350000Y-84200000D03*
D17*
%TO.N,/ESP32-C3-02/SDA*%
X224500000Y-85700000D03*
X208350000Y-85700000D03*
D16*
%TO.N,/ESP32-C3-02/GPIO08*%
X214800000Y-92900000D03*
%TO.N,/ESP32-C3-02/BOOT*%
X199550000Y-119500000D03*
X216350000Y-98100000D03*
X197115196Y-120984804D03*
D17*
X213500000Y-106100000D03*
%TO.N,GND*%
X192100000Y-114550000D03*
X215050000Y-95025000D03*
X196650000Y-90900000D03*
X209110000Y-86460000D03*
X235900000Y-86850000D03*
X184400000Y-113400000D03*
X196850000Y-98850000D03*
X158000000Y-128100000D03*
X192050000Y-117750000D03*
X186375000Y-124400000D03*
X173400000Y-127250000D03*
X161100000Y-113600000D03*
X173550000Y-90500000D03*
X214800000Y-104500000D03*
X173050000Y-104050000D03*
X187900000Y-81250000D03*
X199820000Y-125100000D03*
X183550000Y-77200000D03*
X182700000Y-102000000D03*
X170450000Y-76900000D03*
X161100000Y-116200000D03*
X174800000Y-127250000D03*
X166850000Y-117750000D03*
X169400000Y-127250000D03*
X205450000Y-126337500D03*
X192150000Y-110550000D03*
X186900000Y-93450000D03*
X231875000Y-101450000D03*
X222300000Y-104450000D03*
X205250000Y-104837500D03*
X175150000Y-114500000D03*
X191600000Y-80900000D03*
X199225000Y-123825000D03*
X158000000Y-126400000D03*
X178300000Y-126750000D03*
X190312500Y-81037500D03*
X190250000Y-89800000D03*
X161100000Y-115000000D03*
X225345000Y-97705000D03*
X219675000Y-99075000D03*
X198900000Y-128487500D03*
X173950000Y-104050000D03*
X195200000Y-123900000D03*
X186700000Y-84950000D03*
X158000000Y-127250000D03*
%TO.N,/ESP32-C3-02/CS*%
X216500000Y-97100000D03*
X203300000Y-94950000D03*
X221550000Y-97100000D03*
X230450000Y-95050000D03*
D16*
%TO.N,/ESP32-C3-02/TX-RX*%
X210600000Y-107450000D03*
X230950000Y-94400000D03*
%TO.N,/ESP32-C3-02/RX-TX*%
X209600000Y-108150000D03*
X229900000Y-98300000D03*
%TO.N,/ESP32-C3-02/GPIO18*%
X230000000Y-91300000D03*
%TO.N,/ESP32-C3-02/GPIO19*%
X232600000Y-88150000D03*
D17*
%TO.N,/ESP32-C3-02/SCL*%
X208350000Y-84850000D03*
X228650000Y-84850000D03*
D16*
%TO.N,/ESP32-C3-02/PHOTO-C*%
X231000000Y-86050000D03*
X180800000Y-88650000D03*
%TO.N,/ESP32-C3-02/MIC_OUT*%
X214837500Y-88237500D03*
X230200000Y-85500000D03*
D17*
%TO.N,Net-(U4-DO(IO1))*%
X209972844Y-95500000D03*
X205400000Y-93850000D03*
%TO.N,/+5V-USB*%
X167950000Y-110200000D03*
X172000000Y-120300000D03*
X170650000Y-110200000D03*
X169100000Y-122600000D03*
X179900000Y-114300000D03*
X176075000Y-122350000D03*
X179950000Y-116300000D03*
%TO.N,/VBUS*%
X188700000Y-116000000D03*
X181300000Y-114200000D03*
X186425000Y-115600000D03*
X181300000Y-116300000D03*
D16*
%TO.N,/ESP32-C3-02/RTS*%
X195150000Y-114850000D03*
X183050000Y-105600000D03*
D17*
%TO.N,/ESP32-C3-02/DTS*%
X203300000Y-119450000D03*
X200400000Y-115850000D03*
X183850000Y-105500000D03*
X201925000Y-119925000D03*
%TO.N,/USB-DP*%
X184526384Y-114706169D03*
%TO.N,/USB-DN*%
X188100000Y-114600000D03*
%TO.N,Net-(J1-CC1)*%
X183300000Y-114850000D03*
X182350000Y-117750000D03*
%TD*%
%TA.AperFunction,Conductor*%
%TO.N,GND*%
G36*
X197455307Y-75902027D02*
G01*
X197593172Y-75915487D01*
X197617020Y-75920211D01*
X197743736Y-75958547D01*
X197766211Y-75967838D01*
X197883002Y-76030169D01*
X197903231Y-76043669D01*
X198005614Y-76127603D01*
X198022812Y-76144785D01*
X198054330Y-76183157D01*
X198106839Y-76247086D01*
X198120359Y-76267304D01*
X198182800Y-76384038D01*
X198192113Y-76406506D01*
X198230566Y-76533183D01*
X198235314Y-76557036D01*
X198248902Y-76694873D01*
X198249500Y-76707038D01*
X198249500Y-81094486D01*
X198279059Y-81281118D01*
X198337454Y-81460836D01*
X198390698Y-81565332D01*
X198423240Y-81629199D01*
X198534310Y-81782073D01*
X198667927Y-81915690D01*
X198820801Y-82026760D01*
X198900347Y-82067290D01*
X198989163Y-82112545D01*
X198989165Y-82112545D01*
X198989168Y-82112547D01*
X199085497Y-82143846D01*
X199168881Y-82170940D01*
X199355514Y-82200500D01*
X199355519Y-82200500D01*
X199410118Y-82200500D01*
X214410118Y-82200500D01*
X234960118Y-82200500D01*
X235960118Y-82200500D01*
X236110118Y-82200500D01*
X236143908Y-82200500D01*
X236156061Y-82201097D01*
X236166051Y-82202080D01*
X236293824Y-82214665D01*
X236317654Y-82219404D01*
X236444274Y-82257814D01*
X236466722Y-82267113D01*
X236583407Y-82329482D01*
X236603618Y-82342987D01*
X236705891Y-82426920D01*
X236723079Y-82444108D01*
X236807012Y-82546381D01*
X236820517Y-82566592D01*
X236882883Y-82683269D01*
X236892186Y-82705728D01*
X236930593Y-82832339D01*
X236935335Y-82856180D01*
X236948903Y-82993938D01*
X236949500Y-83006092D01*
X236949500Y-129402407D01*
X236948902Y-129414571D01*
X236935312Y-129552437D01*
X236930562Y-129576295D01*
X236892098Y-129702990D01*
X236882782Y-129725463D01*
X236820319Y-129842216D01*
X236806793Y-129862438D01*
X236722741Y-129964741D01*
X236705529Y-129981932D01*
X236603117Y-130065860D01*
X236582879Y-130079360D01*
X236466053Y-130141677D01*
X236443568Y-130150966D01*
X236316824Y-130189273D01*
X236292960Y-130193993D01*
X236155077Y-130207412D01*
X236142916Y-130207995D01*
X236109130Y-130207954D01*
X236109129Y-130207953D01*
X236109127Y-130207954D01*
X235050965Y-130206643D01*
X235050904Y-130206625D01*
X235050779Y-130206643D01*
X157102477Y-129992499D01*
X157102477Y-129992498D01*
X157090141Y-129992464D01*
X157089882Y-129992357D01*
X157050348Y-129992357D01*
X157050345Y-129992357D01*
X157010669Y-129992248D01*
X157010668Y-129992248D01*
X157004477Y-129992231D01*
X156992664Y-129991634D01*
X156856180Y-129978192D01*
X156832339Y-129973450D01*
X156705728Y-129935043D01*
X156683272Y-129925741D01*
X156566592Y-129863374D01*
X156546381Y-129849869D01*
X156444108Y-129765936D01*
X156426920Y-129748748D01*
X156342987Y-129646475D01*
X156329482Y-129626264D01*
X156302773Y-129576295D01*
X156267113Y-129509579D01*
X156257813Y-129487128D01*
X156219404Y-129360511D01*
X156214665Y-129336681D01*
X156201097Y-129198917D01*
X156200500Y-129186764D01*
X156200500Y-124749041D01*
X181080000Y-124749041D01*
X181080000Y-125125000D01*
X181780000Y-125125000D01*
X181780000Y-125625000D01*
X181080000Y-125625000D01*
X181080000Y-126000958D01*
X181119387Y-126198974D01*
X181119390Y-126198983D01*
X181196652Y-126385513D01*
X181196659Y-126385526D01*
X181308829Y-126553399D01*
X181308832Y-126553403D01*
X181451596Y-126696167D01*
X181451600Y-126696170D01*
X181619473Y-126808340D01*
X181619486Y-126808347D01*
X181806016Y-126885609D01*
X181806025Y-126885612D01*
X181855000Y-126895353D01*
X181855000Y-125884618D01*
X181905446Y-125935064D01*
X181979555Y-125977851D01*
X182062213Y-126000000D01*
X182147787Y-126000000D01*
X182230445Y-125977851D01*
X182304554Y-125935064D01*
X182355000Y-125884618D01*
X182355000Y-126895352D01*
X182403974Y-126885612D01*
X182403983Y-126885609D01*
X182590513Y-126808347D01*
X182590526Y-126808340D01*
X182758399Y-126696170D01*
X182758403Y-126696167D01*
X182901167Y-126553403D01*
X182901170Y-126553399D01*
X183013340Y-126385526D01*
X183013347Y-126385513D01*
X183090609Y-126198983D01*
X183090612Y-126198974D01*
X183129999Y-126000958D01*
X183130000Y-126000955D01*
X183130000Y-125625000D01*
X182430000Y-125625000D01*
X182430000Y-125125000D01*
X183130000Y-125125000D01*
X183130000Y-124749045D01*
X183129999Y-124749041D01*
X189620000Y-124749041D01*
X189620000Y-125125000D01*
X190320000Y-125125000D01*
X190320000Y-125625000D01*
X189620000Y-125625000D01*
X189620000Y-126000958D01*
X189659387Y-126198974D01*
X189659390Y-126198983D01*
X189736652Y-126385513D01*
X189736659Y-126385526D01*
X189848829Y-126553399D01*
X189848832Y-126553403D01*
X189991596Y-126696167D01*
X189991600Y-126696170D01*
X190159473Y-126808340D01*
X190159486Y-126808347D01*
X190346016Y-126885609D01*
X190346025Y-126885612D01*
X190395000Y-126895353D01*
X190395000Y-125884618D01*
X190445446Y-125935064D01*
X190519555Y-125977851D01*
X190602213Y-126000000D01*
X190687787Y-126000000D01*
X190770445Y-125977851D01*
X190844554Y-125935064D01*
X190895000Y-125884618D01*
X190895000Y-126895352D01*
X190943974Y-126885612D01*
X190943983Y-126885609D01*
X191130513Y-126808347D01*
X191130526Y-126808340D01*
X191298399Y-126696170D01*
X191298403Y-126696167D01*
X191441167Y-126553403D01*
X191441170Y-126553399D01*
X191553340Y-126385526D01*
X191553347Y-126385513D01*
X191630609Y-126198983D01*
X191630612Y-126198974D01*
X191669999Y-126000958D01*
X191670000Y-126000955D01*
X191670000Y-125625000D01*
X190970000Y-125625000D01*
X190970000Y-125125000D01*
X191670000Y-125125000D01*
X191670000Y-124749045D01*
X191669999Y-124749041D01*
X191630612Y-124551025D01*
X191630609Y-124551016D01*
X191553347Y-124364486D01*
X191553340Y-124364473D01*
X191441170Y-124196600D01*
X191441167Y-124196596D01*
X191298403Y-124053832D01*
X191298399Y-124053829D01*
X191130526Y-123941659D01*
X191130513Y-123941652D01*
X190943984Y-123864390D01*
X190943977Y-123864388D01*
X190895000Y-123854645D01*
X190895000Y-124865382D01*
X190844554Y-124814936D01*
X190770445Y-124772149D01*
X190687787Y-124750000D01*
X190602213Y-124750000D01*
X190519555Y-124772149D01*
X190445446Y-124814936D01*
X190395000Y-124865382D01*
X190395000Y-123854646D01*
X190394999Y-123854645D01*
X190346022Y-123864388D01*
X190346015Y-123864390D01*
X190159486Y-123941652D01*
X190159473Y-123941659D01*
X189991600Y-124053829D01*
X189991596Y-124053832D01*
X189848832Y-124196596D01*
X189848829Y-124196600D01*
X189736659Y-124364473D01*
X189736652Y-124364486D01*
X189659390Y-124551016D01*
X189659387Y-124551025D01*
X189620000Y-124749041D01*
X183129999Y-124749041D01*
X183090612Y-124551025D01*
X183090609Y-124551016D01*
X183013347Y-124364486D01*
X183013340Y-124364473D01*
X182901170Y-124196600D01*
X182901167Y-124196596D01*
X182758403Y-124053832D01*
X182758399Y-124053829D01*
X182590526Y-123941659D01*
X182590513Y-123941652D01*
X182403984Y-123864390D01*
X182403977Y-123864388D01*
X182355000Y-123854645D01*
X182355000Y-124865382D01*
X182304554Y-124814936D01*
X182230445Y-124772149D01*
X182147787Y-124750000D01*
X182062213Y-124750000D01*
X181979555Y-124772149D01*
X181905446Y-124814936D01*
X181855000Y-124865382D01*
X181855000Y-123854646D01*
X181854999Y-123854645D01*
X181806022Y-123864388D01*
X181806015Y-123864390D01*
X181619486Y-123941652D01*
X181619473Y-123941659D01*
X181451600Y-124053829D01*
X181451596Y-124053832D01*
X181308832Y-124196596D01*
X181308829Y-124196600D01*
X181196659Y-124364473D01*
X181196652Y-124364486D01*
X181119390Y-124551016D01*
X181119387Y-124551025D01*
X181080000Y-124749041D01*
X156200500Y-124749041D01*
X156200500Y-123540691D01*
X192499500Y-123540691D01*
X192499500Y-123659309D01*
X192530201Y-123773886D01*
X192589511Y-123876613D01*
X192673387Y-123960489D01*
X192776114Y-124019799D01*
X192890691Y-124050500D01*
X192890694Y-124050500D01*
X193009306Y-124050500D01*
X193009309Y-124050500D01*
X193123886Y-124019799D01*
X193226613Y-123960489D01*
X193310489Y-123876613D01*
X193369799Y-123773886D01*
X193400500Y-123659309D01*
X193400500Y-123540691D01*
X193369799Y-123426114D01*
X193310489Y-123323387D01*
X193226613Y-123239511D01*
X193123886Y-123180201D01*
X193009309Y-123149500D01*
X192890691Y-123149500D01*
X192776114Y-123180201D01*
X192776112Y-123180201D01*
X192776112Y-123180202D01*
X192673387Y-123239511D01*
X192673384Y-123239513D01*
X192589513Y-123323384D01*
X192589511Y-123323387D01*
X192530201Y-123426114D01*
X192499500Y-123540691D01*
X156200500Y-123540691D01*
X156200500Y-122534108D01*
X168599500Y-122534108D01*
X168599500Y-122665891D01*
X168633608Y-122793187D01*
X168647005Y-122816391D01*
X168699500Y-122907314D01*
X168792686Y-123000500D01*
X168906814Y-123066392D01*
X169034108Y-123100500D01*
X169034110Y-123100500D01*
X169165890Y-123100500D01*
X169165892Y-123100500D01*
X169293186Y-123066392D01*
X169407314Y-123000500D01*
X169500500Y-122907314D01*
X169566392Y-122793186D01*
X169600500Y-122665892D01*
X169600500Y-122534108D01*
X169566392Y-122406814D01*
X169500500Y-122292686D01*
X169491922Y-122284108D01*
X175574500Y-122284108D01*
X175574500Y-122415891D01*
X175608608Y-122543187D01*
X175641554Y-122600250D01*
X175674500Y-122657314D01*
X175767686Y-122750500D01*
X175881814Y-122816392D01*
X176009108Y-122850500D01*
X176009110Y-122850500D01*
X176140890Y-122850500D01*
X176140892Y-122850500D01*
X176268186Y-122816392D01*
X176382314Y-122750500D01*
X176475500Y-122657314D01*
X176541392Y-122543186D01*
X176575500Y-122415892D01*
X176575500Y-122284108D01*
X176541392Y-122156814D01*
X176475500Y-122042686D01*
X176382314Y-121949500D01*
X176325250Y-121916554D01*
X176268187Y-121883608D01*
X176204539Y-121866554D01*
X176140892Y-121849500D01*
X176009108Y-121849500D01*
X175881812Y-121883608D01*
X175767686Y-121949500D01*
X175767683Y-121949502D01*
X175674502Y-122042683D01*
X175674500Y-122042686D01*
X175608608Y-122156812D01*
X175574500Y-122284108D01*
X169491922Y-122284108D01*
X169407314Y-122199500D01*
X169333380Y-122156814D01*
X169293187Y-122133608D01*
X169229539Y-122116554D01*
X169165892Y-122099500D01*
X169034108Y-122099500D01*
X168906812Y-122133608D01*
X168792686Y-122199500D01*
X168792683Y-122199502D01*
X168699502Y-122292683D01*
X168699500Y-122292686D01*
X168633608Y-122406812D01*
X168599500Y-122534108D01*
X156200500Y-122534108D01*
X156200500Y-120234108D01*
X171499500Y-120234108D01*
X171499500Y-120365892D01*
X171515472Y-120425500D01*
X171533608Y-120493187D01*
X171565353Y-120548170D01*
X171599500Y-120607314D01*
X171692686Y-120700500D01*
X171806814Y-120766392D01*
X171934108Y-120800500D01*
X171934110Y-120800500D01*
X172065890Y-120800500D01*
X172065892Y-120800500D01*
X172193186Y-120766392D01*
X172307314Y-120700500D01*
X172400500Y-120607314D01*
X172466392Y-120493186D01*
X172500500Y-120365892D01*
X172500500Y-120234108D01*
X172466392Y-120106814D01*
X172415716Y-120019041D01*
X181080000Y-120019041D01*
X181080000Y-120395000D01*
X181780000Y-120395000D01*
X181780000Y-120895000D01*
X181080000Y-120895000D01*
X181080000Y-121270958D01*
X181119387Y-121468974D01*
X181119390Y-121468983D01*
X181196652Y-121655513D01*
X181196659Y-121655526D01*
X181308829Y-121823399D01*
X181308832Y-121823403D01*
X181451596Y-121966167D01*
X181451600Y-121966170D01*
X181619473Y-122078340D01*
X181619486Y-122078347D01*
X181806016Y-122155609D01*
X181806025Y-122155612D01*
X181855000Y-122165353D01*
X181855000Y-121154618D01*
X181905446Y-121205064D01*
X181979555Y-121247851D01*
X182062213Y-121270000D01*
X182147787Y-121270000D01*
X182230445Y-121247851D01*
X182304554Y-121205064D01*
X182355000Y-121154618D01*
X182355000Y-122165352D01*
X182403974Y-122155612D01*
X182403983Y-122155609D01*
X182590513Y-122078347D01*
X182590526Y-122078340D01*
X182758399Y-121966170D01*
X182758403Y-121966167D01*
X182901167Y-121823403D01*
X182901170Y-121823399D01*
X183013340Y-121655526D01*
X183013347Y-121655513D01*
X183090609Y-121468983D01*
X183090612Y-121468974D01*
X183129999Y-121270958D01*
X183130000Y-121270955D01*
X183130000Y-120895000D01*
X182430000Y-120895000D01*
X182430000Y-120395000D01*
X183130000Y-120395000D01*
X183130000Y-120389228D01*
X183137366Y-120364141D01*
X183140965Y-120338248D01*
X183147052Y-120331155D01*
X183149685Y-120322189D01*
X183169439Y-120305071D01*
X183186470Y-120285229D01*
X183195427Y-120282553D01*
X183202489Y-120276434D01*
X183228363Y-120272713D01*
X183253417Y-120265229D01*
X183264826Y-120267470D01*
X183271647Y-120266490D01*
X183288375Y-120270088D01*
X183394533Y-120300717D01*
X183419765Y-120316765D01*
X183446259Y-120330624D01*
X183449079Y-120335410D01*
X183453488Y-120338214D01*
X183463521Y-120359914D01*
X183479932Y-120387759D01*
X183485312Y-120407835D01*
X183485313Y-120407838D01*
X183554492Y-120527661D01*
X183554494Y-120527664D01*
X183554495Y-120527665D01*
X183652335Y-120625505D01*
X183772164Y-120694688D01*
X183905817Y-120730500D01*
X183905819Y-120730500D01*
X184044181Y-120730500D01*
X184044183Y-120730500D01*
X184177836Y-120694688D01*
X184297665Y-120625505D01*
X184297670Y-120625499D01*
X184299510Y-120624089D01*
X184301351Y-120623377D01*
X184304703Y-120621442D01*
X184305004Y-120621964D01*
X184364678Y-120598892D01*
X184433124Y-120612928D01*
X184450490Y-120624089D01*
X184452332Y-120625502D01*
X184452335Y-120625505D01*
X184572164Y-120694688D01*
X184705817Y-120730500D01*
X184705819Y-120730500D01*
X184844181Y-120730500D01*
X184844183Y-120730500D01*
X184977836Y-120694688D01*
X185097665Y-120625505D01*
X185097670Y-120625499D01*
X185099510Y-120624089D01*
X185101351Y-120623377D01*
X185104703Y-120621442D01*
X185105004Y-120621964D01*
X185164678Y-120598892D01*
X185233124Y-120612928D01*
X185250490Y-120624089D01*
X185252332Y-120625502D01*
X185252335Y-120625505D01*
X185372164Y-120694688D01*
X185505817Y-120730500D01*
X185505819Y-120730500D01*
X185644181Y-120730500D01*
X185644183Y-120730500D01*
X185777836Y-120694688D01*
X185897665Y-120625505D01*
X185995505Y-120527665D01*
X186064688Y-120407836D01*
X186100500Y-120274183D01*
X186100500Y-120135817D01*
X186099921Y-120133656D01*
X186099966Y-120131764D01*
X186099439Y-120127761D01*
X186100063Y-120127678D01*
X186100587Y-120105655D01*
X186098001Y-120077767D01*
X186101408Y-120071202D01*
X186101584Y-120063810D01*
X186117282Y-120040615D01*
X186130186Y-120015752D01*
X186137487Y-120010761D01*
X186140746Y-120005947D01*
X186157988Y-119994010D01*
X186171081Y-119986497D01*
X186177836Y-119984688D01*
X186297665Y-119915505D01*
X186301494Y-119911675D01*
X186313292Y-119904907D01*
X186339518Y-119898619D01*
X186364678Y-119888892D01*
X186372988Y-119890596D01*
X186381237Y-119888619D01*
X186406700Y-119897509D01*
X186433124Y-119902928D01*
X186446093Y-119911263D01*
X186447201Y-119911650D01*
X186447712Y-119912303D01*
X186450490Y-119914089D01*
X186452332Y-119915502D01*
X186452335Y-119915505D01*
X186572164Y-119984688D01*
X186572169Y-119984689D01*
X186577754Y-119987003D01*
X186632158Y-120030844D01*
X186654224Y-120097138D01*
X186650081Y-120133645D01*
X186649501Y-120135808D01*
X186649500Y-120135815D01*
X186649500Y-120135817D01*
X186649500Y-120274183D01*
X186679933Y-120387759D01*
X186685312Y-120407835D01*
X186685313Y-120407838D01*
X186754492Y-120527661D01*
X186754494Y-120527664D01*
X186754495Y-120527665D01*
X186852335Y-120625505D01*
X186972164Y-120694688D01*
X187105817Y-120730500D01*
X187105819Y-120730500D01*
X187244181Y-120730500D01*
X187244183Y-120730500D01*
X187377836Y-120694688D01*
X187497665Y-120625505D01*
X187497670Y-120625499D01*
X187499510Y-120624089D01*
X187501351Y-120623377D01*
X187504703Y-120621442D01*
X187505004Y-120621964D01*
X187564678Y-120598892D01*
X187633124Y-120612928D01*
X187650490Y-120624089D01*
X187652332Y-120625502D01*
X187652335Y-120625505D01*
X187772164Y-120694688D01*
X187905817Y-120730500D01*
X187905819Y-120730500D01*
X188044181Y-120730500D01*
X188044183Y-120730500D01*
X188177836Y-120694688D01*
X188297665Y-120625505D01*
X188297670Y-120625499D01*
X188299510Y-120624089D01*
X188301351Y-120623377D01*
X188304703Y-120621442D01*
X188305004Y-120621964D01*
X188364678Y-120598892D01*
X188433124Y-120612928D01*
X188450490Y-120624089D01*
X188452332Y-120625502D01*
X188452335Y-120625505D01*
X188572164Y-120694688D01*
X188705817Y-120730500D01*
X188705819Y-120730500D01*
X188844180Y-120730500D01*
X188844183Y-120730500D01*
X188977836Y-120694688D01*
X189097665Y-120625505D01*
X189195505Y-120527665D01*
X189264688Y-120407836D01*
X189270066Y-120387762D01*
X189275698Y-120378521D01*
X189277290Y-120367815D01*
X189293561Y-120349213D01*
X189306427Y-120328106D01*
X189317376Y-120321990D01*
X189323293Y-120315227D01*
X189345261Y-120306416D01*
X189355466Y-120300717D01*
X189461626Y-120270088D01*
X189489898Y-120270221D01*
X189518017Y-120267198D01*
X189524380Y-120270383D01*
X189531495Y-120270417D01*
X189555205Y-120285813D01*
X189580496Y-120298473D01*
X189584127Y-120304593D01*
X189590094Y-120308468D01*
X189601719Y-120334243D01*
X189616148Y-120358562D01*
X189617483Y-120369196D01*
X189618820Y-120372159D01*
X189618297Y-120375674D01*
X189620000Y-120389228D01*
X189620000Y-120395000D01*
X190320000Y-120395000D01*
X190320000Y-120895000D01*
X189620000Y-120895000D01*
X189620000Y-121270958D01*
X189659387Y-121468974D01*
X189659390Y-121468983D01*
X189736652Y-121655513D01*
X189736659Y-121655526D01*
X189848829Y-121823399D01*
X189848832Y-121823403D01*
X189991596Y-121966167D01*
X189991600Y-121966170D01*
X190159473Y-122078340D01*
X190159486Y-122078347D01*
X190346016Y-122155609D01*
X190346025Y-122155612D01*
X190395000Y-122165353D01*
X190395000Y-121154618D01*
X190445446Y-121205064D01*
X190519555Y-121247851D01*
X190602213Y-121270000D01*
X190687787Y-121270000D01*
X190770445Y-121247851D01*
X190844554Y-121205064D01*
X190895000Y-121154618D01*
X190895000Y-122165352D01*
X190943974Y-122155612D01*
X190943983Y-122155609D01*
X191130513Y-122078347D01*
X191130526Y-122078340D01*
X191298399Y-121966170D01*
X191298403Y-121966167D01*
X191441167Y-121823403D01*
X191441170Y-121823399D01*
X191553340Y-121655526D01*
X191553347Y-121655513D01*
X191630609Y-121468983D01*
X191630612Y-121468974D01*
X191669999Y-121270958D01*
X191670000Y-121270955D01*
X191670000Y-120925495D01*
X196664696Y-120925495D01*
X196664696Y-121044113D01*
X196695397Y-121158690D01*
X196754707Y-121261417D01*
X196838583Y-121345293D01*
X196941310Y-121404603D01*
X197055887Y-121435304D01*
X197055890Y-121435304D01*
X197174502Y-121435304D01*
X197174505Y-121435304D01*
X197289082Y-121404603D01*
X197391809Y-121345293D01*
X197475685Y-121261417D01*
X197534995Y-121158690D01*
X197565696Y-121044113D01*
X197565696Y-120925495D01*
X197534995Y-120810918D01*
X197475685Y-120708191D01*
X197391809Y-120624315D01*
X197289082Y-120565005D01*
X197174505Y-120534304D01*
X197055887Y-120534304D01*
X196941310Y-120565005D01*
X196941308Y-120565005D01*
X196941308Y-120565006D01*
X196838583Y-120624315D01*
X196838580Y-120624317D01*
X196754709Y-120708188D01*
X196754707Y-120708191D01*
X196695397Y-120810918D01*
X196664696Y-120925495D01*
X191670000Y-120925495D01*
X191670000Y-120895000D01*
X190970000Y-120895000D01*
X190970000Y-120395000D01*
X191670000Y-120395000D01*
X191670000Y-120019045D01*
X191669999Y-120019041D01*
X191630612Y-119821025D01*
X191630609Y-119821016D01*
X191553347Y-119634486D01*
X191553340Y-119634473D01*
X191464460Y-119501455D01*
X191441170Y-119466600D01*
X191441167Y-119466596D01*
X191415262Y-119440691D01*
X199099500Y-119440691D01*
X199099500Y-119559309D01*
X199130201Y-119673886D01*
X199189511Y-119776613D01*
X199273387Y-119860489D01*
X199376114Y-119919799D01*
X199490691Y-119950500D01*
X199490694Y-119950500D01*
X199609306Y-119950500D01*
X199609309Y-119950500D01*
X199723886Y-119919799D01*
X199826613Y-119860489D01*
X199827994Y-119859108D01*
X201424500Y-119859108D01*
X201424500Y-119990892D01*
X201435205Y-120030844D01*
X201458608Y-120118187D01*
X201491554Y-120175250D01*
X201524500Y-120232314D01*
X201617686Y-120325500D01*
X201731814Y-120391392D01*
X201859108Y-120425500D01*
X201859110Y-120425500D01*
X201990890Y-120425500D01*
X201990892Y-120425500D01*
X202118186Y-120391392D01*
X202232314Y-120325500D01*
X202325500Y-120232314D01*
X202391392Y-120118186D01*
X202425500Y-119990892D01*
X202425500Y-119859108D01*
X202391392Y-119731814D01*
X202325500Y-119617686D01*
X202232314Y-119524500D01*
X202232312Y-119524499D01*
X202232310Y-119524497D01*
X202161072Y-119483368D01*
X202161071Y-119483368D01*
X202118187Y-119458608D01*
X202051318Y-119440691D01*
X201990892Y-119424500D01*
X201859108Y-119424500D01*
X201731812Y-119458608D01*
X201617686Y-119524500D01*
X201617683Y-119524502D01*
X201524502Y-119617683D01*
X201524500Y-119617686D01*
X201458608Y-119731812D01*
X201434704Y-119821025D01*
X201424500Y-119859108D01*
X199827994Y-119859108D01*
X199910489Y-119776613D01*
X199969799Y-119673886D01*
X200000500Y-119559309D01*
X200000500Y-119440691D01*
X199985339Y-119384108D01*
X202799500Y-119384108D01*
X202799500Y-119515892D01*
X202812439Y-119564183D01*
X202833608Y-119643187D01*
X202851333Y-119673887D01*
X202899500Y-119757314D01*
X202992686Y-119850500D01*
X203091521Y-119907563D01*
X203105277Y-119915505D01*
X203106814Y-119916392D01*
X203234108Y-119950500D01*
X203234110Y-119950500D01*
X203365890Y-119950500D01*
X203365892Y-119950500D01*
X203493186Y-119916392D01*
X203607314Y-119850500D01*
X203700500Y-119757314D01*
X203766392Y-119643186D01*
X203800500Y-119515892D01*
X203800500Y-119384108D01*
X203766392Y-119256814D01*
X203700500Y-119142686D01*
X203607314Y-119049500D01*
X203530780Y-119005313D01*
X203493187Y-118983608D01*
X203429539Y-118966554D01*
X203365892Y-118949500D01*
X203234108Y-118949500D01*
X203106812Y-118983608D01*
X202992686Y-119049500D01*
X202992683Y-119049502D01*
X202899502Y-119142683D01*
X202899500Y-119142686D01*
X202833608Y-119256812D01*
X202815040Y-119326112D01*
X202799500Y-119384108D01*
X199985339Y-119384108D01*
X199969799Y-119326114D01*
X199910489Y-119223387D01*
X199826613Y-119139511D01*
X199723886Y-119080201D01*
X199609309Y-119049500D01*
X199490691Y-119049500D01*
X199376114Y-119080201D01*
X199376112Y-119080201D01*
X199376112Y-119080202D01*
X199273387Y-119139511D01*
X199273384Y-119139513D01*
X199189513Y-119223384D01*
X199189511Y-119223387D01*
X199131519Y-119323832D01*
X199130201Y-119326114D01*
X199099500Y-119440691D01*
X191415262Y-119440691D01*
X191298403Y-119323832D01*
X191298399Y-119323829D01*
X191130526Y-119211659D01*
X191130513Y-119211652D01*
X190943984Y-119134390D01*
X190943977Y-119134388D01*
X190895000Y-119124645D01*
X190895000Y-120135382D01*
X190844554Y-120084936D01*
X190770445Y-120042149D01*
X190687787Y-120020000D01*
X190602213Y-120020000D01*
X190519555Y-120042149D01*
X190445446Y-120084936D01*
X190395000Y-120135382D01*
X190395000Y-119124646D01*
X190394999Y-119124645D01*
X190346022Y-119134388D01*
X190346015Y-119134390D01*
X190159486Y-119211652D01*
X190159475Y-119211658D01*
X190121516Y-119237022D01*
X190054838Y-119257899D01*
X189987458Y-119239414D01*
X189940769Y-119187435D01*
X189938065Y-119181372D01*
X189909980Y-119113571D01*
X189439457Y-119584095D01*
X189378134Y-119617580D01*
X189368062Y-119616859D01*
X189400000Y-119539755D01*
X189400000Y-119450245D01*
X189365746Y-119367548D01*
X189302452Y-119304254D01*
X189219755Y-119270000D01*
X189130245Y-119270000D01*
X189055539Y-119300943D01*
X189057403Y-119274889D01*
X189085904Y-119230542D01*
X189556427Y-118760018D01*
X189415644Y-118701704D01*
X189415636Y-118701702D01*
X189256259Y-118670000D01*
X189093740Y-118670000D01*
X188934363Y-118701702D01*
X188934351Y-118701705D01*
X188822452Y-118748055D01*
X188752983Y-118755524D01*
X188727548Y-118748055D01*
X188615648Y-118701705D01*
X188615636Y-118701702D01*
X188456259Y-118670000D01*
X188293740Y-118670000D01*
X188134363Y-118701701D01*
X188134354Y-118701704D01*
X187993571Y-118760018D01*
X188464095Y-119230542D01*
X188497580Y-119291865D01*
X188496859Y-119301937D01*
X188419755Y-119270000D01*
X188330245Y-119270000D01*
X188247548Y-119304254D01*
X188184254Y-119367548D01*
X188150000Y-119450245D01*
X188150000Y-119539755D01*
X188163948Y-119573430D01*
X188125233Y-119544449D01*
X188100816Y-119478984D01*
X188100500Y-119470138D01*
X188100500Y-119425819D01*
X188100500Y-119425817D01*
X188064688Y-119292164D01*
X188004223Y-119187435D01*
X187995507Y-119172338D01*
X187995503Y-119172333D01*
X187897666Y-119074496D01*
X187897661Y-119074492D01*
X187777838Y-119005313D01*
X187777837Y-119005312D01*
X187777836Y-119005312D01*
X187644183Y-118969500D01*
X187505817Y-118969500D01*
X187372164Y-119005312D01*
X187372161Y-119005313D01*
X187252337Y-119074493D01*
X187250483Y-119075916D01*
X187248637Y-119076629D01*
X187245297Y-119078558D01*
X187244996Y-119078036D01*
X187185312Y-119101107D01*
X187116868Y-119087066D01*
X187099517Y-119075916D01*
X187097662Y-119074493D01*
X186977838Y-119005313D01*
X186977837Y-119005312D01*
X186977836Y-119005312D01*
X186844183Y-118969500D01*
X186705817Y-118969500D01*
X186572164Y-119005312D01*
X186572161Y-119005313D01*
X186452337Y-119074493D01*
X186450483Y-119075916D01*
X186448637Y-119076629D01*
X186445297Y-119078558D01*
X186444996Y-119078036D01*
X186385312Y-119101107D01*
X186316868Y-119087066D01*
X186299517Y-119075916D01*
X186297662Y-119074493D01*
X186177838Y-119005313D01*
X186177837Y-119005312D01*
X186177836Y-119005312D01*
X186044183Y-118969500D01*
X185905817Y-118969500D01*
X185772164Y-119005312D01*
X185772161Y-119005313D01*
X185652337Y-119074493D01*
X185650483Y-119075916D01*
X185648637Y-119076629D01*
X185645297Y-119078558D01*
X185644996Y-119078036D01*
X185585312Y-119101107D01*
X185516868Y-119087066D01*
X185499517Y-119075916D01*
X185497662Y-119074493D01*
X185377838Y-119005313D01*
X185377837Y-119005312D01*
X185377836Y-119005312D01*
X185244183Y-118969500D01*
X185105817Y-118969500D01*
X184972164Y-119005312D01*
X184972161Y-119005313D01*
X184852338Y-119074492D01*
X184852333Y-119074496D01*
X184754496Y-119172333D01*
X184754492Y-119172338D01*
X184685313Y-119292161D01*
X184685312Y-119292164D01*
X184649500Y-119425817D01*
X184649500Y-119470138D01*
X184629815Y-119537177D01*
X184584973Y-119576032D01*
X184600000Y-119539755D01*
X184600000Y-119450245D01*
X184565746Y-119367548D01*
X184502452Y-119304254D01*
X184419755Y-119270000D01*
X184330245Y-119270000D01*
X184255539Y-119300943D01*
X184257403Y-119274889D01*
X184285904Y-119230542D01*
X184756427Y-118760018D01*
X184615644Y-118701704D01*
X184615636Y-118701702D01*
X184456259Y-118670000D01*
X184293740Y-118670000D01*
X184134363Y-118701702D01*
X184134351Y-118701705D01*
X184022452Y-118748055D01*
X183952983Y-118755524D01*
X183927548Y-118748055D01*
X183815648Y-118701705D01*
X183815636Y-118701702D01*
X183656259Y-118670000D01*
X183493740Y-118670000D01*
X183334363Y-118701701D01*
X183334354Y-118701704D01*
X183193571Y-118760018D01*
X183664095Y-119230542D01*
X183697580Y-119291865D01*
X183696859Y-119301937D01*
X183619755Y-119270000D01*
X183530245Y-119270000D01*
X183447548Y-119304254D01*
X183384254Y-119367548D01*
X183350000Y-119450245D01*
X183350000Y-119539755D01*
X183380943Y-119614459D01*
X183354889Y-119612596D01*
X183310542Y-119584095D01*
X182840018Y-119113571D01*
X182811934Y-119181372D01*
X182768093Y-119235775D01*
X182701799Y-119257840D01*
X182634099Y-119240561D01*
X182628482Y-119237021D01*
X182590526Y-119211659D01*
X182590513Y-119211652D01*
X182403984Y-119134390D01*
X182403977Y-119134388D01*
X182355000Y-119124645D01*
X182355000Y-120135382D01*
X182304554Y-120084936D01*
X182230445Y-120042149D01*
X182147787Y-120020000D01*
X182062213Y-120020000D01*
X181979555Y-120042149D01*
X181905446Y-120084936D01*
X181855000Y-120135382D01*
X181855000Y-119124646D01*
X181854999Y-119124645D01*
X181806022Y-119134388D01*
X181806015Y-119134390D01*
X181619486Y-119211652D01*
X181619473Y-119211659D01*
X181451600Y-119323829D01*
X181451596Y-119323832D01*
X181308832Y-119466596D01*
X181308829Y-119466600D01*
X181196659Y-119634473D01*
X181196652Y-119634486D01*
X181119390Y-119821016D01*
X181119387Y-119821025D01*
X181080000Y-120019041D01*
X172415716Y-120019041D01*
X172400500Y-119992686D01*
X172307314Y-119899500D01*
X172239745Y-119860489D01*
X172193187Y-119833608D01*
X172129539Y-119816554D01*
X172065892Y-119799500D01*
X171934108Y-119799500D01*
X171806812Y-119833608D01*
X171692686Y-119899500D01*
X171692683Y-119899502D01*
X171599502Y-119992683D01*
X171599500Y-119992686D01*
X171533608Y-120106812D01*
X171503399Y-120219555D01*
X171499500Y-120234108D01*
X156200500Y-120234108D01*
X156200500Y-117684108D01*
X181849500Y-117684108D01*
X181849500Y-117815891D01*
X181883608Y-117943187D01*
X181916554Y-118000250D01*
X181949500Y-118057314D01*
X182042686Y-118150500D01*
X182156814Y-118216392D01*
X182284108Y-118250500D01*
X182284110Y-118250500D01*
X182415890Y-118250500D01*
X182415892Y-118250500D01*
X182543186Y-118216392D01*
X182657314Y-118150500D01*
X182750500Y-118057314D01*
X182816392Y-117943186D01*
X182850500Y-117815892D01*
X182850500Y-117684108D01*
X182816392Y-117556814D01*
X182750500Y-117442686D01*
X182657314Y-117349500D01*
X182600250Y-117316554D01*
X182543187Y-117283608D01*
X182479539Y-117266554D01*
X182415892Y-117249500D01*
X182284108Y-117249500D01*
X182156812Y-117283608D01*
X182042686Y-117349500D01*
X182042683Y-117349502D01*
X181949502Y-117442683D01*
X181949500Y-117442686D01*
X181883608Y-117556812D01*
X181849500Y-117684108D01*
X156200500Y-117684108D01*
X156200500Y-116234108D01*
X179449500Y-116234108D01*
X179449500Y-116365891D01*
X179483608Y-116493187D01*
X179516554Y-116550250D01*
X179549500Y-116607314D01*
X179642686Y-116700500D01*
X179756814Y-116766392D01*
X179884108Y-116800500D01*
X179884110Y-116800500D01*
X180015890Y-116800500D01*
X180015892Y-116800500D01*
X180143186Y-116766392D01*
X180257314Y-116700500D01*
X180350500Y-116607314D01*
X180416392Y-116493186D01*
X180450500Y-116365892D01*
X180450500Y-116234108D01*
X180799500Y-116234108D01*
X180799500Y-116365891D01*
X180833608Y-116493187D01*
X180866554Y-116550250D01*
X180899500Y-116607314D01*
X180992686Y-116700500D01*
X181106814Y-116766392D01*
X181234108Y-116800500D01*
X181234110Y-116800500D01*
X181365890Y-116800500D01*
X181365892Y-116800500D01*
X181493186Y-116766392D01*
X181607314Y-116700500D01*
X181700500Y-116607314D01*
X181766392Y-116493186D01*
X181800500Y-116365892D01*
X181800500Y-116234108D01*
X181766392Y-116106814D01*
X181700500Y-115992686D01*
X181607314Y-115899500D01*
X181545792Y-115863980D01*
X181493187Y-115833608D01*
X181429539Y-115816554D01*
X181365892Y-115799500D01*
X181234108Y-115799500D01*
X181106812Y-115833608D01*
X180992686Y-115899500D01*
X180992683Y-115899502D01*
X180899502Y-115992683D01*
X180899500Y-115992686D01*
X180833608Y-116106812D01*
X180799500Y-116234108D01*
X180450500Y-116234108D01*
X180416392Y-116106814D01*
X180350500Y-115992686D01*
X180257314Y-115899500D01*
X180195792Y-115863980D01*
X180143187Y-115833608D01*
X180079539Y-115816554D01*
X180015892Y-115799500D01*
X179884108Y-115799500D01*
X179756812Y-115833608D01*
X179642686Y-115899500D01*
X179642683Y-115899502D01*
X179549502Y-115992683D01*
X179549500Y-115992686D01*
X179483608Y-116106812D01*
X179449500Y-116234108D01*
X156200500Y-116234108D01*
X156200500Y-115534108D01*
X185924500Y-115534108D01*
X185924500Y-115665892D01*
X185941554Y-115729539D01*
X185958608Y-115793187D01*
X185981946Y-115833608D01*
X186024500Y-115907314D01*
X186117686Y-116000500D01*
X186191622Y-116043187D01*
X186230944Y-116065890D01*
X186231814Y-116066392D01*
X186359108Y-116100500D01*
X186359110Y-116100500D01*
X186490890Y-116100500D01*
X186490892Y-116100500D01*
X186618186Y-116066392D01*
X186732314Y-116000500D01*
X186798706Y-115934108D01*
X188199500Y-115934108D01*
X188199500Y-116065891D01*
X188233608Y-116193187D01*
X188266554Y-116250250D01*
X188299500Y-116307314D01*
X188392686Y-116400500D01*
X188506814Y-116466392D01*
X188634108Y-116500500D01*
X188634110Y-116500500D01*
X188765890Y-116500500D01*
X188765892Y-116500500D01*
X188893186Y-116466392D01*
X189007314Y-116400500D01*
X189100500Y-116307314D01*
X189166392Y-116193186D01*
X189200500Y-116065892D01*
X189200500Y-115934108D01*
X189166392Y-115806814D01*
X189153283Y-115784108D01*
X199899500Y-115784108D01*
X199899500Y-115915892D01*
X199916554Y-115979539D01*
X199933608Y-116043187D01*
X199946717Y-116065892D01*
X199999500Y-116157314D01*
X200092686Y-116250500D01*
X200206814Y-116316392D01*
X200334108Y-116350500D01*
X200334110Y-116350500D01*
X200465890Y-116350500D01*
X200465892Y-116350500D01*
X200593186Y-116316392D01*
X200707314Y-116250500D01*
X200800500Y-116157314D01*
X200866392Y-116043186D01*
X200900500Y-115915892D01*
X200900500Y-115784108D01*
X200866392Y-115656814D01*
X200800500Y-115542686D01*
X200707314Y-115449500D01*
X200633380Y-115406814D01*
X200593187Y-115383608D01*
X200529539Y-115366554D01*
X200465892Y-115349500D01*
X200334108Y-115349500D01*
X200206812Y-115383608D01*
X200092686Y-115449500D01*
X200092683Y-115449502D01*
X199999502Y-115542683D01*
X199999500Y-115542686D01*
X199933608Y-115656812D01*
X199923997Y-115692683D01*
X199899500Y-115784108D01*
X189153283Y-115784108D01*
X189100500Y-115692686D01*
X189007314Y-115599500D01*
X188908910Y-115542686D01*
X188893187Y-115533608D01*
X188829539Y-115516554D01*
X188765892Y-115499500D01*
X188634108Y-115499500D01*
X188506812Y-115533608D01*
X188392686Y-115599500D01*
X188392683Y-115599502D01*
X188299502Y-115692683D01*
X188299500Y-115692686D01*
X188233608Y-115806812D01*
X188199500Y-115934108D01*
X186798706Y-115934108D01*
X186825500Y-115907314D01*
X186838023Y-115885622D01*
X186850520Y-115863980D01*
X186883526Y-115806811D01*
X186891392Y-115793186D01*
X186925500Y-115665892D01*
X186925500Y-115534108D01*
X186891392Y-115406814D01*
X186825500Y-115292686D01*
X186732314Y-115199500D01*
X186675250Y-115166554D01*
X186618187Y-115133608D01*
X186517647Y-115106669D01*
X186490892Y-115099500D01*
X186359108Y-115099500D01*
X186231812Y-115133608D01*
X186117686Y-115199500D01*
X186117683Y-115199502D01*
X186024502Y-115292683D01*
X186024500Y-115292686D01*
X185958608Y-115406812D01*
X185947170Y-115449500D01*
X185924500Y-115534108D01*
X156200500Y-115534108D01*
X156200500Y-114234108D01*
X179399500Y-114234108D01*
X179399500Y-114365891D01*
X179433608Y-114493187D01*
X179462185Y-114542683D01*
X179499500Y-114607314D01*
X179592686Y-114700500D01*
X179706814Y-114766392D01*
X179834108Y-114800500D01*
X179834110Y-114800500D01*
X179965890Y-114800500D01*
X179965892Y-114800500D01*
X180027068Y-114784108D01*
X182799500Y-114784108D01*
X182799500Y-114915891D01*
X182833608Y-115043187D01*
X182847005Y-115066391D01*
X182899500Y-115157314D01*
X182992686Y-115250500D01*
X183106814Y-115316392D01*
X183234108Y-115350500D01*
X183234110Y-115350500D01*
X183365890Y-115350500D01*
X183365892Y-115350500D01*
X183493186Y-115316392D01*
X183607314Y-115250500D01*
X183700500Y-115157314D01*
X183766392Y-115043186D01*
X183800500Y-114915892D01*
X183800500Y-114784108D01*
X183766392Y-114656814D01*
X183756844Y-114640277D01*
X184025884Y-114640277D01*
X184025884Y-114772061D01*
X184046570Y-114849265D01*
X184046571Y-114849268D01*
X184059992Y-114899356D01*
X184092938Y-114956419D01*
X184125884Y-115013483D01*
X184219070Y-115106669D01*
X184333198Y-115172561D01*
X184460492Y-115206669D01*
X184460494Y-115206669D01*
X184592274Y-115206669D01*
X184592276Y-115206669D01*
X184719570Y-115172561D01*
X184833698Y-115106669D01*
X184926884Y-115013483D01*
X184992776Y-114899355D01*
X185026884Y-114772061D01*
X185026884Y-114640277D01*
X184998436Y-114534108D01*
X187599500Y-114534108D01*
X187599500Y-114665892D01*
X187602239Y-114676114D01*
X187633608Y-114793187D01*
X187665987Y-114849268D01*
X187699500Y-114907314D01*
X187792686Y-115000500D01*
X187906814Y-115066392D01*
X188034108Y-115100500D01*
X188034110Y-115100500D01*
X188165890Y-115100500D01*
X188165892Y-115100500D01*
X188293186Y-115066392D01*
X188407314Y-115000500D01*
X188500500Y-114907314D01*
X188566392Y-114793186D01*
X188567061Y-114790691D01*
X194699500Y-114790691D01*
X194699500Y-114909309D01*
X194730201Y-115023886D01*
X194789511Y-115126613D01*
X194873387Y-115210489D01*
X194976114Y-115269799D01*
X195090691Y-115300500D01*
X195090694Y-115300500D01*
X195209306Y-115300500D01*
X195209309Y-115300500D01*
X195323886Y-115269799D01*
X195426613Y-115210489D01*
X195510489Y-115126613D01*
X195569799Y-115023886D01*
X195600500Y-114909309D01*
X195600500Y-114790691D01*
X195569799Y-114676114D01*
X195510489Y-114573387D01*
X195426613Y-114489511D01*
X195323886Y-114430201D01*
X195209309Y-114399500D01*
X195090691Y-114399500D01*
X194976114Y-114430201D01*
X194976112Y-114430201D01*
X194976112Y-114430202D01*
X194873387Y-114489511D01*
X194873384Y-114489513D01*
X194789513Y-114573384D01*
X194789511Y-114573387D01*
X194735815Y-114666391D01*
X194730201Y-114676114D01*
X194699500Y-114790691D01*
X188567061Y-114790691D01*
X188600500Y-114665892D01*
X188600500Y-114534108D01*
X188566392Y-114406814D01*
X188500500Y-114292686D01*
X188407314Y-114199500D01*
X188350250Y-114166554D01*
X188293187Y-114133608D01*
X188193188Y-114106814D01*
X188165892Y-114099500D01*
X188034108Y-114099500D01*
X187906812Y-114133608D01*
X187792686Y-114199500D01*
X187792683Y-114199502D01*
X187699502Y-114292683D01*
X187699500Y-114292686D01*
X187633608Y-114406812D01*
X187606680Y-114507313D01*
X187599500Y-114534108D01*
X184998436Y-114534108D01*
X184992776Y-114512983D01*
X184926884Y-114398855D01*
X184833698Y-114305669D01*
X184776634Y-114272723D01*
X184719571Y-114239777D01*
X184655923Y-114222723D01*
X184592276Y-114205669D01*
X184460492Y-114205669D01*
X184333196Y-114239777D01*
X184219070Y-114305669D01*
X184219067Y-114305671D01*
X184125886Y-114398852D01*
X184125884Y-114398855D01*
X184059992Y-114512981D01*
X184034716Y-114607314D01*
X184025884Y-114640277D01*
X183756844Y-114640277D01*
X183700500Y-114542686D01*
X183607314Y-114449500D01*
X183533380Y-114406814D01*
X183493187Y-114383608D01*
X183427061Y-114365890D01*
X183365892Y-114349500D01*
X183234108Y-114349500D01*
X183106812Y-114383608D01*
X182992686Y-114449500D01*
X182992683Y-114449502D01*
X182899502Y-114542683D01*
X182899500Y-114542686D01*
X182833608Y-114656812D01*
X182799500Y-114784108D01*
X180027068Y-114784108D01*
X180093186Y-114766392D01*
X180207314Y-114700500D01*
X180300500Y-114607314D01*
X180366392Y-114493186D01*
X180400500Y-114365892D01*
X180400500Y-114234108D01*
X180373705Y-114134108D01*
X180799500Y-114134108D01*
X180799500Y-114265892D01*
X180810158Y-114305669D01*
X180833608Y-114393187D01*
X180854979Y-114430202D01*
X180899500Y-114507314D01*
X180992686Y-114600500D01*
X181090221Y-114656812D01*
X181106810Y-114666390D01*
X181106814Y-114666392D01*
X181234108Y-114700500D01*
X181234110Y-114700500D01*
X181365890Y-114700500D01*
X181365892Y-114700500D01*
X181493186Y-114666392D01*
X181607314Y-114600500D01*
X181700500Y-114507314D01*
X181766392Y-114393186D01*
X181800500Y-114265892D01*
X181800500Y-114134108D01*
X181766392Y-114006814D01*
X181700500Y-113892686D01*
X181607314Y-113799500D01*
X181550250Y-113766554D01*
X181493187Y-113733608D01*
X181429539Y-113716554D01*
X181365892Y-113699500D01*
X181234108Y-113699500D01*
X181106812Y-113733608D01*
X180992686Y-113799500D01*
X180992683Y-113799502D01*
X180899502Y-113892683D01*
X180899500Y-113892686D01*
X180833608Y-114006812D01*
X180808773Y-114099500D01*
X180799500Y-114134108D01*
X180373705Y-114134108D01*
X180366392Y-114106814D01*
X180300500Y-113992686D01*
X180207314Y-113899500D01*
X180150250Y-113866554D01*
X180093187Y-113833608D01*
X180029539Y-113816554D01*
X179965892Y-113799500D01*
X179834108Y-113799500D01*
X179706812Y-113833608D01*
X179592686Y-113899500D01*
X179592683Y-113899502D01*
X179499502Y-113992683D01*
X179499500Y-113992686D01*
X179433608Y-114106812D01*
X179399500Y-114234108D01*
X156200500Y-114234108D01*
X156200500Y-110134108D01*
X167449500Y-110134108D01*
X167449500Y-110265891D01*
X167483608Y-110393187D01*
X167484980Y-110395563D01*
X167549500Y-110507314D01*
X167642686Y-110600500D01*
X167756814Y-110666392D01*
X167884108Y-110700500D01*
X167884110Y-110700500D01*
X168015890Y-110700500D01*
X168015892Y-110700500D01*
X168143186Y-110666392D01*
X168257314Y-110600500D01*
X168350500Y-110507314D01*
X168416392Y-110393186D01*
X168450500Y-110265892D01*
X168450500Y-110134108D01*
X170149500Y-110134108D01*
X170149500Y-110265891D01*
X170183608Y-110393187D01*
X170184980Y-110395563D01*
X170249500Y-110507314D01*
X170342686Y-110600500D01*
X170456814Y-110666392D01*
X170584108Y-110700500D01*
X170584110Y-110700500D01*
X170715890Y-110700500D01*
X170715892Y-110700500D01*
X170843186Y-110666392D01*
X170957314Y-110600500D01*
X171050500Y-110507314D01*
X171074531Y-110465691D01*
X189374500Y-110465691D01*
X189374500Y-110584309D01*
X189405201Y-110698886D01*
X189464511Y-110801613D01*
X189548387Y-110885489D01*
X189651114Y-110944799D01*
X189765691Y-110975500D01*
X189765694Y-110975500D01*
X189884306Y-110975500D01*
X189884309Y-110975500D01*
X189998886Y-110944799D01*
X190101613Y-110885489D01*
X190185489Y-110801613D01*
X190244799Y-110698886D01*
X190275500Y-110584309D01*
X190275500Y-110465691D01*
X190244799Y-110351114D01*
X190185489Y-110248387D01*
X190101613Y-110164511D01*
X189998886Y-110105201D01*
X189884309Y-110074500D01*
X189765691Y-110074500D01*
X189651114Y-110105201D01*
X189651112Y-110105201D01*
X189651112Y-110105202D01*
X189548387Y-110164511D01*
X189548384Y-110164513D01*
X189464513Y-110248384D01*
X189464511Y-110248387D01*
X189405201Y-110351114D01*
X189374500Y-110465691D01*
X171074531Y-110465691D01*
X171116392Y-110393186D01*
X171150500Y-110265892D01*
X171150500Y-110134108D01*
X171116392Y-110006814D01*
X171050500Y-109892686D01*
X170957314Y-109799500D01*
X170900250Y-109766554D01*
X170843187Y-109733608D01*
X170779539Y-109716554D01*
X170715892Y-109699500D01*
X170584108Y-109699500D01*
X170456812Y-109733608D01*
X170342686Y-109799500D01*
X170342683Y-109799502D01*
X170249502Y-109892683D01*
X170249500Y-109892686D01*
X170183608Y-110006812D01*
X170149500Y-110134108D01*
X168450500Y-110134108D01*
X168416392Y-110006814D01*
X168350500Y-109892686D01*
X168257314Y-109799500D01*
X168200250Y-109766554D01*
X168143187Y-109733608D01*
X168079539Y-109716554D01*
X168015892Y-109699500D01*
X167884108Y-109699500D01*
X167756812Y-109733608D01*
X167642686Y-109799500D01*
X167642683Y-109799502D01*
X167549502Y-109892683D01*
X167549500Y-109892686D01*
X167483608Y-110006812D01*
X167449500Y-110134108D01*
X156200500Y-110134108D01*
X156200500Y-109084108D01*
X208249500Y-109084108D01*
X208249500Y-109215891D01*
X208283608Y-109343187D01*
X208316554Y-109400250D01*
X208349500Y-109457314D01*
X208442686Y-109550500D01*
X208556814Y-109616392D01*
X208684108Y-109650500D01*
X208684110Y-109650500D01*
X208815890Y-109650500D01*
X208815892Y-109650500D01*
X208943186Y-109616392D01*
X209057314Y-109550500D01*
X209150500Y-109457314D01*
X209216392Y-109343186D01*
X209250500Y-109215892D01*
X209250500Y-109084108D01*
X209216392Y-108956814D01*
X209150500Y-108842686D01*
X209057314Y-108749500D01*
X208989745Y-108710489D01*
X208943187Y-108683608D01*
X208879539Y-108666554D01*
X208815892Y-108649500D01*
X208684108Y-108649500D01*
X208556812Y-108683608D01*
X208442686Y-108749500D01*
X208442683Y-108749502D01*
X208349502Y-108842683D01*
X208349500Y-108842686D01*
X208283608Y-108956812D01*
X208249500Y-109084108D01*
X156200500Y-109084108D01*
X156200500Y-108290691D01*
X166699500Y-108290691D01*
X166699500Y-108409309D01*
X166730201Y-108523886D01*
X166789511Y-108626613D01*
X166873387Y-108710489D01*
X166976114Y-108769799D01*
X167090691Y-108800500D01*
X167090694Y-108800500D01*
X167209306Y-108800500D01*
X167209309Y-108800500D01*
X167323886Y-108769799D01*
X167426613Y-108710489D01*
X167510489Y-108626613D01*
X167569799Y-108523886D01*
X167600500Y-108409309D01*
X167600500Y-108290691D01*
X167569799Y-108176114D01*
X167520480Y-108090691D01*
X209149500Y-108090691D01*
X209149500Y-108209309D01*
X209180201Y-108323886D01*
X209239511Y-108426613D01*
X209323387Y-108510489D01*
X209426114Y-108569799D01*
X209540691Y-108600500D01*
X209540694Y-108600500D01*
X209659306Y-108600500D01*
X209659309Y-108600500D01*
X209773886Y-108569799D01*
X209876613Y-108510489D01*
X209960489Y-108426613D01*
X210019799Y-108323886D01*
X210050500Y-108209309D01*
X210050500Y-108090691D01*
X210019799Y-107976114D01*
X209960489Y-107873387D01*
X209876613Y-107789511D01*
X209773886Y-107730201D01*
X209659309Y-107699500D01*
X209540691Y-107699500D01*
X209426114Y-107730201D01*
X209426112Y-107730201D01*
X209426112Y-107730202D01*
X209323387Y-107789511D01*
X209323384Y-107789513D01*
X209239513Y-107873384D01*
X209239511Y-107873387D01*
X209206709Y-107930202D01*
X209180201Y-107976114D01*
X209149500Y-108090691D01*
X167520480Y-108090691D01*
X167510489Y-108073387D01*
X167426613Y-107989511D01*
X167323886Y-107930201D01*
X167209309Y-107899500D01*
X167090691Y-107899500D01*
X166976114Y-107930201D01*
X166976112Y-107930201D01*
X166976112Y-107930202D01*
X166873387Y-107989511D01*
X166873384Y-107989513D01*
X166789513Y-108073384D01*
X166789511Y-108073387D01*
X166730201Y-108176114D01*
X166699500Y-108290691D01*
X156200500Y-108290691D01*
X156200500Y-107390691D01*
X210149500Y-107390691D01*
X210149500Y-107509309D01*
X210180201Y-107623886D01*
X210239511Y-107726613D01*
X210323387Y-107810489D01*
X210426114Y-107869799D01*
X210540691Y-107900500D01*
X210540694Y-107900500D01*
X210659306Y-107900500D01*
X210659309Y-107900500D01*
X210773886Y-107869799D01*
X210876613Y-107810489D01*
X210960489Y-107726613D01*
X211019799Y-107623886D01*
X211050500Y-107509309D01*
X211050500Y-107390691D01*
X211019799Y-107276114D01*
X210960489Y-107173387D01*
X210876613Y-107089511D01*
X210773886Y-107030201D01*
X210659309Y-106999500D01*
X210540691Y-106999500D01*
X210426114Y-107030201D01*
X210426112Y-107030201D01*
X210426112Y-107030202D01*
X210323387Y-107089511D01*
X210323384Y-107089513D01*
X210239513Y-107173384D01*
X210239511Y-107173387D01*
X210180201Y-107276114D01*
X210149500Y-107390691D01*
X156200500Y-107390691D01*
X156200500Y-104285837D01*
X157449500Y-104285837D01*
X157449500Y-104514162D01*
X157485215Y-104739660D01*
X157555770Y-104956803D01*
X157635234Y-105112759D01*
X157659421Y-105160228D01*
X157793621Y-105344937D01*
X157955063Y-105506379D01*
X158139772Y-105640579D01*
X158176526Y-105659306D01*
X158343196Y-105744229D01*
X158343198Y-105744229D01*
X158343201Y-105744231D01*
X158459592Y-105782049D01*
X158560339Y-105814784D01*
X158785838Y-105850500D01*
X158785843Y-105850500D01*
X159014162Y-105850500D01*
X159239660Y-105814784D01*
X159307670Y-105792686D01*
X159456799Y-105744231D01*
X159660228Y-105640579D01*
X159844937Y-105506379D01*
X160006379Y-105344937D01*
X160045791Y-105290691D01*
X175874500Y-105290691D01*
X175874500Y-105409309D01*
X175905201Y-105523886D01*
X175964511Y-105626613D01*
X176048387Y-105710489D01*
X176151114Y-105769799D01*
X176265691Y-105800500D01*
X176265694Y-105800500D01*
X176384306Y-105800500D01*
X176384309Y-105800500D01*
X176498886Y-105769799D01*
X176601613Y-105710489D01*
X176685489Y-105626613D01*
X176735097Y-105540691D01*
X182599500Y-105540691D01*
X182599500Y-105659309D01*
X182630201Y-105773886D01*
X182689511Y-105876613D01*
X182773387Y-105960489D01*
X182876114Y-106019799D01*
X182990691Y-106050500D01*
X182990694Y-106050500D01*
X183109306Y-106050500D01*
X183109309Y-106050500D01*
X183223886Y-106019799D01*
X183326613Y-105960489D01*
X183377476Y-105909625D01*
X183438797Y-105876141D01*
X183508489Y-105881125D01*
X183540647Y-105898935D01*
X183542683Y-105900497D01*
X183542686Y-105900500D01*
X183639156Y-105956197D01*
X183646584Y-105960486D01*
X183656814Y-105966392D01*
X183784108Y-106000500D01*
X183784110Y-106000500D01*
X183915890Y-106000500D01*
X183915892Y-106000500D01*
X184043186Y-105966392D01*
X184157314Y-105900500D01*
X184250500Y-105807314D01*
X184298824Y-105723615D01*
X208124500Y-105723615D01*
X208124500Y-105876384D01*
X208154300Y-106026197D01*
X208154302Y-106026205D01*
X208212759Y-106167334D01*
X208212764Y-106167343D01*
X208297629Y-106294351D01*
X208297632Y-106294355D01*
X208405644Y-106402367D01*
X208405648Y-106402370D01*
X208532656Y-106487235D01*
X208532662Y-106487238D01*
X208532663Y-106487239D01*
X208673795Y-106545698D01*
X208823615Y-106575499D01*
X208823619Y-106575500D01*
X208823620Y-106575500D01*
X208976381Y-106575500D01*
X208976382Y-106575499D01*
X209126205Y-106545698D01*
X209267337Y-106487239D01*
X209394352Y-106402370D01*
X209502370Y-106294352D01*
X209587239Y-106167337D01*
X209642424Y-106034108D01*
X212999500Y-106034108D01*
X212999500Y-106165892D01*
X212999887Y-106167337D01*
X213033608Y-106293187D01*
X213066554Y-106350250D01*
X213099500Y-106407314D01*
X213192686Y-106500500D01*
X213306814Y-106566392D01*
X213434108Y-106600500D01*
X213434110Y-106600500D01*
X213565890Y-106600500D01*
X213565892Y-106600500D01*
X213693186Y-106566392D01*
X213807314Y-106500500D01*
X213900500Y-106407314D01*
X213966392Y-106293186D01*
X214000500Y-106165892D01*
X214000500Y-106034108D01*
X213966392Y-105906814D01*
X213962745Y-105900498D01*
X213951560Y-105881125D01*
X213900500Y-105792686D01*
X213807314Y-105699500D01*
X213806434Y-105698992D01*
X228874500Y-105698992D01*
X228874500Y-105901007D01*
X228913907Y-106099119D01*
X228913909Y-106099127D01*
X228991212Y-106285752D01*
X228991217Y-106285762D01*
X229103441Y-106453718D01*
X229246281Y-106596558D01*
X229414237Y-106708782D01*
X229414241Y-106708784D01*
X229414244Y-106708786D01*
X229600873Y-106786091D01*
X229798992Y-106825499D01*
X229798996Y-106825500D01*
X229798997Y-106825500D01*
X230001004Y-106825500D01*
X230001005Y-106825499D01*
X230199127Y-106786091D01*
X230385756Y-106708786D01*
X230553718Y-106596558D01*
X230696558Y-106453718D01*
X230808786Y-106285756D01*
X230886091Y-106099127D01*
X230925500Y-105901003D01*
X230925500Y-105698997D01*
X230886091Y-105500873D01*
X230808786Y-105314244D01*
X230808784Y-105314241D01*
X230808782Y-105314237D01*
X230696558Y-105146281D01*
X230553718Y-105003441D01*
X230385762Y-104891217D01*
X230385752Y-104891212D01*
X230199127Y-104813909D01*
X230199119Y-104813907D01*
X230001007Y-104774500D01*
X230001003Y-104774500D01*
X229798997Y-104774500D01*
X229798992Y-104774500D01*
X229600880Y-104813907D01*
X229600872Y-104813909D01*
X229414247Y-104891212D01*
X229414237Y-104891217D01*
X229246281Y-105003441D01*
X229103441Y-105146281D01*
X228991217Y-105314237D01*
X228991212Y-105314247D01*
X228913909Y-105500872D01*
X228913907Y-105500880D01*
X228874500Y-105698992D01*
X213806434Y-105698992D01*
X213750250Y-105666554D01*
X213693187Y-105633608D01*
X213629539Y-105616554D01*
X213565892Y-105599500D01*
X213434108Y-105599500D01*
X213306812Y-105633608D01*
X213192686Y-105699500D01*
X213192683Y-105699502D01*
X213099502Y-105792683D01*
X213099500Y-105792686D01*
X213033608Y-105906812D01*
X213017644Y-105966392D01*
X212999500Y-106034108D01*
X209642424Y-106034108D01*
X209645698Y-106026205D01*
X209648188Y-106013683D01*
X209650555Y-106001790D01*
X209670703Y-105900497D01*
X209675500Y-105876380D01*
X209675500Y-105723620D01*
X209645698Y-105573795D01*
X209598764Y-105460486D01*
X209587240Y-105432665D01*
X209587235Y-105432656D01*
X209502370Y-105305648D01*
X209502367Y-105305644D01*
X209394355Y-105197632D01*
X209394351Y-105197629D01*
X209267343Y-105112764D01*
X209267334Y-105112759D01*
X209126205Y-105054302D01*
X209126197Y-105054300D01*
X208976384Y-105024500D01*
X208976380Y-105024500D01*
X208823620Y-105024500D01*
X208823615Y-105024500D01*
X208673802Y-105054300D01*
X208673794Y-105054302D01*
X208532665Y-105112759D01*
X208532656Y-105112764D01*
X208405648Y-105197629D01*
X208405644Y-105197632D01*
X208297632Y-105305644D01*
X208297629Y-105305648D01*
X208212764Y-105432656D01*
X208212759Y-105432665D01*
X208154302Y-105573794D01*
X208154300Y-105573802D01*
X208124500Y-105723615D01*
X184298824Y-105723615D01*
X184316392Y-105693186D01*
X184350500Y-105565892D01*
X184350500Y-105434108D01*
X184316392Y-105306814D01*
X184315716Y-105305644D01*
X184307083Y-105290691D01*
X184250500Y-105192686D01*
X184157314Y-105099500D01*
X184055458Y-105040693D01*
X184055455Y-105040691D01*
X187599500Y-105040691D01*
X187599500Y-105159309D01*
X187630201Y-105273886D01*
X187689511Y-105376613D01*
X187773387Y-105460489D01*
X187876114Y-105519799D01*
X187990691Y-105550500D01*
X187990694Y-105550500D01*
X188109306Y-105550500D01*
X188109309Y-105550500D01*
X188223886Y-105519799D01*
X188326613Y-105460489D01*
X188410489Y-105376613D01*
X188469799Y-105273886D01*
X188500500Y-105159309D01*
X188500500Y-105040691D01*
X188469799Y-104926114D01*
X188410489Y-104823387D01*
X188326613Y-104739511D01*
X188223886Y-104680201D01*
X188109309Y-104649500D01*
X187990691Y-104649500D01*
X187876114Y-104680201D01*
X187876112Y-104680201D01*
X187876112Y-104680202D01*
X187773387Y-104739511D01*
X187773384Y-104739513D01*
X187689513Y-104823384D01*
X187689511Y-104823387D01*
X187630201Y-104926114D01*
X187599500Y-105040691D01*
X184055455Y-105040691D01*
X184043187Y-105033608D01*
X183979539Y-105016554D01*
X183915892Y-104999500D01*
X183784108Y-104999500D01*
X183656812Y-105033608D01*
X183542686Y-105099500D01*
X183443753Y-105198433D01*
X183441676Y-105196356D01*
X183396616Y-105229242D01*
X183326868Y-105233379D01*
X183292696Y-105219929D01*
X183254077Y-105197632D01*
X183223886Y-105180201D01*
X183109309Y-105149500D01*
X182990691Y-105149500D01*
X182876114Y-105180201D01*
X182876112Y-105180201D01*
X182876112Y-105180202D01*
X182773387Y-105239511D01*
X182773384Y-105239513D01*
X182689513Y-105323384D01*
X182689511Y-105323387D01*
X182639905Y-105409307D01*
X182630201Y-105426114D01*
X182599500Y-105540691D01*
X176735097Y-105540691D01*
X176744799Y-105523886D01*
X176775500Y-105409309D01*
X176775500Y-105290691D01*
X176744799Y-105176114D01*
X176685489Y-105073387D01*
X176601613Y-104989511D01*
X176498886Y-104930201D01*
X176384309Y-104899500D01*
X176265691Y-104899500D01*
X176151114Y-104930201D01*
X176151112Y-104930201D01*
X176151112Y-104930202D01*
X176048387Y-104989511D01*
X176048384Y-104989513D01*
X175964513Y-105073384D01*
X175964511Y-105073387D01*
X175949435Y-105099500D01*
X175905201Y-105176114D01*
X175874500Y-105290691D01*
X160045791Y-105290691D01*
X160140579Y-105160228D01*
X160244231Y-104956799D01*
X160314784Y-104739660D01*
X160324201Y-104680202D01*
X160350500Y-104514162D01*
X160350500Y-104290691D01*
X219349500Y-104290691D01*
X219349500Y-104409309D01*
X219380201Y-104523886D01*
X219439511Y-104626613D01*
X219523387Y-104710489D01*
X219626114Y-104769799D01*
X219740691Y-104800500D01*
X219740694Y-104800500D01*
X219859306Y-104800500D01*
X219859309Y-104800500D01*
X219973886Y-104769799D01*
X220076613Y-104710489D01*
X220160489Y-104626613D01*
X220219799Y-104523886D01*
X220250500Y-104409309D01*
X220250500Y-104290691D01*
X220219799Y-104176114D01*
X220160489Y-104073387D01*
X220076613Y-103989511D01*
X219973886Y-103930201D01*
X219859309Y-103899500D01*
X219740691Y-103899500D01*
X219626114Y-103930201D01*
X219626112Y-103930201D01*
X219626112Y-103930202D01*
X219523387Y-103989511D01*
X219523384Y-103989513D01*
X219439513Y-104073384D01*
X219439511Y-104073387D01*
X219380201Y-104176114D01*
X219349500Y-104290691D01*
X160350500Y-104290691D01*
X160350500Y-104285837D01*
X160314784Y-104060339D01*
X160244229Y-103843196D01*
X160140578Y-103639771D01*
X160006379Y-103455063D01*
X159844937Y-103293621D01*
X159660228Y-103159421D01*
X159456803Y-103055770D01*
X159239660Y-102985215D01*
X159014162Y-102949500D01*
X159014157Y-102949500D01*
X158785843Y-102949500D01*
X158785838Y-102949500D01*
X158560339Y-102985215D01*
X158343196Y-103055770D01*
X158139771Y-103159421D01*
X157955061Y-103293622D01*
X157793622Y-103455061D01*
X157659421Y-103639771D01*
X157555770Y-103843196D01*
X157485215Y-104060339D01*
X157449500Y-104285837D01*
X156200500Y-104285837D01*
X156200500Y-99840691D01*
X163349500Y-99840691D01*
X163349500Y-99959309D01*
X163380201Y-100073886D01*
X163439511Y-100176613D01*
X163523387Y-100260489D01*
X163626114Y-100319799D01*
X163740691Y-100350500D01*
X163740694Y-100350500D01*
X163859306Y-100350500D01*
X163859309Y-100350500D01*
X163973886Y-100319799D01*
X164076613Y-100260489D01*
X164160489Y-100176613D01*
X164219799Y-100073886D01*
X164250500Y-99959309D01*
X164250500Y-99840691D01*
X164219799Y-99726114D01*
X164160489Y-99623387D01*
X164076613Y-99539511D01*
X163973886Y-99480201D01*
X163859309Y-99449500D01*
X163740691Y-99449500D01*
X163626114Y-99480201D01*
X163626112Y-99480201D01*
X163626112Y-99480202D01*
X163523387Y-99539511D01*
X163523384Y-99539513D01*
X163439513Y-99623384D01*
X163439511Y-99623387D01*
X163380201Y-99726114D01*
X163349500Y-99840691D01*
X156200500Y-99840691D01*
X156200500Y-98990691D01*
X217399500Y-98990691D01*
X217399500Y-99109309D01*
X217430201Y-99223886D01*
X217489511Y-99326613D01*
X217573387Y-99410489D01*
X217676114Y-99469799D01*
X217790691Y-99500500D01*
X217790694Y-99500500D01*
X217909306Y-99500500D01*
X217909309Y-99500500D01*
X218023886Y-99469799D01*
X218126613Y-99410489D01*
X218210489Y-99326613D01*
X218269799Y-99223886D01*
X218300500Y-99109309D01*
X218300500Y-98990691D01*
X218269799Y-98876114D01*
X218210489Y-98773387D01*
X218126613Y-98689511D01*
X218023886Y-98630201D01*
X217909309Y-98599500D01*
X217790691Y-98599500D01*
X217676114Y-98630201D01*
X217676112Y-98630201D01*
X217676112Y-98630202D01*
X217573387Y-98689511D01*
X217573384Y-98689513D01*
X217489513Y-98773384D01*
X217489511Y-98773387D01*
X217430840Y-98875008D01*
X217430201Y-98876114D01*
X217399500Y-98990691D01*
X156200500Y-98990691D01*
X156200500Y-98040691D01*
X215899500Y-98040691D01*
X215899500Y-98159309D01*
X215930201Y-98273886D01*
X215989511Y-98376613D01*
X216073387Y-98460489D01*
X216176114Y-98519799D01*
X216290691Y-98550500D01*
X216290694Y-98550500D01*
X216409306Y-98550500D01*
X216409309Y-98550500D01*
X216523886Y-98519799D01*
X216626613Y-98460489D01*
X216710489Y-98376613D01*
X216769799Y-98273886D01*
X216778694Y-98240691D01*
X229449500Y-98240691D01*
X229449500Y-98359309D01*
X229480201Y-98473886D01*
X229539511Y-98576613D01*
X229623387Y-98660489D01*
X229676180Y-98690969D01*
X229724395Y-98741537D01*
X229737617Y-98810144D01*
X229711649Y-98875008D01*
X229702124Y-98885740D01*
X229702011Y-98885887D01*
X229642701Y-98988614D01*
X229612000Y-99103191D01*
X229612000Y-99221809D01*
X229642701Y-99336386D01*
X229702011Y-99439113D01*
X229785887Y-99522989D01*
X229888614Y-99582299D01*
X230003191Y-99613000D01*
X230003194Y-99613000D01*
X230121806Y-99613000D01*
X230121809Y-99613000D01*
X230236386Y-99582299D01*
X230339113Y-99522989D01*
X230422989Y-99439113D01*
X230482299Y-99336386D01*
X230513000Y-99221809D01*
X230513000Y-99103191D01*
X230482299Y-98988614D01*
X230422989Y-98885887D01*
X230339113Y-98802011D01*
X230339110Y-98802009D01*
X230339106Y-98802006D01*
X230286319Y-98771529D01*
X230238104Y-98720962D01*
X230224882Y-98652355D01*
X230250850Y-98587490D01*
X230260376Y-98576758D01*
X230260481Y-98576620D01*
X230260489Y-98576613D01*
X230319799Y-98473886D01*
X230350500Y-98359309D01*
X230350500Y-98240691D01*
X230319799Y-98126114D01*
X230260489Y-98023387D01*
X230176613Y-97939511D01*
X230073886Y-97880201D01*
X229959309Y-97849500D01*
X229840691Y-97849500D01*
X229726114Y-97880201D01*
X229726112Y-97880201D01*
X229726112Y-97880202D01*
X229623387Y-97939511D01*
X229623384Y-97939513D01*
X229539513Y-98023384D01*
X229539511Y-98023387D01*
X229518091Y-98060488D01*
X229480201Y-98126114D01*
X229449500Y-98240691D01*
X216778694Y-98240691D01*
X216800500Y-98159309D01*
X216800500Y-98040691D01*
X216769799Y-97926114D01*
X216710489Y-97823387D01*
X216654922Y-97767820D01*
X216621437Y-97706497D01*
X216626143Y-97640691D01*
X222274500Y-97640691D01*
X222274500Y-97759309D01*
X222305201Y-97873886D01*
X222364511Y-97976613D01*
X222448387Y-98060489D01*
X222551114Y-98119799D01*
X222665691Y-98150500D01*
X222665694Y-98150500D01*
X222784306Y-98150500D01*
X222784309Y-98150500D01*
X222898886Y-98119799D01*
X223001613Y-98060489D01*
X223085489Y-97976613D01*
X223144799Y-97873886D01*
X223175500Y-97759309D01*
X223175500Y-97640691D01*
X223144799Y-97526114D01*
X223085489Y-97423387D01*
X223001613Y-97339511D01*
X222898886Y-97280201D01*
X222784309Y-97249500D01*
X222665691Y-97249500D01*
X222551114Y-97280201D01*
X222551112Y-97280201D01*
X222551112Y-97280202D01*
X222448387Y-97339511D01*
X222448384Y-97339513D01*
X222364513Y-97423384D01*
X222364511Y-97423387D01*
X222333780Y-97476615D01*
X222305201Y-97526114D01*
X222274500Y-97640691D01*
X216626143Y-97640691D01*
X216626421Y-97636805D01*
X216668293Y-97580872D01*
X216686255Y-97570644D01*
X216686147Y-97570456D01*
X216712200Y-97555414D01*
X216807314Y-97500500D01*
X216900500Y-97407314D01*
X216966392Y-97293186D01*
X217000500Y-97165892D01*
X217000500Y-97034108D01*
X221049500Y-97034108D01*
X221049500Y-97165891D01*
X221083608Y-97293187D01*
X221093596Y-97310486D01*
X221149500Y-97407314D01*
X221242686Y-97500500D01*
X221337800Y-97555414D01*
X221356810Y-97566390D01*
X221356814Y-97566392D01*
X221484108Y-97600500D01*
X221484110Y-97600500D01*
X221615890Y-97600500D01*
X221615892Y-97600500D01*
X221743186Y-97566392D01*
X221857314Y-97500500D01*
X221950500Y-97407314D01*
X222016392Y-97293186D01*
X222050500Y-97165892D01*
X222050500Y-97034108D01*
X222016392Y-96906814D01*
X221950500Y-96792686D01*
X221857314Y-96699500D01*
X221800250Y-96666554D01*
X221743187Y-96633608D01*
X221656900Y-96610488D01*
X221615892Y-96599500D01*
X221484108Y-96599500D01*
X221356812Y-96633608D01*
X221242686Y-96699500D01*
X221242683Y-96699502D01*
X221149502Y-96792683D01*
X221149500Y-96792686D01*
X221083608Y-96906812D01*
X221049500Y-97034108D01*
X217000500Y-97034108D01*
X216966392Y-96906814D01*
X216900500Y-96792686D01*
X216807314Y-96699500D01*
X216750250Y-96666554D01*
X216693187Y-96633608D01*
X216606900Y-96610488D01*
X216565892Y-96599500D01*
X216434108Y-96599500D01*
X216306812Y-96633608D01*
X216192686Y-96699500D01*
X216192683Y-96699502D01*
X216099502Y-96792683D01*
X216099500Y-96792686D01*
X216033608Y-96906812D01*
X215999500Y-97034108D01*
X215999500Y-97165891D01*
X216033608Y-97293187D01*
X216043596Y-97310486D01*
X216099500Y-97407314D01*
X216099502Y-97407316D01*
X216186277Y-97494091D01*
X216219762Y-97555414D01*
X216214778Y-97625106D01*
X216172906Y-97681039D01*
X216160598Y-97689158D01*
X216073390Y-97739509D01*
X216073384Y-97739513D01*
X215989513Y-97823384D01*
X215989511Y-97823387D01*
X215956709Y-97880202D01*
X215930201Y-97926114D01*
X215899500Y-98040691D01*
X156200500Y-98040691D01*
X156200500Y-97140691D01*
X166149500Y-97140691D01*
X166149500Y-97259309D01*
X166180201Y-97373886D01*
X166239511Y-97476613D01*
X166323387Y-97560489D01*
X166426114Y-97619799D01*
X166540691Y-97650500D01*
X166540694Y-97650500D01*
X166659306Y-97650500D01*
X166659309Y-97650500D01*
X166773886Y-97619799D01*
X166876613Y-97560489D01*
X166960489Y-97476613D01*
X167019799Y-97373886D01*
X167050500Y-97259309D01*
X167050500Y-97140691D01*
X167019799Y-97026114D01*
X166960489Y-96923387D01*
X166876613Y-96839511D01*
X166773886Y-96780201D01*
X166659309Y-96749500D01*
X166540691Y-96749500D01*
X166426114Y-96780201D01*
X166426112Y-96780201D01*
X166426112Y-96780202D01*
X166323387Y-96839511D01*
X166323384Y-96839513D01*
X166239513Y-96923384D01*
X166239511Y-96923387D01*
X166180201Y-97026114D01*
X166149500Y-97140691D01*
X156200500Y-97140691D01*
X156200500Y-96190691D01*
X175099500Y-96190691D01*
X175099500Y-96309309D01*
X175130201Y-96423886D01*
X175189511Y-96526613D01*
X175273387Y-96610489D01*
X175376114Y-96669799D01*
X175490691Y-96700500D01*
X175490694Y-96700500D01*
X175609306Y-96700500D01*
X175609309Y-96700500D01*
X175723886Y-96669799D01*
X175826613Y-96610489D01*
X175910489Y-96526613D01*
X175969799Y-96423886D01*
X176000500Y-96309309D01*
X176000500Y-96190691D01*
X175969799Y-96076114D01*
X175910489Y-95973387D01*
X175826613Y-95889511D01*
X175723886Y-95830201D01*
X175609309Y-95799500D01*
X175490691Y-95799500D01*
X175376114Y-95830201D01*
X175376112Y-95830201D01*
X175376112Y-95830202D01*
X175273387Y-95889511D01*
X175273384Y-95889513D01*
X175189513Y-95973384D01*
X175189511Y-95973387D01*
X175141353Y-96056799D01*
X175130201Y-96076114D01*
X175099500Y-96190691D01*
X156200500Y-96190691D01*
X156200500Y-95385837D01*
X182649500Y-95385837D01*
X182649500Y-95614162D01*
X182685215Y-95839660D01*
X182755770Y-96056803D01*
X182823990Y-96190691D01*
X182859421Y-96260228D01*
X182993621Y-96444937D01*
X183155063Y-96606379D01*
X183339772Y-96740579D01*
X183409510Y-96776112D01*
X183543196Y-96844229D01*
X183543198Y-96844229D01*
X183543201Y-96844231D01*
X183659592Y-96882049D01*
X183760339Y-96914784D01*
X183985838Y-96950500D01*
X183985843Y-96950500D01*
X184214162Y-96950500D01*
X184439660Y-96914784D01*
X184464195Y-96906812D01*
X184513810Y-96890691D01*
X196399500Y-96890691D01*
X196399500Y-97009309D01*
X196430201Y-97123886D01*
X196489511Y-97226613D01*
X196573387Y-97310489D01*
X196676114Y-97369799D01*
X196790691Y-97400500D01*
X196790694Y-97400500D01*
X196909306Y-97400500D01*
X196909309Y-97400500D01*
X197023886Y-97369799D01*
X197126613Y-97310489D01*
X197210489Y-97226613D01*
X197269799Y-97123886D01*
X197300500Y-97009309D01*
X197300500Y-96890691D01*
X197269799Y-96776114D01*
X197210489Y-96673387D01*
X197126613Y-96589511D01*
X197023886Y-96530201D01*
X196909309Y-96499500D01*
X196790691Y-96499500D01*
X196676114Y-96530201D01*
X196676112Y-96530201D01*
X196676112Y-96530202D01*
X196573387Y-96589511D01*
X196573384Y-96589513D01*
X196489513Y-96673384D01*
X196489511Y-96673387D01*
X196432531Y-96772079D01*
X196430201Y-96776114D01*
X196399500Y-96890691D01*
X184513810Y-96890691D01*
X184656799Y-96844231D01*
X184757968Y-96792683D01*
X184798406Y-96772079D01*
X184808470Y-96766950D01*
X184860228Y-96740579D01*
X185044937Y-96606379D01*
X185206379Y-96444937D01*
X185340579Y-96260228D01*
X185444231Y-96056799D01*
X185514784Y-95839660D01*
X185521145Y-95799500D01*
X185546298Y-95640691D01*
X208799500Y-95640691D01*
X208799500Y-95759309D01*
X208830201Y-95873886D01*
X208889511Y-95976613D01*
X208973387Y-96060489D01*
X209076114Y-96119799D01*
X209190691Y-96150500D01*
X209190694Y-96150500D01*
X209309306Y-96150500D01*
X209309309Y-96150500D01*
X209423886Y-96119799D01*
X209526613Y-96060489D01*
X209610489Y-95976613D01*
X209610491Y-95976608D01*
X209611607Y-95975493D01*
X209672930Y-95942008D01*
X209742622Y-95946992D01*
X209761288Y-95955786D01*
X209779658Y-95966392D01*
X209906952Y-96000500D01*
X209906954Y-96000500D01*
X210038734Y-96000500D01*
X210038736Y-96000500D01*
X210166030Y-95966392D01*
X210280158Y-95900500D01*
X210373344Y-95807314D01*
X210439236Y-95693186D01*
X210473344Y-95565892D01*
X210473344Y-95434108D01*
X210439236Y-95306814D01*
X210373344Y-95192686D01*
X210280158Y-95099500D01*
X210252215Y-95083367D01*
X210252214Y-95083366D01*
X210166032Y-95033609D01*
X210166031Y-95033608D01*
X210166030Y-95033608D01*
X210038736Y-94999500D01*
X209906952Y-94999500D01*
X209779656Y-95033608D01*
X209665530Y-95099500D01*
X209665527Y-95099502D01*
X209572346Y-95192683D01*
X209572344Y-95192686D01*
X209556269Y-95220528D01*
X209505700Y-95268742D01*
X209437093Y-95281963D01*
X209416796Y-95278301D01*
X209309309Y-95249500D01*
X209190691Y-95249500D01*
X209076114Y-95280201D01*
X209076112Y-95280201D01*
X209076112Y-95280202D01*
X208973387Y-95339511D01*
X208973384Y-95339513D01*
X208889513Y-95423384D01*
X208889511Y-95423387D01*
X208835815Y-95516391D01*
X208830201Y-95526114D01*
X208799500Y-95640691D01*
X185546298Y-95640691D01*
X185550500Y-95614163D01*
X185550500Y-95385837D01*
X185514784Y-95160339D01*
X185489774Y-95083368D01*
X185444231Y-94943201D01*
X185444227Y-94943193D01*
X185438666Y-94932277D01*
X185438665Y-94932276D01*
X185414122Y-94884108D01*
X202799500Y-94884108D01*
X202799500Y-95015891D01*
X202833608Y-95143187D01*
X202862185Y-95192683D01*
X202899500Y-95257314D01*
X202992686Y-95350500D01*
X203106814Y-95416392D01*
X203234108Y-95450500D01*
X203234110Y-95450500D01*
X203365890Y-95450500D01*
X203365892Y-95450500D01*
X203493186Y-95416392D01*
X203607314Y-95350500D01*
X203700500Y-95257314D01*
X203766392Y-95143186D01*
X203800500Y-95015892D01*
X203800500Y-94984108D01*
X229949500Y-94984108D01*
X229949500Y-95115892D01*
X229961410Y-95160340D01*
X229983608Y-95243187D01*
X230004979Y-95280202D01*
X230049500Y-95357314D01*
X230142686Y-95450500D01*
X230256814Y-95516392D01*
X230384108Y-95550500D01*
X230384110Y-95550500D01*
X230515890Y-95550500D01*
X230515892Y-95550500D01*
X230643186Y-95516392D01*
X230757314Y-95450500D01*
X230850500Y-95357314D01*
X230916392Y-95243186D01*
X230950500Y-95115892D01*
X230950500Y-94984108D01*
X230950498Y-94984104D01*
X230949707Y-94978091D01*
X230960471Y-94909056D01*
X231006849Y-94856798D01*
X231040546Y-94842129D01*
X231123886Y-94819799D01*
X231226613Y-94760489D01*
X231310489Y-94676613D01*
X231369799Y-94573886D01*
X231400500Y-94459309D01*
X231400500Y-94340691D01*
X231369799Y-94226114D01*
X231310489Y-94123387D01*
X231226613Y-94039511D01*
X231123886Y-93980201D01*
X231009309Y-93949500D01*
X230890691Y-93949500D01*
X230776114Y-93980201D01*
X230776112Y-93980201D01*
X230776112Y-93980202D01*
X230673387Y-94039511D01*
X230673384Y-94039513D01*
X230589513Y-94123384D01*
X230589511Y-94123387D01*
X230530201Y-94226114D01*
X230499500Y-94340691D01*
X230499500Y-94340693D01*
X230499500Y-94425563D01*
X230479815Y-94492602D01*
X230427011Y-94538357D01*
X230391690Y-94548502D01*
X230384107Y-94549500D01*
X230256812Y-94583608D01*
X230142686Y-94649500D01*
X230142683Y-94649502D01*
X230049502Y-94742683D01*
X230049500Y-94742686D01*
X229983608Y-94856812D01*
X229976294Y-94884110D01*
X229949500Y-94984108D01*
X203800500Y-94984108D01*
X203800500Y-94884108D01*
X203766392Y-94756814D01*
X203700500Y-94642686D01*
X203607314Y-94549500D01*
X203550250Y-94516554D01*
X203493187Y-94483608D01*
X203406900Y-94460488D01*
X203365892Y-94449500D01*
X203234108Y-94449500D01*
X203106812Y-94483608D01*
X202992686Y-94549500D01*
X202992683Y-94549502D01*
X202899502Y-94642683D01*
X202899500Y-94642686D01*
X202833608Y-94756812D01*
X202799500Y-94884108D01*
X185414122Y-94884108D01*
X185381354Y-94819798D01*
X185340579Y-94739772D01*
X185206379Y-94555063D01*
X185044937Y-94393621D01*
X184860228Y-94259421D01*
X184842714Y-94250497D01*
X184656803Y-94155770D01*
X184439660Y-94085215D01*
X184214162Y-94049500D01*
X184214157Y-94049500D01*
X183985843Y-94049500D01*
X183985838Y-94049500D01*
X183760339Y-94085215D01*
X183543196Y-94155770D01*
X183339771Y-94259421D01*
X183155061Y-94393622D01*
X182993622Y-94555061D01*
X182859421Y-94739771D01*
X182755770Y-94943196D01*
X182685215Y-95160339D01*
X182649500Y-95385837D01*
X156200500Y-95385837D01*
X156200500Y-93784108D01*
X204899500Y-93784108D01*
X204899500Y-93915892D01*
X204902239Y-93926114D01*
X204933608Y-94043187D01*
X204957874Y-94085216D01*
X204999500Y-94157314D01*
X205092686Y-94250500D01*
X205206814Y-94316392D01*
X205334108Y-94350500D01*
X205334110Y-94350500D01*
X205465890Y-94350500D01*
X205465892Y-94350500D01*
X205593186Y-94316392D01*
X205707314Y-94250500D01*
X205800500Y-94157314D01*
X205866392Y-94043186D01*
X205867061Y-94040691D01*
X209299500Y-94040691D01*
X209299500Y-94159309D01*
X209330201Y-94273886D01*
X209389511Y-94376613D01*
X209473387Y-94460489D01*
X209576114Y-94519799D01*
X209690691Y-94550500D01*
X209690694Y-94550500D01*
X209809306Y-94550500D01*
X209809309Y-94550500D01*
X209923886Y-94519799D01*
X210026613Y-94460489D01*
X210110489Y-94376613D01*
X210169799Y-94273886D01*
X210200500Y-94159309D01*
X210200500Y-94040691D01*
X210169799Y-93926114D01*
X210110489Y-93823387D01*
X210026613Y-93739511D01*
X209923886Y-93680201D01*
X209809309Y-93649500D01*
X209690691Y-93649500D01*
X209576114Y-93680201D01*
X209576112Y-93680201D01*
X209576112Y-93680202D01*
X209473387Y-93739511D01*
X209473384Y-93739513D01*
X209389513Y-93823384D01*
X209389511Y-93823387D01*
X209330201Y-93926114D01*
X209299500Y-94040691D01*
X205867061Y-94040691D01*
X205900500Y-93915892D01*
X205900500Y-93784108D01*
X205866392Y-93656814D01*
X205800500Y-93542686D01*
X205707314Y-93449500D01*
X205650250Y-93416554D01*
X205593187Y-93383608D01*
X205529539Y-93366554D01*
X205465892Y-93349500D01*
X205334108Y-93349500D01*
X205206812Y-93383608D01*
X205092686Y-93449500D01*
X205092683Y-93449502D01*
X204999502Y-93542683D01*
X204999500Y-93542686D01*
X204933608Y-93656812D01*
X204911449Y-93739513D01*
X204899500Y-93784108D01*
X156200500Y-93784108D01*
X156200500Y-92840691D01*
X214349500Y-92840691D01*
X214349500Y-92959309D01*
X214380201Y-93073886D01*
X214439511Y-93176613D01*
X214523387Y-93260489D01*
X214626114Y-93319799D01*
X214740691Y-93350500D01*
X214740694Y-93350500D01*
X214859306Y-93350500D01*
X214859309Y-93350500D01*
X214973886Y-93319799D01*
X215076613Y-93260489D01*
X215160489Y-93176613D01*
X215219799Y-93073886D01*
X215250500Y-92959309D01*
X215250500Y-92840691D01*
X215219799Y-92726114D01*
X215160489Y-92623387D01*
X215076613Y-92539511D01*
X214973886Y-92480201D01*
X214859309Y-92449500D01*
X214740691Y-92449500D01*
X214626114Y-92480201D01*
X214626112Y-92480201D01*
X214626112Y-92480202D01*
X214523387Y-92539511D01*
X214523384Y-92539513D01*
X214439513Y-92623384D01*
X214439511Y-92623387D01*
X214380201Y-92726114D01*
X214349500Y-92840691D01*
X156200500Y-92840691D01*
X156200500Y-91240691D01*
X229549500Y-91240691D01*
X229549500Y-91359309D01*
X229580201Y-91473886D01*
X229639511Y-91576613D01*
X229723387Y-91660489D01*
X229826114Y-91719799D01*
X229940691Y-91750500D01*
X229940694Y-91750500D01*
X230059306Y-91750500D01*
X230059309Y-91750500D01*
X230173886Y-91719799D01*
X230276613Y-91660489D01*
X230360489Y-91576613D01*
X230419799Y-91473886D01*
X230450500Y-91359309D01*
X230450500Y-91240691D01*
X230419799Y-91126114D01*
X230360489Y-91023387D01*
X230276613Y-90939511D01*
X230173886Y-90880201D01*
X230059309Y-90849500D01*
X229940691Y-90849500D01*
X229826114Y-90880201D01*
X229826112Y-90880201D01*
X229826112Y-90880202D01*
X229723387Y-90939511D01*
X229723384Y-90939513D01*
X229639513Y-91023384D01*
X229639511Y-91023387D01*
X229580201Y-91126114D01*
X229549500Y-91240691D01*
X156200500Y-91240691D01*
X156200500Y-90942961D01*
X225224880Y-90942961D01*
X225224880Y-90942962D01*
X225228429Y-90945334D01*
X225355813Y-90998097D01*
X225355823Y-90998100D01*
X225491053Y-91025000D01*
X225628946Y-91025000D01*
X225764176Y-90998100D01*
X225764186Y-90998097D01*
X225891570Y-90945334D01*
X225891572Y-90945332D01*
X225895119Y-90942961D01*
X226324880Y-90942961D01*
X226324880Y-90942962D01*
X226328429Y-90945334D01*
X226455813Y-90998097D01*
X226455823Y-90998100D01*
X226591053Y-91025000D01*
X226728946Y-91025000D01*
X226864176Y-90998100D01*
X226864186Y-90998097D01*
X226991570Y-90945334D01*
X226991572Y-90945332D01*
X226995119Y-90942961D01*
X226660001Y-90607842D01*
X226660000Y-90607842D01*
X226324880Y-90942961D01*
X225895119Y-90942961D01*
X225560001Y-90607842D01*
X225560000Y-90607842D01*
X225224880Y-90942961D01*
X156200500Y-90942961D01*
X156200500Y-90240691D01*
X195599500Y-90240691D01*
X195599500Y-90359309D01*
X195630201Y-90473886D01*
X195689511Y-90576613D01*
X195773387Y-90660489D01*
X195876114Y-90719799D01*
X195990691Y-90750500D01*
X195990694Y-90750500D01*
X196109306Y-90750500D01*
X196109309Y-90750500D01*
X196223886Y-90719799D01*
X196326613Y-90660489D01*
X196410489Y-90576613D01*
X196469799Y-90473886D01*
X196491483Y-90392961D01*
X224674880Y-90392961D01*
X224674880Y-90392962D01*
X224678425Y-90395331D01*
X224811446Y-90450429D01*
X224810863Y-90451836D01*
X224863032Y-90486015D01*
X224883725Y-90523903D01*
X224884570Y-90523554D01*
X224939668Y-90656573D01*
X224939668Y-90656574D01*
X224942037Y-90660119D01*
X225277157Y-90325000D01*
X225277157Y-90324999D01*
X225247321Y-90295163D01*
X225410000Y-90295163D01*
X225410000Y-90354837D01*
X225432836Y-90409968D01*
X225475032Y-90452164D01*
X225530163Y-90475000D01*
X225589837Y-90475000D01*
X225644968Y-90452164D01*
X225687164Y-90409968D01*
X225710000Y-90354837D01*
X225710000Y-90325000D01*
X225842842Y-90325000D01*
X226110000Y-90592157D01*
X226110001Y-90592157D01*
X226377157Y-90325001D01*
X226377157Y-90324999D01*
X226347321Y-90295163D01*
X226510000Y-90295163D01*
X226510000Y-90354837D01*
X226532836Y-90409968D01*
X226575032Y-90452164D01*
X226630163Y-90475000D01*
X226689837Y-90475000D01*
X226744968Y-90452164D01*
X226787164Y-90409968D01*
X226810000Y-90354837D01*
X226810000Y-90325000D01*
X226942842Y-90325000D01*
X227277961Y-90660119D01*
X227280332Y-90656572D01*
X227280334Y-90656570D01*
X227335430Y-90523554D01*
X227336832Y-90524135D01*
X227371029Y-90471956D01*
X227408903Y-90451274D01*
X227408554Y-90450430D01*
X227541570Y-90395334D01*
X227541572Y-90395332D01*
X227545119Y-90392961D01*
X227210001Y-90057842D01*
X227210000Y-90057842D01*
X226942842Y-90325000D01*
X226810000Y-90325000D01*
X226810000Y-90295163D01*
X226787164Y-90240032D01*
X226744968Y-90197836D01*
X226689837Y-90175000D01*
X226630163Y-90175000D01*
X226575032Y-90197836D01*
X226532836Y-90240032D01*
X226510000Y-90295163D01*
X226347321Y-90295163D01*
X226110000Y-90057842D01*
X225842842Y-90325000D01*
X225710000Y-90325000D01*
X225710000Y-90295163D01*
X225687164Y-90240032D01*
X225644968Y-90197836D01*
X225589837Y-90175000D01*
X225530163Y-90175000D01*
X225475032Y-90197836D01*
X225432836Y-90240032D01*
X225410000Y-90295163D01*
X225247321Y-90295163D01*
X225131957Y-90179799D01*
X225131957Y-90179800D01*
X225009998Y-90057842D01*
X224674880Y-90392961D01*
X196491483Y-90392961D01*
X196500500Y-90359309D01*
X196500500Y-90240691D01*
X196469799Y-90126114D01*
X196410489Y-90023387D01*
X196326613Y-89939511D01*
X196223886Y-89880201D01*
X196109309Y-89849500D01*
X195990691Y-89849500D01*
X195876114Y-89880201D01*
X195876112Y-89880201D01*
X195876112Y-89880202D01*
X195773387Y-89939511D01*
X195773384Y-89939513D01*
X195689513Y-90023384D01*
X195689511Y-90023387D01*
X195630743Y-90125176D01*
X195630201Y-90126114D01*
X195599500Y-90240691D01*
X156200500Y-90240691D01*
X156200500Y-89700691D01*
X184959500Y-89700691D01*
X184959500Y-89819309D01*
X184990201Y-89933886D01*
X185049511Y-90036613D01*
X185133387Y-90120489D01*
X185236114Y-90179799D01*
X185350691Y-90210500D01*
X185350694Y-90210500D01*
X185469306Y-90210500D01*
X185469309Y-90210500D01*
X185583886Y-90179799D01*
X185686613Y-90120489D01*
X185770489Y-90036613D01*
X185829799Y-89933886D01*
X185853898Y-89843946D01*
X224309999Y-89843946D01*
X224336899Y-89979176D01*
X224336901Y-89979182D01*
X224389668Y-90106573D01*
X224389668Y-90106574D01*
X224392037Y-90110119D01*
X224727157Y-89775000D01*
X224697320Y-89745163D01*
X224860000Y-89745163D01*
X224860000Y-89804837D01*
X224882836Y-89859968D01*
X224925032Y-89902164D01*
X224980163Y-89925000D01*
X225039837Y-89925000D01*
X225094968Y-89902164D01*
X225137164Y-89859968D01*
X225160000Y-89804837D01*
X225160000Y-89775000D01*
X225292842Y-89775000D01*
X225426406Y-89908564D01*
X225426421Y-89908578D01*
X225560000Y-90042157D01*
X225560001Y-90042157D01*
X225693578Y-89908579D01*
X225827157Y-89775000D01*
X225827157Y-89774999D01*
X225797321Y-89745163D01*
X225960000Y-89745163D01*
X225960000Y-89804837D01*
X225982836Y-89859968D01*
X226025032Y-89902164D01*
X226080163Y-89925000D01*
X226139837Y-89925000D01*
X226194968Y-89902164D01*
X226237164Y-89859968D01*
X226260000Y-89804837D01*
X226260000Y-89775000D01*
X226392842Y-89775000D01*
X226526406Y-89908564D01*
X226526421Y-89908578D01*
X226660000Y-90042157D01*
X226660001Y-90042157D01*
X226793578Y-89908579D01*
X226927157Y-89775000D01*
X226927157Y-89774999D01*
X226897321Y-89745163D01*
X227060000Y-89745163D01*
X227060000Y-89804837D01*
X227082836Y-89859968D01*
X227125032Y-89902164D01*
X227180163Y-89925000D01*
X227239837Y-89925000D01*
X227294968Y-89902164D01*
X227337164Y-89859968D01*
X227360000Y-89804837D01*
X227360000Y-89775000D01*
X227492842Y-89775000D01*
X227827961Y-90110119D01*
X227830332Y-90106572D01*
X227830334Y-90106570D01*
X227883097Y-89979186D01*
X227883100Y-89979176D01*
X227910000Y-89843946D01*
X227910000Y-89706053D01*
X227883100Y-89570823D01*
X227883097Y-89570813D01*
X227830334Y-89443429D01*
X227827961Y-89439880D01*
X227492842Y-89775000D01*
X227360000Y-89775000D01*
X227360000Y-89745163D01*
X227337164Y-89690032D01*
X227294968Y-89647836D01*
X227239837Y-89625000D01*
X227180163Y-89625000D01*
X227125032Y-89647836D01*
X227082836Y-89690032D01*
X227060000Y-89745163D01*
X226897321Y-89745163D01*
X226660000Y-89507842D01*
X226392842Y-89775000D01*
X226260000Y-89775000D01*
X226260000Y-89745163D01*
X226237164Y-89690032D01*
X226194968Y-89647836D01*
X226139837Y-89625000D01*
X226080163Y-89625000D01*
X226025032Y-89647836D01*
X225982836Y-89690032D01*
X225960000Y-89745163D01*
X225797321Y-89745163D01*
X225560000Y-89507842D01*
X225292842Y-89775000D01*
X225160000Y-89775000D01*
X225160000Y-89745163D01*
X225137164Y-89690032D01*
X225094968Y-89647836D01*
X225039837Y-89625000D01*
X224980163Y-89625000D01*
X224925032Y-89647836D01*
X224882836Y-89690032D01*
X224860000Y-89745163D01*
X224697320Y-89745163D01*
X224392037Y-89439880D01*
X224392036Y-89439880D01*
X224389667Y-89443427D01*
X224389666Y-89443428D01*
X224336902Y-89570813D01*
X224336899Y-89570823D01*
X224310000Y-89706053D01*
X224310000Y-89843946D01*
X224309999Y-89843946D01*
X185853898Y-89843946D01*
X185860500Y-89819309D01*
X185860500Y-89700691D01*
X185829799Y-89586114D01*
X185770489Y-89483387D01*
X185686613Y-89399511D01*
X185583886Y-89340201D01*
X185469309Y-89309500D01*
X185350691Y-89309500D01*
X185236114Y-89340201D01*
X185236112Y-89340201D01*
X185236112Y-89340202D01*
X185133387Y-89399511D01*
X185133384Y-89399513D01*
X185049513Y-89483384D01*
X185049511Y-89483387D01*
X184992531Y-89582079D01*
X184990201Y-89586114D01*
X184959500Y-89700691D01*
X156200500Y-89700691D01*
X156200500Y-88135837D01*
X157449500Y-88135837D01*
X157449500Y-88364162D01*
X157485215Y-88589660D01*
X157555770Y-88806803D01*
X157616817Y-88926613D01*
X157659421Y-89010228D01*
X157793621Y-89194937D01*
X157955063Y-89356379D01*
X158139772Y-89490579D01*
X158173653Y-89507842D01*
X158343196Y-89594229D01*
X158343198Y-89594229D01*
X158343201Y-89594231D01*
X158437898Y-89625000D01*
X158560339Y-89664784D01*
X158785838Y-89700500D01*
X158785843Y-89700500D01*
X159014162Y-89700500D01*
X159239660Y-89664784D01*
X159291820Y-89647836D01*
X159456799Y-89594231D01*
X159472730Y-89586114D01*
X159480649Y-89582079D01*
X159504390Y-89569981D01*
X159660228Y-89490579D01*
X159844937Y-89356379D01*
X159976317Y-89224999D01*
X224742842Y-89224999D01*
X224742842Y-89225001D01*
X225009998Y-89492157D01*
X225161957Y-89340200D01*
X225277157Y-89224999D01*
X225247321Y-89195163D01*
X225410000Y-89195163D01*
X225410000Y-89254837D01*
X225432836Y-89309968D01*
X225475032Y-89352164D01*
X225530163Y-89375000D01*
X225589837Y-89375000D01*
X225644968Y-89352164D01*
X225687164Y-89309968D01*
X225710000Y-89254837D01*
X225710000Y-89225000D01*
X225842842Y-89225000D01*
X225958043Y-89340201D01*
X226110000Y-89492157D01*
X226261956Y-89340201D01*
X226377157Y-89224999D01*
X226347321Y-89195163D01*
X226510000Y-89195163D01*
X226510000Y-89254837D01*
X226532836Y-89309968D01*
X226575032Y-89352164D01*
X226630163Y-89375000D01*
X226689837Y-89375000D01*
X226744968Y-89352164D01*
X226787164Y-89309968D01*
X226810000Y-89254837D01*
X226810000Y-89225000D01*
X226942842Y-89225000D01*
X227058043Y-89340201D01*
X227210000Y-89492157D01*
X227210001Y-89492157D01*
X227477157Y-89225001D01*
X227477157Y-89224999D01*
X227210001Y-88957842D01*
X227210000Y-88957842D01*
X226942842Y-89225000D01*
X226810000Y-89225000D01*
X226810000Y-89195163D01*
X226787164Y-89140032D01*
X226744968Y-89097836D01*
X226689837Y-89075000D01*
X226630163Y-89075000D01*
X226575032Y-89097836D01*
X226532836Y-89140032D01*
X226510000Y-89195163D01*
X226347321Y-89195163D01*
X226110000Y-88957842D01*
X225842842Y-89225000D01*
X225710000Y-89225000D01*
X225710000Y-89195163D01*
X225687164Y-89140032D01*
X225644968Y-89097836D01*
X225589837Y-89075000D01*
X225530163Y-89075000D01*
X225475032Y-89097836D01*
X225432836Y-89140032D01*
X225410000Y-89195163D01*
X225247321Y-89195163D01*
X225135737Y-89083579D01*
X225135737Y-89083580D01*
X225009998Y-88957842D01*
X224742842Y-89224999D01*
X159976317Y-89224999D01*
X160006379Y-89194937D01*
X160140579Y-89010228D01*
X160244231Y-88806799D01*
X160314449Y-88590691D01*
X180349500Y-88590691D01*
X180349500Y-88709309D01*
X180380201Y-88823886D01*
X180439511Y-88926613D01*
X180523387Y-89010489D01*
X180626114Y-89069799D01*
X180740691Y-89100500D01*
X180740694Y-89100500D01*
X180859306Y-89100500D01*
X180859309Y-89100500D01*
X180973886Y-89069799D01*
X180973888Y-89069797D01*
X180973890Y-89069797D01*
X180973891Y-89069796D01*
X180980026Y-89066254D01*
X180980031Y-89066251D01*
X181076613Y-89010489D01*
X181160489Y-88926613D01*
X181219799Y-88823886D01*
X181241219Y-88743946D01*
X224309999Y-88743946D01*
X224336899Y-88879176D01*
X224336901Y-88879182D01*
X224389668Y-89006573D01*
X224389668Y-89006574D01*
X224392037Y-89010119D01*
X224727157Y-88675000D01*
X224697320Y-88645163D01*
X224860000Y-88645163D01*
X224860000Y-88704837D01*
X224882836Y-88759968D01*
X224925032Y-88802164D01*
X224980163Y-88825000D01*
X225039837Y-88825000D01*
X225094968Y-88802164D01*
X225137164Y-88759968D01*
X225160000Y-88704837D01*
X225160000Y-88675000D01*
X225292842Y-88675000D01*
X225424641Y-88806799D01*
X225560000Y-88942157D01*
X225695358Y-88806799D01*
X225827157Y-88674999D01*
X225797321Y-88645163D01*
X225960000Y-88645163D01*
X225960000Y-88704837D01*
X225982836Y-88759968D01*
X226025032Y-88802164D01*
X226080163Y-88825000D01*
X226139837Y-88825000D01*
X226194968Y-88802164D01*
X226237164Y-88759968D01*
X226260000Y-88704837D01*
X226260000Y-88675000D01*
X226392842Y-88675000D01*
X226524641Y-88806799D01*
X226660000Y-88942157D01*
X226795358Y-88806799D01*
X226927157Y-88674999D01*
X226897321Y-88645163D01*
X227060000Y-88645163D01*
X227060000Y-88704837D01*
X227082836Y-88759968D01*
X227125032Y-88802164D01*
X227180163Y-88825000D01*
X227239837Y-88825000D01*
X227294968Y-88802164D01*
X227337164Y-88759968D01*
X227360000Y-88704837D01*
X227360000Y-88675000D01*
X227492842Y-88675000D01*
X227827961Y-89010119D01*
X227830332Y-89006572D01*
X227830334Y-89006570D01*
X227883097Y-88879186D01*
X227883100Y-88879176D01*
X227910000Y-88743946D01*
X227910000Y-88606053D01*
X227883100Y-88470823D01*
X227883097Y-88470813D01*
X227830334Y-88343429D01*
X227827961Y-88339880D01*
X227492842Y-88675000D01*
X227360000Y-88675000D01*
X227360000Y-88645163D01*
X227337164Y-88590032D01*
X227294968Y-88547836D01*
X227239837Y-88525000D01*
X227180163Y-88525000D01*
X227125032Y-88547836D01*
X227082836Y-88590032D01*
X227060000Y-88645163D01*
X226897321Y-88645163D01*
X226660000Y-88407842D01*
X226392842Y-88675000D01*
X226260000Y-88675000D01*
X226260000Y-88645163D01*
X226237164Y-88590032D01*
X226194968Y-88547836D01*
X226139837Y-88525000D01*
X226080163Y-88525000D01*
X226025032Y-88547836D01*
X225982836Y-88590032D01*
X225960000Y-88645163D01*
X225797321Y-88645163D01*
X225560000Y-88407842D01*
X225292842Y-88675000D01*
X225160000Y-88675000D01*
X225160000Y-88645163D01*
X225137164Y-88590032D01*
X225094968Y-88547836D01*
X225039837Y-88525000D01*
X224980163Y-88525000D01*
X224925032Y-88547836D01*
X224882836Y-88590032D01*
X224860000Y-88645163D01*
X224697320Y-88645163D01*
X224392037Y-88339880D01*
X224392036Y-88339880D01*
X224389667Y-88343427D01*
X224389666Y-88343428D01*
X224336902Y-88470813D01*
X224336899Y-88470823D01*
X224310000Y-88606053D01*
X224310000Y-88743946D01*
X224309999Y-88743946D01*
X181241219Y-88743946D01*
X181250500Y-88709309D01*
X181250500Y-88590691D01*
X181219799Y-88476114D01*
X181160489Y-88373387D01*
X181076613Y-88289511D01*
X180973886Y-88230201D01*
X180859309Y-88199500D01*
X180740691Y-88199500D01*
X180626114Y-88230201D01*
X180626112Y-88230201D01*
X180626112Y-88230202D01*
X180523387Y-88289511D01*
X180523384Y-88289513D01*
X180439513Y-88373384D01*
X180439511Y-88373387D01*
X180383262Y-88470813D01*
X180380201Y-88476114D01*
X180349500Y-88590691D01*
X160314449Y-88590691D01*
X160314784Y-88589660D01*
X160333606Y-88470823D01*
X160350500Y-88364162D01*
X160350500Y-88178191D01*
X214387000Y-88178191D01*
X214387000Y-88296809D01*
X214417701Y-88411386D01*
X214477011Y-88514113D01*
X214560887Y-88597989D01*
X214663614Y-88657299D01*
X214778191Y-88688000D01*
X214778194Y-88688000D01*
X214896806Y-88688000D01*
X214896809Y-88688000D01*
X215011386Y-88657299D01*
X215114113Y-88597989D01*
X215197989Y-88514113D01*
X215257299Y-88411386D01*
X215288000Y-88296809D01*
X215288000Y-88178191D01*
X215257299Y-88063614D01*
X215253501Y-88057036D01*
X224674880Y-88057036D01*
X224674880Y-88057037D01*
X225009998Y-88392157D01*
X225009999Y-88392157D01*
X225277157Y-88124999D01*
X225277157Y-88124998D01*
X225247322Y-88095163D01*
X225410000Y-88095163D01*
X225410000Y-88154837D01*
X225432836Y-88209968D01*
X225475032Y-88252164D01*
X225530163Y-88275000D01*
X225589837Y-88275000D01*
X225644968Y-88252164D01*
X225687164Y-88209968D01*
X225710000Y-88154837D01*
X225710000Y-88124998D01*
X225842842Y-88124998D01*
X225842842Y-88124999D01*
X226110000Y-88392157D01*
X226110001Y-88392157D01*
X226243574Y-88258582D01*
X226243578Y-88258577D01*
X226377157Y-88124998D01*
X226347322Y-88095163D01*
X226510000Y-88095163D01*
X226510000Y-88154837D01*
X226532836Y-88209968D01*
X226575032Y-88252164D01*
X226630163Y-88275000D01*
X226689837Y-88275000D01*
X226744968Y-88252164D01*
X226787164Y-88209968D01*
X226810000Y-88154837D01*
X226810000Y-88124998D01*
X226942842Y-88124998D01*
X226942842Y-88124999D01*
X227210000Y-88392157D01*
X227210001Y-88392157D01*
X227511465Y-88090691D01*
X232149500Y-88090691D01*
X232149500Y-88209309D01*
X232180201Y-88323886D01*
X232239511Y-88426613D01*
X232323387Y-88510489D01*
X232426114Y-88569799D01*
X232540691Y-88600500D01*
X232540694Y-88600500D01*
X232659306Y-88600500D01*
X232659309Y-88600500D01*
X232773886Y-88569799D01*
X232876613Y-88510489D01*
X232960489Y-88426613D01*
X233019799Y-88323886D01*
X233050500Y-88209309D01*
X233050500Y-88090691D01*
X233019799Y-87976114D01*
X232960489Y-87873387D01*
X232876613Y-87789511D01*
X232773886Y-87730201D01*
X232659309Y-87699500D01*
X232540691Y-87699500D01*
X232426114Y-87730201D01*
X232426112Y-87730201D01*
X232426112Y-87730202D01*
X232323387Y-87789511D01*
X232323384Y-87789513D01*
X232239513Y-87873384D01*
X232239511Y-87873387D01*
X232209213Y-87925865D01*
X232180201Y-87976114D01*
X232149500Y-88090691D01*
X227511465Y-88090691D01*
X227545119Y-88057037D01*
X227541574Y-88054668D01*
X227408554Y-87999570D01*
X227409134Y-87998168D01*
X227356949Y-87963963D01*
X227336276Y-87926094D01*
X227335429Y-87926446D01*
X227280331Y-87793425D01*
X227277962Y-87789880D01*
X227277961Y-87789880D01*
X226942842Y-88124998D01*
X226810000Y-88124998D01*
X226810000Y-88095163D01*
X226787164Y-88040032D01*
X226744968Y-87997836D01*
X226689837Y-87975000D01*
X226630163Y-87975000D01*
X226575032Y-87997836D01*
X226532836Y-88040032D01*
X226510000Y-88095163D01*
X226347322Y-88095163D01*
X226110001Y-87857842D01*
X226110000Y-87857842D01*
X225842842Y-88124998D01*
X225710000Y-88124998D01*
X225710000Y-88095163D01*
X225687164Y-88040032D01*
X225644968Y-87997836D01*
X225589837Y-87975000D01*
X225530163Y-87975000D01*
X225475032Y-87997836D01*
X225432836Y-88040032D01*
X225410000Y-88095163D01*
X225247322Y-88095163D01*
X224942037Y-87789880D01*
X224942036Y-87789880D01*
X224939667Y-87793427D01*
X224939666Y-87793428D01*
X224884570Y-87926445D01*
X224883171Y-87925865D01*
X224848951Y-87978059D01*
X224811096Y-87998728D01*
X224811445Y-87999570D01*
X224678428Y-88054666D01*
X224678427Y-88054667D01*
X224674880Y-88057036D01*
X215253501Y-88057036D01*
X215197989Y-87960887D01*
X215114113Y-87877011D01*
X215011386Y-87817701D01*
X214896809Y-87787000D01*
X214778191Y-87787000D01*
X214663614Y-87817701D01*
X214663612Y-87817701D01*
X214663612Y-87817702D01*
X214560887Y-87877011D01*
X214560884Y-87877013D01*
X214477013Y-87960884D01*
X214477011Y-87960887D01*
X214422867Y-88054667D01*
X214417701Y-88063614D01*
X214387000Y-88178191D01*
X160350500Y-88178191D01*
X160350500Y-88135837D01*
X160314784Y-87910339D01*
X160276797Y-87793428D01*
X160244231Y-87693201D01*
X160244229Y-87693198D01*
X160244229Y-87693196D01*
X160189550Y-87585884D01*
X160165740Y-87539153D01*
X194289398Y-87539153D01*
X194296382Y-87544228D01*
X194451206Y-87623115D01*
X194616478Y-87676816D01*
X194788108Y-87704000D01*
X194961892Y-87704000D01*
X195133521Y-87676816D01*
X195298793Y-87623115D01*
X195453624Y-87544224D01*
X195460600Y-87539153D01*
X195428483Y-87507036D01*
X225224880Y-87507036D01*
X225224880Y-87507037D01*
X225560000Y-87842157D01*
X225560001Y-87842157D01*
X225895119Y-87507037D01*
X225895118Y-87507036D01*
X226324880Y-87507036D01*
X226324880Y-87507037D01*
X226660000Y-87842157D01*
X226660001Y-87842157D01*
X226995119Y-87507037D01*
X226991574Y-87504668D01*
X226864182Y-87451901D01*
X226864176Y-87451899D01*
X226728946Y-87425000D01*
X226591054Y-87425000D01*
X226455823Y-87451899D01*
X226455813Y-87451902D01*
X226328428Y-87504666D01*
X226328427Y-87504667D01*
X226324880Y-87507036D01*
X225895118Y-87507036D01*
X225891574Y-87504668D01*
X225764182Y-87451901D01*
X225764176Y-87451899D01*
X225628946Y-87425000D01*
X225491054Y-87425000D01*
X225355823Y-87451899D01*
X225355813Y-87451902D01*
X225228428Y-87504666D01*
X225228427Y-87504667D01*
X225224880Y-87507036D01*
X195428483Y-87507036D01*
X194875001Y-86953553D01*
X194875000Y-86953553D01*
X194289398Y-87539153D01*
X160165740Y-87539153D01*
X160140579Y-87489772D01*
X160006379Y-87305063D01*
X159844937Y-87143621D01*
X159660228Y-87009421D01*
X159624964Y-86991453D01*
X159456803Y-86905770D01*
X159239660Y-86835215D01*
X159014162Y-86799500D01*
X159014157Y-86799500D01*
X158785843Y-86799500D01*
X158785838Y-86799500D01*
X158560339Y-86835215D01*
X158343196Y-86905770D01*
X158139771Y-87009421D01*
X157955061Y-87143622D01*
X157793622Y-87305061D01*
X157659421Y-87489771D01*
X157555770Y-87693196D01*
X157485215Y-87910339D01*
X157449500Y-88135837D01*
X156200500Y-88135837D01*
X156200500Y-86520759D01*
X192170500Y-86520759D01*
X192170500Y-86679240D01*
X192201414Y-86834656D01*
X192201416Y-86834664D01*
X192262059Y-86981071D01*
X192262064Y-86981080D01*
X192350103Y-87112838D01*
X192350106Y-87112842D01*
X192462157Y-87224893D01*
X192462161Y-87224896D01*
X192593919Y-87312935D01*
X192593925Y-87312938D01*
X192593926Y-87312939D01*
X192740336Y-87373584D01*
X192895759Y-87404499D01*
X192895763Y-87404500D01*
X192895764Y-87404500D01*
X193054237Y-87404500D01*
X193054238Y-87404499D01*
X193209664Y-87373584D01*
X193356074Y-87312939D01*
X193487839Y-87224896D01*
X193599896Y-87112839D01*
X193651067Y-87036256D01*
X193704677Y-86991453D01*
X193774002Y-86982745D01*
X193837030Y-87012899D01*
X193864652Y-87048853D01*
X193930770Y-87178615D01*
X193930777Y-87178626D01*
X193935844Y-87185600D01*
X193935846Y-87185601D01*
X194521446Y-86600001D01*
X194521446Y-86599999D01*
X194475369Y-86553922D01*
X194525000Y-86553922D01*
X194525000Y-86646078D01*
X194548852Y-86735095D01*
X194594930Y-86814905D01*
X194660095Y-86880070D01*
X194739905Y-86926148D01*
X194828922Y-86950000D01*
X194921078Y-86950000D01*
X195010095Y-86926148D01*
X195089905Y-86880070D01*
X195155070Y-86814905D01*
X195201148Y-86735095D01*
X195225000Y-86646078D01*
X195225000Y-86599999D01*
X195228553Y-86599999D01*
X195228553Y-86600000D01*
X195814153Y-87185600D01*
X195819224Y-87178624D01*
X195898115Y-87023793D01*
X195951816Y-86858521D01*
X195979000Y-86686892D01*
X195979000Y-86513107D01*
X195951816Y-86341478D01*
X195898115Y-86176206D01*
X195819228Y-86021382D01*
X195814153Y-86014398D01*
X195228553Y-86599999D01*
X195225000Y-86599999D01*
X195225000Y-86553922D01*
X195201148Y-86464905D01*
X195155070Y-86385095D01*
X195089905Y-86319930D01*
X195010095Y-86273852D01*
X194921078Y-86250000D01*
X194828922Y-86250000D01*
X194739905Y-86273852D01*
X194660095Y-86319930D01*
X194594930Y-86385095D01*
X194548852Y-86464905D01*
X194525000Y-86553922D01*
X194475369Y-86553922D01*
X193935845Y-86014398D01*
X193935844Y-86014398D01*
X193930774Y-86021378D01*
X193864652Y-86151147D01*
X193816677Y-86201942D01*
X193748856Y-86218737D01*
X193682722Y-86196199D01*
X193651066Y-86163742D01*
X193599896Y-86087160D01*
X193487842Y-85975106D01*
X193487838Y-85975103D01*
X193356080Y-85887064D01*
X193356071Y-85887059D01*
X193209660Y-85826414D01*
X193054240Y-85795500D01*
X193054236Y-85795500D01*
X192895764Y-85795500D01*
X192895759Y-85795500D01*
X192740343Y-85826414D01*
X192740335Y-85826416D01*
X192593928Y-85887059D01*
X192593919Y-85887064D01*
X192462161Y-85975103D01*
X192462157Y-85975106D01*
X192350106Y-86087157D01*
X192350103Y-86087161D01*
X192262064Y-86218919D01*
X192262059Y-86218928D01*
X192201416Y-86365335D01*
X192201414Y-86365343D01*
X192170500Y-86520759D01*
X156200500Y-86520759D01*
X156200500Y-85334108D01*
X171649500Y-85334108D01*
X171649500Y-85465892D01*
X171664851Y-85523183D01*
X171683608Y-85593187D01*
X171716554Y-85650250D01*
X171749500Y-85707314D01*
X171842686Y-85800500D01*
X171941521Y-85857563D01*
X171946584Y-85860486D01*
X171956814Y-85866392D01*
X172084108Y-85900500D01*
X172084110Y-85900500D01*
X172215890Y-85900500D01*
X172215892Y-85900500D01*
X172343186Y-85866392D01*
X172457314Y-85800500D01*
X172550500Y-85707314D01*
X172577330Y-85660844D01*
X194289398Y-85660844D01*
X194289398Y-85660845D01*
X194875000Y-86246446D01*
X194875001Y-86246446D01*
X195460601Y-85660846D01*
X195460600Y-85660844D01*
X195453626Y-85655777D01*
X195453624Y-85655776D01*
X195298793Y-85576884D01*
X195133521Y-85523183D01*
X194961892Y-85496000D01*
X194788108Y-85496000D01*
X194616478Y-85523183D01*
X194451206Y-85576884D01*
X194296375Y-85655775D01*
X194289398Y-85660844D01*
X172577330Y-85660844D01*
X172616392Y-85593186D01*
X172650500Y-85465892D01*
X172650500Y-85334108D01*
X172616392Y-85206814D01*
X172550500Y-85092686D01*
X172457314Y-84999500D01*
X172355458Y-84940693D01*
X172355455Y-84940691D01*
X183599500Y-84940691D01*
X183599500Y-85059309D01*
X183630201Y-85173886D01*
X183689511Y-85276613D01*
X183773387Y-85360489D01*
X183876114Y-85419799D01*
X183990691Y-85450500D01*
X183990694Y-85450500D01*
X184109306Y-85450500D01*
X184109309Y-85450500D01*
X184223886Y-85419799D01*
X184326613Y-85360489D01*
X184410489Y-85276613D01*
X184469799Y-85173886D01*
X184500500Y-85059309D01*
X184500500Y-84940691D01*
X184469799Y-84826114D01*
X184445547Y-84784108D01*
X207849500Y-84784108D01*
X207849500Y-84915892D01*
X207866554Y-84979539D01*
X207883608Y-85043187D01*
X207904979Y-85080202D01*
X207949500Y-85157314D01*
X207949502Y-85157316D01*
X207979505Y-85187319D01*
X208012990Y-85248642D01*
X208008006Y-85318334D01*
X207979505Y-85362681D01*
X207949502Y-85392683D01*
X207949500Y-85392686D01*
X207883608Y-85506812D01*
X207858773Y-85599500D01*
X207849500Y-85634108D01*
X207849500Y-85765892D01*
X207858772Y-85800497D01*
X207883608Y-85893187D01*
X207916554Y-85950250D01*
X207949500Y-86007314D01*
X208042686Y-86100500D01*
X208156814Y-86166392D01*
X208284108Y-86200500D01*
X208284110Y-86200500D01*
X208415890Y-86200500D01*
X208415892Y-86200500D01*
X208543186Y-86166392D01*
X208657314Y-86100500D01*
X208750500Y-86007314D01*
X208816392Y-85893186D01*
X208850500Y-85765892D01*
X208850500Y-85634108D01*
X223999500Y-85634108D01*
X223999500Y-85765892D01*
X224008772Y-85800497D01*
X224033608Y-85893187D01*
X224066554Y-85950250D01*
X224099500Y-86007314D01*
X224192686Y-86100500D01*
X224306814Y-86166392D01*
X224434108Y-86200500D01*
X224434110Y-86200500D01*
X224565890Y-86200500D01*
X224565892Y-86200500D01*
X224693186Y-86166392D01*
X224807314Y-86100500D01*
X224900500Y-86007314D01*
X224966392Y-85893186D01*
X225000500Y-85765892D01*
X225000500Y-85634108D01*
X224966392Y-85506814D01*
X224928216Y-85440691D01*
X229749500Y-85440691D01*
X229749500Y-85559309D01*
X229780201Y-85673886D01*
X229839511Y-85776613D01*
X229923387Y-85860489D01*
X230026114Y-85919799D01*
X230140691Y-85950500D01*
X230140694Y-85950500D01*
X230259306Y-85950500D01*
X230259309Y-85950500D01*
X230373886Y-85919799D01*
X230373897Y-85919792D01*
X230378046Y-85918075D01*
X230447515Y-85910606D01*
X230509995Y-85941880D01*
X230545648Y-86001969D01*
X230549500Y-86032636D01*
X230549500Y-86109309D01*
X230580201Y-86223886D01*
X230639511Y-86326613D01*
X230723387Y-86410489D01*
X230826114Y-86469799D01*
X230940691Y-86500500D01*
X230940694Y-86500500D01*
X231059306Y-86500500D01*
X231059309Y-86500500D01*
X231173886Y-86469799D01*
X231276613Y-86410489D01*
X231360489Y-86326613D01*
X231419799Y-86223886D01*
X231450500Y-86109309D01*
X231450500Y-85990691D01*
X231419799Y-85876114D01*
X231360489Y-85773387D01*
X231276613Y-85689511D01*
X231173886Y-85630201D01*
X231059309Y-85599500D01*
X230940691Y-85599500D01*
X230843474Y-85625549D01*
X230826106Y-85630203D01*
X230821945Y-85631927D01*
X230752476Y-85639391D01*
X230689998Y-85608113D01*
X230654350Y-85548021D01*
X230650500Y-85517363D01*
X230650500Y-85440693D01*
X230650500Y-85440691D01*
X230619799Y-85326114D01*
X230560489Y-85223387D01*
X230476613Y-85139511D01*
X230373886Y-85080201D01*
X230259309Y-85049500D01*
X230140691Y-85049500D01*
X230026114Y-85080201D01*
X230026112Y-85080201D01*
X230026112Y-85080202D01*
X229923387Y-85139511D01*
X229923384Y-85139513D01*
X229839513Y-85223384D01*
X229839511Y-85223387D01*
X229785815Y-85316391D01*
X229780201Y-85326114D01*
X229749500Y-85440691D01*
X224928216Y-85440691D01*
X224900500Y-85392686D01*
X224807314Y-85299500D01*
X224719226Y-85248642D01*
X224693187Y-85233608D01*
X224593188Y-85206814D01*
X224565892Y-85199500D01*
X224434108Y-85199500D01*
X224306812Y-85233608D01*
X224192686Y-85299500D01*
X224192683Y-85299502D01*
X224099502Y-85392683D01*
X224099500Y-85392686D01*
X224033608Y-85506812D01*
X224008773Y-85599500D01*
X223999500Y-85634108D01*
X208850500Y-85634108D01*
X208816392Y-85506814D01*
X208750500Y-85392686D01*
X208720495Y-85362681D01*
X208687010Y-85301358D01*
X208691994Y-85231666D01*
X208720495Y-85187319D01*
X208733928Y-85173886D01*
X208750500Y-85157314D01*
X208816392Y-85043186D01*
X208850500Y-84915892D01*
X208850500Y-84784108D01*
X228149500Y-84784108D01*
X228149500Y-84915892D01*
X228166554Y-84979539D01*
X228183608Y-85043187D01*
X228204979Y-85080202D01*
X228249500Y-85157314D01*
X228342686Y-85250500D01*
X228456814Y-85316392D01*
X228584108Y-85350500D01*
X228584110Y-85350500D01*
X228715890Y-85350500D01*
X228715892Y-85350500D01*
X228843186Y-85316392D01*
X228957314Y-85250500D01*
X229050500Y-85157314D01*
X229116392Y-85043186D01*
X229150500Y-84915892D01*
X229150500Y-84784108D01*
X229116392Y-84656814D01*
X229050500Y-84542686D01*
X228957314Y-84449500D01*
X228900250Y-84416554D01*
X228843187Y-84383608D01*
X228779539Y-84366554D01*
X228715892Y-84349500D01*
X228584108Y-84349500D01*
X228456812Y-84383608D01*
X228342686Y-84449500D01*
X228342683Y-84449502D01*
X228249502Y-84542683D01*
X228249500Y-84542686D01*
X228183608Y-84656812D01*
X228165771Y-84723384D01*
X228149500Y-84784108D01*
X208850500Y-84784108D01*
X208816392Y-84656814D01*
X208750500Y-84542686D01*
X208657314Y-84449500D01*
X208600250Y-84416554D01*
X208543187Y-84383608D01*
X208479539Y-84366554D01*
X208415892Y-84349500D01*
X208284108Y-84349500D01*
X208156812Y-84383608D01*
X208042686Y-84449500D01*
X208042683Y-84449502D01*
X207949502Y-84542683D01*
X207949500Y-84542686D01*
X207883608Y-84656812D01*
X207865771Y-84723384D01*
X207849500Y-84784108D01*
X184445547Y-84784108D01*
X184410489Y-84723387D01*
X184326613Y-84639511D01*
X184223886Y-84580201D01*
X184109309Y-84549500D01*
X183990691Y-84549500D01*
X183876114Y-84580201D01*
X183876112Y-84580201D01*
X183876112Y-84580202D01*
X183773387Y-84639511D01*
X183773384Y-84639513D01*
X183689513Y-84723384D01*
X183689511Y-84723387D01*
X183630201Y-84826114D01*
X183599500Y-84940691D01*
X172355455Y-84940691D01*
X172343187Y-84933608D01*
X172277061Y-84915890D01*
X172215892Y-84899500D01*
X172084108Y-84899500D01*
X171956812Y-84933608D01*
X171842686Y-84999500D01*
X171842683Y-84999502D01*
X171749502Y-85092683D01*
X171749500Y-85092686D01*
X171683608Y-85206812D01*
X171651642Y-85326114D01*
X171649500Y-85334108D01*
X156200500Y-85334108D01*
X156200500Y-83780691D01*
X208599500Y-83780691D01*
X208599500Y-83899309D01*
X208630201Y-84013886D01*
X208689511Y-84116613D01*
X208773387Y-84200489D01*
X208876114Y-84259799D01*
X208990691Y-84290500D01*
X208990694Y-84290500D01*
X209109306Y-84290500D01*
X209109309Y-84290500D01*
X209223886Y-84259799D01*
X209326613Y-84200489D01*
X209386411Y-84140691D01*
X218899500Y-84140691D01*
X218899500Y-84259309D01*
X218930201Y-84373886D01*
X218989511Y-84476613D01*
X219073387Y-84560489D01*
X219176114Y-84619799D01*
X219290691Y-84650500D01*
X219290694Y-84650500D01*
X219409306Y-84650500D01*
X219409309Y-84650500D01*
X219523886Y-84619799D01*
X219626613Y-84560489D01*
X219710489Y-84476613D01*
X219769799Y-84373886D01*
X219800500Y-84259309D01*
X219800500Y-84140691D01*
X219769799Y-84026114D01*
X219710489Y-83923387D01*
X219626613Y-83839511D01*
X219523886Y-83780201D01*
X219409309Y-83749500D01*
X219290691Y-83749500D01*
X219176114Y-83780201D01*
X219176112Y-83780201D01*
X219176112Y-83780202D01*
X219073387Y-83839511D01*
X219073384Y-83839513D01*
X218989513Y-83923384D01*
X218989511Y-83923387D01*
X218930201Y-84026114D01*
X218899500Y-84140691D01*
X209386411Y-84140691D01*
X209410489Y-84116613D01*
X209469799Y-84013886D01*
X209500500Y-83899309D01*
X209500500Y-83780691D01*
X209469799Y-83666114D01*
X209410489Y-83563387D01*
X209326613Y-83479511D01*
X209223886Y-83420201D01*
X209109309Y-83389500D01*
X208990691Y-83389500D01*
X208876114Y-83420201D01*
X208876112Y-83420201D01*
X208876112Y-83420202D01*
X208773387Y-83479511D01*
X208773384Y-83479513D01*
X208689513Y-83563384D01*
X208689511Y-83563387D01*
X208630201Y-83666114D01*
X208599500Y-83780691D01*
X156200500Y-83780691D01*
X156200500Y-80990691D01*
X188699500Y-80990691D01*
X188699500Y-81109309D01*
X188730201Y-81223886D01*
X188789511Y-81326613D01*
X188873387Y-81410489D01*
X188976114Y-81469799D01*
X189090691Y-81500500D01*
X189090694Y-81500500D01*
X189209306Y-81500500D01*
X189209309Y-81500500D01*
X189323886Y-81469799D01*
X189426613Y-81410489D01*
X189433911Y-81403191D01*
X190512000Y-81403191D01*
X190512000Y-81521809D01*
X190542701Y-81636386D01*
X190602011Y-81739113D01*
X190685887Y-81822989D01*
X190788614Y-81882299D01*
X190903191Y-81913000D01*
X190903194Y-81913000D01*
X191021806Y-81913000D01*
X191021809Y-81913000D01*
X191136386Y-81882299D01*
X191239113Y-81822989D01*
X191322989Y-81739113D01*
X191382299Y-81636386D01*
X191413000Y-81521809D01*
X191413000Y-81403191D01*
X191382299Y-81288614D01*
X191322989Y-81185887D01*
X191239113Y-81102011D01*
X191136386Y-81042701D01*
X191128885Y-81040691D01*
X195049500Y-81040691D01*
X195049500Y-81159309D01*
X195080201Y-81273886D01*
X195139511Y-81376613D01*
X195223387Y-81460489D01*
X195326114Y-81519799D01*
X195440691Y-81550500D01*
X195440694Y-81550500D01*
X195559306Y-81550500D01*
X195559309Y-81550500D01*
X195673886Y-81519799D01*
X195776613Y-81460489D01*
X195860489Y-81376613D01*
X195919799Y-81273886D01*
X195950500Y-81159309D01*
X195950500Y-81040691D01*
X195919799Y-80926114D01*
X195860489Y-80823387D01*
X195776613Y-80739511D01*
X195673886Y-80680201D01*
X195559309Y-80649500D01*
X195440691Y-80649500D01*
X195326114Y-80680201D01*
X195326112Y-80680201D01*
X195326112Y-80680202D01*
X195223387Y-80739511D01*
X195223384Y-80739513D01*
X195139513Y-80823384D01*
X195139511Y-80823387D01*
X195080201Y-80926114D01*
X195049500Y-81040691D01*
X191128885Y-81040691D01*
X191021809Y-81012000D01*
X190903191Y-81012000D01*
X190788614Y-81042701D01*
X190788612Y-81042701D01*
X190788612Y-81042702D01*
X190685887Y-81102011D01*
X190685884Y-81102013D01*
X190602013Y-81185884D01*
X190602011Y-81185887D01*
X190542701Y-81288614D01*
X190512000Y-81403191D01*
X189433911Y-81403191D01*
X189510489Y-81326613D01*
X189569799Y-81223886D01*
X189600500Y-81109309D01*
X189600500Y-80990691D01*
X189569799Y-80876114D01*
X189510489Y-80773387D01*
X189426613Y-80689511D01*
X189323886Y-80630201D01*
X189209309Y-80599500D01*
X189090691Y-80599500D01*
X188976114Y-80630201D01*
X188976112Y-80630201D01*
X188976112Y-80630202D01*
X188873387Y-80689511D01*
X188873384Y-80689513D01*
X188789513Y-80773384D01*
X188789511Y-80773387D01*
X188730201Y-80876114D01*
X188699500Y-80990691D01*
X156200500Y-80990691D01*
X156200500Y-78230247D01*
X159139500Y-78230247D01*
X159139500Y-79969752D01*
X159151131Y-80028229D01*
X159151132Y-80028230D01*
X159195447Y-80094552D01*
X159261769Y-80138867D01*
X159261770Y-80138868D01*
X159320247Y-80150499D01*
X159320250Y-80150500D01*
X159320252Y-80150500D01*
X161059750Y-80150500D01*
X161059751Y-80150499D01*
X161074568Y-80147552D01*
X161118229Y-80138868D01*
X161118229Y-80138867D01*
X161118231Y-80138867D01*
X161184552Y-80094552D01*
X161228867Y-80028231D01*
X161228867Y-80028229D01*
X161228868Y-80028229D01*
X161240499Y-79969752D01*
X161240500Y-79969750D01*
X161240500Y-78996530D01*
X161679500Y-78996530D01*
X161679500Y-79203469D01*
X161719868Y-79406412D01*
X161719870Y-79406420D01*
X161785939Y-79565925D01*
X161799059Y-79597598D01*
X161856541Y-79683626D01*
X161914024Y-79769657D01*
X162060342Y-79915975D01*
X162060345Y-79915977D01*
X162232402Y-80030941D01*
X162423580Y-80110130D01*
X162568052Y-80138867D01*
X162626530Y-80150499D01*
X162626534Y-80150500D01*
X162626535Y-80150500D01*
X162833466Y-80150500D01*
X162833467Y-80150499D01*
X163036420Y-80110130D01*
X163227598Y-80030941D01*
X163399655Y-79915977D01*
X163545977Y-79769655D01*
X163660941Y-79597598D01*
X163740130Y-79406420D01*
X163780500Y-79203465D01*
X163780500Y-78996535D01*
X163780499Y-78996530D01*
X164219500Y-78996530D01*
X164219500Y-79203469D01*
X164259868Y-79406412D01*
X164259870Y-79406420D01*
X164325939Y-79565925D01*
X164339059Y-79597598D01*
X164396541Y-79683626D01*
X164454024Y-79769657D01*
X164600342Y-79915975D01*
X164600345Y-79915977D01*
X164772402Y-80030941D01*
X164963580Y-80110130D01*
X165108052Y-80138867D01*
X165166530Y-80150499D01*
X165166534Y-80150500D01*
X165166535Y-80150500D01*
X165373466Y-80150500D01*
X165373467Y-80150499D01*
X165576420Y-80110130D01*
X165767598Y-80030941D01*
X165939655Y-79915977D01*
X166085977Y-79769655D01*
X166200941Y-79597598D01*
X166280130Y-79406420D01*
X166320500Y-79203465D01*
X166320500Y-78996535D01*
X166320499Y-78996530D01*
X166759500Y-78996530D01*
X166759500Y-79203469D01*
X166799868Y-79406412D01*
X166799870Y-79406420D01*
X166865939Y-79565925D01*
X166879059Y-79597598D01*
X166936541Y-79683626D01*
X166994024Y-79769657D01*
X167140342Y-79915975D01*
X167140345Y-79915977D01*
X167312402Y-80030941D01*
X167503580Y-80110130D01*
X167648052Y-80138867D01*
X167706530Y-80150499D01*
X167706534Y-80150500D01*
X167706535Y-80150500D01*
X167913466Y-80150500D01*
X167913467Y-80150499D01*
X168116420Y-80110130D01*
X168253791Y-80053229D01*
X168258286Y-80051366D01*
X168307598Y-80030941D01*
X168479655Y-79915977D01*
X168625977Y-79769655D01*
X168740941Y-79597598D01*
X168809165Y-79432889D01*
X168853004Y-79378488D01*
X168919298Y-79356423D01*
X168986998Y-79373702D01*
X169034609Y-79424839D01*
X169041656Y-79442026D01*
X169098904Y-79618216D01*
X169195375Y-79807550D01*
X169234728Y-79861716D01*
X169867037Y-79229408D01*
X169884075Y-79292993D01*
X169949901Y-79407007D01*
X170042993Y-79500099D01*
X170157007Y-79565925D01*
X170220590Y-79582962D01*
X169588282Y-80215269D01*
X169588282Y-80215270D01*
X169642449Y-80254624D01*
X169831782Y-80351095D01*
X170033870Y-80416757D01*
X170243754Y-80450000D01*
X170456246Y-80450000D01*
X170666127Y-80416757D01*
X170666130Y-80416757D01*
X170868217Y-80351095D01*
X171057554Y-80254622D01*
X171111716Y-80215270D01*
X171111717Y-80215270D01*
X170479408Y-79582962D01*
X170542993Y-79565925D01*
X170657007Y-79500099D01*
X170750099Y-79407007D01*
X170815925Y-79292993D01*
X170832962Y-79229409D01*
X171465270Y-79861717D01*
X171465270Y-79861716D01*
X171504622Y-79807554D01*
X171601095Y-79618217D01*
X171666757Y-79416130D01*
X171666757Y-79416127D01*
X171700000Y-79206246D01*
X171700000Y-78993753D01*
X171666757Y-78783872D01*
X171666757Y-78783869D01*
X171601095Y-78581782D01*
X171504623Y-78392447D01*
X171504621Y-78392443D01*
X171465271Y-78338282D01*
X171465269Y-78338282D01*
X170832962Y-78970590D01*
X170815925Y-78907007D01*
X170750099Y-78792993D01*
X170657007Y-78699901D01*
X170542993Y-78634075D01*
X170479409Y-78617037D01*
X170841198Y-78255247D01*
X174894500Y-78255247D01*
X174894500Y-79994752D01*
X174906131Y-80053229D01*
X174906132Y-80053230D01*
X174950447Y-80119552D01*
X175016769Y-80163867D01*
X175016770Y-80163868D01*
X175075247Y-80175499D01*
X175075250Y-80175500D01*
X175075252Y-80175500D01*
X176814750Y-80175500D01*
X176814751Y-80175499D01*
X176829568Y-80172552D01*
X176873229Y-80163868D01*
X176873229Y-80163867D01*
X176873231Y-80163867D01*
X176939552Y-80119552D01*
X176983867Y-80053231D01*
X176983867Y-80053229D01*
X176983868Y-80053229D01*
X176995499Y-79994752D01*
X176995500Y-79994750D01*
X176995500Y-79021530D01*
X177434500Y-79021530D01*
X177434500Y-79228469D01*
X177474868Y-79431412D01*
X177474870Y-79431420D01*
X177544698Y-79600000D01*
X177554059Y-79622598D01*
X177567836Y-79643217D01*
X177669024Y-79794657D01*
X177815342Y-79940975D01*
X177815345Y-79940977D01*
X177987402Y-80055941D01*
X178178580Y-80135130D01*
X178323052Y-80163867D01*
X178381530Y-80175499D01*
X178381534Y-80175500D01*
X178381535Y-80175500D01*
X178588466Y-80175500D01*
X178588467Y-80175499D01*
X178791420Y-80135130D01*
X178982598Y-80055941D01*
X179154655Y-79940977D01*
X179300977Y-79794655D01*
X179415941Y-79622598D01*
X179495130Y-79431420D01*
X179535500Y-79228465D01*
X179535500Y-79021535D01*
X179535499Y-79021530D01*
X179974500Y-79021530D01*
X179974500Y-79228469D01*
X180014868Y-79431412D01*
X180014870Y-79431420D01*
X180084698Y-79600000D01*
X180094059Y-79622598D01*
X180107836Y-79643217D01*
X180209024Y-79794657D01*
X180355342Y-79940975D01*
X180355345Y-79940977D01*
X180527402Y-80055941D01*
X180718580Y-80135130D01*
X180863052Y-80163867D01*
X180921530Y-80175499D01*
X180921534Y-80175500D01*
X180921535Y-80175500D01*
X181128466Y-80175500D01*
X181128467Y-80175499D01*
X181331420Y-80135130D01*
X181522598Y-80055941D01*
X181694655Y-79940977D01*
X181840977Y-79794655D01*
X181955941Y-79622598D01*
X182024165Y-79457889D01*
X182068004Y-79403488D01*
X182134298Y-79381423D01*
X182201998Y-79398702D01*
X182249609Y-79449839D01*
X182256656Y-79467026D01*
X182313904Y-79643216D01*
X182410375Y-79832550D01*
X182449728Y-79886716D01*
X183082037Y-79254408D01*
X183099075Y-79317993D01*
X183164901Y-79432007D01*
X183257993Y-79525099D01*
X183372007Y-79590925D01*
X183435590Y-79607962D01*
X182803282Y-80240269D01*
X182803282Y-80240270D01*
X182857449Y-80279624D01*
X183046782Y-80376095D01*
X183248870Y-80441757D01*
X183458754Y-80475000D01*
X183671246Y-80475000D01*
X183881127Y-80441757D01*
X183881130Y-80441757D01*
X184083217Y-80376095D01*
X184272554Y-80279622D01*
X184326716Y-80240270D01*
X184326717Y-80240270D01*
X183694408Y-79607962D01*
X183757993Y-79590925D01*
X183872007Y-79525099D01*
X183965099Y-79432007D01*
X184030925Y-79317993D01*
X184047962Y-79254408D01*
X184680270Y-79886717D01*
X184680270Y-79886716D01*
X184719622Y-79832554D01*
X184816095Y-79643217D01*
X184881757Y-79441130D01*
X184881757Y-79441127D01*
X184915000Y-79231246D01*
X184915000Y-79018753D01*
X184881757Y-78808872D01*
X184881757Y-78808869D01*
X184816095Y-78606782D01*
X184719624Y-78417449D01*
X184680270Y-78363282D01*
X184680269Y-78363282D01*
X184047962Y-78995590D01*
X184030925Y-78932007D01*
X183965099Y-78817993D01*
X183872007Y-78724901D01*
X183757993Y-78659075D01*
X183694409Y-78642037D01*
X184326716Y-78009728D01*
X184272550Y-77970375D01*
X184083217Y-77873904D01*
X183881129Y-77808242D01*
X183671246Y-77775000D01*
X183458754Y-77775000D01*
X183248872Y-77808242D01*
X183248869Y-77808242D01*
X183046782Y-77873904D01*
X182857439Y-77970380D01*
X182803282Y-78009727D01*
X182803282Y-78009728D01*
X183435591Y-78642037D01*
X183372007Y-78659075D01*
X183257993Y-78724901D01*
X183164901Y-78817993D01*
X183099075Y-78932007D01*
X183082037Y-78995591D01*
X182449728Y-78363282D01*
X182449727Y-78363282D01*
X182410380Y-78417439D01*
X182313905Y-78606781D01*
X182256656Y-78782974D01*
X182217218Y-78840649D01*
X182152859Y-78867847D01*
X182084013Y-78855932D01*
X182032537Y-78808688D01*
X182024164Y-78792107D01*
X181955943Y-78627405D01*
X181840975Y-78455342D01*
X181694657Y-78309024D01*
X181576765Y-78230252D01*
X181522598Y-78194059D01*
X181331420Y-78114870D01*
X181331412Y-78114868D01*
X181128469Y-78074500D01*
X181128465Y-78074500D01*
X180921535Y-78074500D01*
X180921530Y-78074500D01*
X180718587Y-78114868D01*
X180718579Y-78114870D01*
X180527403Y-78194058D01*
X180355342Y-78309024D01*
X180209024Y-78455342D01*
X180094058Y-78627403D01*
X180014870Y-78818579D01*
X180014868Y-78818587D01*
X179974500Y-79021530D01*
X179535499Y-79021530D01*
X179495130Y-78818580D01*
X179415941Y-78627402D01*
X179300977Y-78455345D01*
X179300975Y-78455342D01*
X179154657Y-78309024D01*
X179036765Y-78230252D01*
X178982598Y-78194059D01*
X178791420Y-78114870D01*
X178791412Y-78114868D01*
X178588469Y-78074500D01*
X178588465Y-78074500D01*
X178381535Y-78074500D01*
X178381530Y-78074500D01*
X178178587Y-78114868D01*
X178178579Y-78114870D01*
X177987403Y-78194058D01*
X177815342Y-78309024D01*
X177669024Y-78455342D01*
X177554058Y-78627403D01*
X177474870Y-78818579D01*
X177474868Y-78818587D01*
X177434500Y-79021530D01*
X176995500Y-79021530D01*
X176995500Y-78255249D01*
X176995499Y-78255247D01*
X176983868Y-78196770D01*
X176983867Y-78196769D01*
X176939552Y-78130447D01*
X176873230Y-78086132D01*
X176873229Y-78086131D01*
X176814752Y-78074500D01*
X176814748Y-78074500D01*
X176382676Y-78074500D01*
X176315637Y-78054815D01*
X176269882Y-78002011D01*
X176259938Y-77932853D01*
X176288963Y-77869297D01*
X176294995Y-77862819D01*
X176308910Y-77848904D01*
X176350500Y-77807314D01*
X176416392Y-77693186D01*
X176450500Y-77565892D01*
X176450500Y-77434108D01*
X176416392Y-77306814D01*
X176392764Y-77265890D01*
X176350503Y-77192691D01*
X176350502Y-77192690D01*
X176350500Y-77192686D01*
X176291922Y-77134108D01*
X187449500Y-77134108D01*
X187449500Y-77265891D01*
X187483608Y-77393187D01*
X187516554Y-77450250D01*
X187549500Y-77507314D01*
X187642686Y-77600500D01*
X187756814Y-77666392D01*
X187884108Y-77700500D01*
X187884110Y-77700500D01*
X188015890Y-77700500D01*
X188015892Y-77700500D01*
X188143186Y-77666392D01*
X188257314Y-77600500D01*
X188350500Y-77507314D01*
X188416392Y-77393186D01*
X188450500Y-77265892D01*
X188450500Y-77134108D01*
X188416392Y-77006814D01*
X188350500Y-76892686D01*
X188257314Y-76799500D01*
X188162698Y-76744873D01*
X188143187Y-76733608D01*
X188044024Y-76707038D01*
X188015892Y-76699500D01*
X187884108Y-76699500D01*
X187756812Y-76733608D01*
X187642686Y-76799500D01*
X187642683Y-76799502D01*
X187549502Y-76892683D01*
X187549500Y-76892686D01*
X187483608Y-77006812D01*
X187449500Y-77134108D01*
X176291922Y-77134108D01*
X176257314Y-77099500D01*
X176200250Y-77066554D01*
X176143187Y-77033608D01*
X176043188Y-77006814D01*
X176015892Y-76999500D01*
X175884108Y-76999500D01*
X175756812Y-77033608D01*
X175642686Y-77099500D01*
X175642683Y-77099502D01*
X175549502Y-77192683D01*
X175549500Y-77192686D01*
X175483608Y-77306812D01*
X175449500Y-77434108D01*
X175449500Y-77565891D01*
X175483608Y-77693187D01*
X175516410Y-77750000D01*
X175549500Y-77807314D01*
X175549502Y-77807316D01*
X175605005Y-77862819D01*
X175638490Y-77924142D01*
X175633506Y-77993834D01*
X175591634Y-78049767D01*
X175526170Y-78074184D01*
X175517324Y-78074500D01*
X175075247Y-78074500D01*
X175016770Y-78086131D01*
X175016769Y-78086132D01*
X174950447Y-78130447D01*
X174906132Y-78196769D01*
X174906131Y-78196770D01*
X174894500Y-78255247D01*
X170841198Y-78255247D01*
X171111716Y-77984728D01*
X171057550Y-77945375D01*
X170868217Y-77848904D01*
X170666129Y-77783242D01*
X170456246Y-77750000D01*
X170243754Y-77750000D01*
X170033872Y-77783242D01*
X170033869Y-77783242D01*
X169831782Y-77848904D01*
X169642439Y-77945380D01*
X169588282Y-77984727D01*
X169588282Y-77984728D01*
X170220591Y-78617037D01*
X170157007Y-78634075D01*
X170042993Y-78699901D01*
X169949901Y-78792993D01*
X169884075Y-78907007D01*
X169867037Y-78970591D01*
X169234728Y-78338282D01*
X169234727Y-78338282D01*
X169195380Y-78392439D01*
X169098905Y-78581781D01*
X169041656Y-78757974D01*
X169002218Y-78815649D01*
X168937859Y-78842847D01*
X168869013Y-78830932D01*
X168817537Y-78783688D01*
X168809164Y-78767107D01*
X168740943Y-78602405D01*
X168625975Y-78430342D01*
X168479657Y-78284024D01*
X168393626Y-78226541D01*
X168307598Y-78169059D01*
X168116420Y-78089870D01*
X168116412Y-78089868D01*
X167913469Y-78049500D01*
X167913465Y-78049500D01*
X167706535Y-78049500D01*
X167706530Y-78049500D01*
X167503587Y-78089868D01*
X167503579Y-78089870D01*
X167312403Y-78169058D01*
X167140342Y-78284024D01*
X166994024Y-78430342D01*
X166879058Y-78602403D01*
X166799870Y-78793579D01*
X166799868Y-78793587D01*
X166759500Y-78996530D01*
X166320499Y-78996530D01*
X166280130Y-78793580D01*
X166200941Y-78602402D01*
X166085977Y-78430345D01*
X166085975Y-78430342D01*
X165939657Y-78284024D01*
X165853626Y-78226541D01*
X165767598Y-78169059D01*
X165674383Y-78130448D01*
X165576420Y-78089870D01*
X165576412Y-78089868D01*
X165373469Y-78049500D01*
X165373465Y-78049500D01*
X165166535Y-78049500D01*
X165166530Y-78049500D01*
X164963587Y-78089868D01*
X164963579Y-78089870D01*
X164772403Y-78169058D01*
X164600342Y-78284024D01*
X164454024Y-78430342D01*
X164339058Y-78602403D01*
X164259870Y-78793579D01*
X164259868Y-78793587D01*
X164219500Y-78996530D01*
X163780499Y-78996530D01*
X163740130Y-78793580D01*
X163660941Y-78602402D01*
X163545977Y-78430345D01*
X163545975Y-78430342D01*
X163399657Y-78284024D01*
X163313626Y-78226541D01*
X163227598Y-78169059D01*
X163134383Y-78130448D01*
X163036420Y-78089870D01*
X163036412Y-78089868D01*
X162833469Y-78049500D01*
X162833465Y-78049500D01*
X162626535Y-78049500D01*
X162626530Y-78049500D01*
X162423587Y-78089868D01*
X162423579Y-78089870D01*
X162232403Y-78169058D01*
X162060342Y-78284024D01*
X161914024Y-78430342D01*
X161799058Y-78602403D01*
X161719870Y-78793579D01*
X161719868Y-78793587D01*
X161679500Y-78996530D01*
X161240500Y-78996530D01*
X161240500Y-78230249D01*
X161240499Y-78230247D01*
X161228868Y-78171770D01*
X161228867Y-78171769D01*
X161184552Y-78105447D01*
X161118230Y-78061132D01*
X161118229Y-78061131D01*
X161059752Y-78049500D01*
X161059748Y-78049500D01*
X159320252Y-78049500D01*
X159320247Y-78049500D01*
X159261770Y-78061131D01*
X159261769Y-78061132D01*
X159195447Y-78105447D01*
X159151132Y-78171769D01*
X159151131Y-78171770D01*
X159139500Y-78230247D01*
X156200500Y-78230247D01*
X156200500Y-76840691D01*
X159799500Y-76840691D01*
X159799500Y-76959309D01*
X159830201Y-77073886D01*
X159889511Y-77176613D01*
X159973387Y-77260489D01*
X160076114Y-77319799D01*
X160190691Y-77350500D01*
X160190694Y-77350500D01*
X160309306Y-77350500D01*
X160309309Y-77350500D01*
X160423886Y-77319799D01*
X160526613Y-77260489D01*
X160610489Y-77176613D01*
X160669799Y-77073886D01*
X160700500Y-76959309D01*
X160700500Y-76840691D01*
X160669799Y-76726114D01*
X160610489Y-76623387D01*
X160526613Y-76539511D01*
X160423886Y-76480201D01*
X160309309Y-76449500D01*
X160190691Y-76449500D01*
X160076114Y-76480201D01*
X160076112Y-76480201D01*
X160076112Y-76480202D01*
X159973387Y-76539511D01*
X159973384Y-76539513D01*
X159889513Y-76623384D01*
X159889511Y-76623387D01*
X159844741Y-76700931D01*
X159830201Y-76726114D01*
X159799500Y-76840691D01*
X156200500Y-76840691D01*
X156200500Y-76744873D01*
X156201097Y-76732722D01*
X156208155Y-76661046D01*
X156214654Y-76595041D01*
X156219388Y-76571230D01*
X156257758Y-76444673D01*
X156267043Y-76422245D01*
X156329349Y-76305601D01*
X156342835Y-76285405D01*
X156426681Y-76183153D01*
X156443843Y-76165975D01*
X156546017Y-76082032D01*
X156566198Y-76068530D01*
X156682786Y-76006113D01*
X156705208Y-75996807D01*
X156831722Y-75958321D01*
X156855528Y-75953564D01*
X156993220Y-75939875D01*
X156997780Y-75939647D01*
X156997957Y-75939582D01*
X157002099Y-75939432D01*
X157005376Y-75939268D01*
X157006670Y-75939267D01*
X197443169Y-75901441D01*
X197455307Y-75902027D01*
G37*
%TD.AperFunction*%
%TD*%
M02*
