%TF.GenerationSoftware,KiCad,Pcbnew,10.0.4*%
%TF.CreationDate,2026-08-08T00:18:09+02:00*%
%TF.ProjectId,IOT DEV BOARD,494f5420-4445-4562-9042-4f4152442e6b,rev?*%
%TF.SameCoordinates,Original*%
%TF.FileFunction,Soldermask,Top*%
%TF.FilePolarity,Negative*%
%FSLAX46Y46*%
G04 Gerber Fmt 4.6, Leading zero omitted, Abs format (unit mm)*
G04 Created by KiCad (PCBNEW 10.0.4) date 2026-08-08 00:18:09*
%MOMM*%
%LPD*%
G01*
G04 APERTURE LIST*
G04 Aperture macros list*
%AMRoundRect*
0 Rectangle with rounded corners*
0 $1 Rounding radius*
0 $2 $3 $4 $5 $6 $7 $8 $9 X,Y pos of 4 corners*
0 Add a 4 corners polygon primitive as box body*
4,1,4,$2,$3,$4,$5,$6,$7,$8,$9,$2,$3,0*
0 Add four circle primitives for the rounded corners*
1,1,$1+$1,$2,$3*
1,1,$1+$1,$4,$5*
1,1,$1+$1,$6,$7*
1,1,$1+$1,$8,$9*
0 Add four rect primitives between the rounded corners*
20,1,$1+$1,$2,$3,$4,$5,0*
20,1,$1+$1,$4,$5,$6,$7,0*
20,1,$1+$1,$6,$7,$8,$9,0*
20,1,$1+$1,$8,$9,$2,$3,0*%
G04 Aperture macros list end*
%ADD10RoundRect,0.102000X-0.750000X-0.450000X0.750000X-0.450000X0.750000X0.450000X-0.750000X0.450000X0*%
%ADD11RoundRect,0.102000X-0.350000X-0.350000X0.350000X-0.350000X0.350000X0.350000X-0.350000X0.350000X0*%
%ADD12R,1.230000X1.800000*%
%ADD13RoundRect,0.250000X-0.475000X0.250000X-0.475000X-0.250000X0.475000X-0.250000X0.475000X0.250000X0*%
%ADD14RoundRect,0.250000X-0.450000X0.262500X-0.450000X-0.262500X0.450000X-0.262500X0.450000X0.262500X0*%
%ADD15RoundRect,0.250000X0.450000X-0.262500X0.450000X0.262500X-0.450000X0.262500X-0.450000X-0.262500X0*%
%ADD16R,1.800000X1.230000*%
%ADD17RoundRect,0.250000X0.475000X-0.250000X0.475000X0.250000X-0.475000X0.250000X-0.475000X-0.250000X0*%
%ADD18RoundRect,0.250000X-0.250000X-0.475000X0.250000X-0.475000X0.250000X0.475000X-0.250000X0.475000X0*%
%ADD19RoundRect,0.158250X0.168750X-0.188750X0.168750X0.188750X-0.168750X0.188750X-0.168750X-0.188750X0*%
%ADD20RoundRect,0.102000X0.550000X0.400000X-0.550000X0.400000X-0.550000X-0.400000X0.550000X-0.400000X0*%
%ADD21RoundRect,0.102000X0.550000X0.500000X-0.550000X0.500000X-0.550000X-0.500000X0.550000X-0.500000X0*%
%ADD22RoundRect,0.250000X0.250000X0.475000X-0.250000X0.475000X-0.250000X-0.475000X0.250000X-0.475000X0*%
%ADD23R,1.000000X1.400000*%
%ADD24R,1.000000X1.000000*%
%ADD25RoundRect,0.250000X0.262500X0.450000X-0.262500X0.450000X-0.262500X-0.450000X0.262500X-0.450000X0*%
%ADD26C,1.150000*%
%ADD27C,1.650000*%
%ADD28RoundRect,0.102000X-0.500000X-0.750000X0.500000X-0.750000X0.500000X0.750000X-0.500000X0.750000X0*%
%ADD29RoundRect,0.102000X-0.350000X-0.750000X0.350000X-0.750000X0.350000X0.750000X-0.350000X0.750000X0*%
%ADD30RoundRect,0.102000X-0.750000X-1.400000X0.750000X-1.400000X0.750000X1.400000X-0.750000X1.400000X0*%
%ADD31RoundRect,0.250000X-0.262500X-0.450000X0.262500X-0.450000X0.262500X0.450000X-0.262500X0.450000X0*%
%ADD32C,1.412000*%
%ADD33R,0.910000X2.810000*%
%ADD34C,2.500000*%
%ADD35R,1.700000X1.700000*%
%ADD36C,1.700000*%
%ADD37RoundRect,0.102000X0.285000X-0.275000X0.285000X0.275000X-0.285000X0.275000X-0.285000X-0.275000X0*%
%ADD38RoundRect,0.202000X-0.495000X-0.100000X0.495000X-0.100000X0.495000X0.100000X-0.495000X0.100000X0*%
%ADD39RoundRect,0.150000X-0.150000X0.587500X-0.150000X-0.587500X0.150000X-0.587500X0.150000X0.587500X0*%
%ADD40R,0.300000X0.300000*%
%ADD41R,0.300000X0.900000*%
%ADD42R,0.900000X0.300000*%
%ADD43R,1.800000X1.800000*%
%ADD44O,1.804000X0.804000*%
%ADD45RoundRect,0.102000X-0.500000X-2.750000X0.500000X-2.750000X0.500000X2.750000X-0.500000X2.750000X0*%
%ADD46RoundRect,0.102000X-0.800000X-1.500000X0.800000X-1.500000X0.800000X1.500000X-0.800000X1.500000X0*%
%ADD47RoundRect,0.150000X-0.150000X0.512500X-0.150000X-0.512500X0.150000X-0.512500X0.150000X0.512500X0*%
%ADD48R,1.400000X1.000000*%
%ADD49RoundRect,0.167000X0.355000X0.065000X-0.355000X0.065000X-0.355000X-0.065000X0.355000X-0.065000X0*%
%ADD50RoundRect,0.167000X0.065000X0.355000X-0.065000X0.355000X-0.065000X-0.355000X0.065000X-0.355000X0*%
%ADD51RoundRect,0.102000X1.350000X1.350000X-1.350000X1.350000X-1.350000X-1.350000X1.350000X-1.350000X0*%
%ADD52RoundRect,0.102000X-0.150000X-0.600000X0.150000X-0.600000X0.150000X0.600000X-0.150000X0.600000X0*%
%ADD53C,0.854000*%
%ADD54RoundRect,0.102000X-0.100000X-0.500000X0.100000X-0.500000X0.100000X0.500000X-0.100000X0.500000X0*%
%ADD55O,1.254000X2.304000*%
%ADD56RoundRect,0.102000X0.475000X-1.075000X0.475000X1.075000X-0.475000X1.075000X-0.475000X-1.075000X0*%
%ADD57RoundRect,0.102000X1.625000X-1.075000X1.625000X1.075000X-1.625000X1.075000X-1.625000X-1.075000X0*%
G04 APERTURE END LIST*
D10*
%TO.C,U3*%
X216400000Y-83025000D03*
X216400000Y-84525000D03*
X216400000Y-86025000D03*
X216400000Y-87525000D03*
X216400000Y-89025000D03*
X216400000Y-90525000D03*
X216400000Y-92025000D03*
X216400000Y-93525000D03*
X216400000Y-95025000D03*
X233900000Y-95025000D03*
X233900000Y-93525000D03*
X233900000Y-92025000D03*
X233900000Y-90525000D03*
X233900000Y-89025000D03*
X233900000Y-87525000D03*
X233900000Y-86025000D03*
X233900000Y-84525000D03*
X233900000Y-83025000D03*
D11*
X225010000Y-88125000D03*
X226110000Y-88125000D03*
X227210000Y-88125000D03*
X225010000Y-89225000D03*
X226110000Y-89225000D03*
X227210000Y-89225000D03*
X225010000Y-90325000D03*
X226110000Y-90325000D03*
X227210000Y-90325000D03*
%TD*%
D12*
%TO.C,C2*%
X172075000Y-127285000D03*
X172075000Y-124665000D03*
%TD*%
D13*
%TO.C,C18*%
X188350000Y-93450000D03*
X188350000Y-95350000D03*
%TD*%
%TO.C,C26*%
X171750000Y-88250000D03*
X171750000Y-90150000D03*
%TD*%
D14*
%TO.C,R23*%
X189000000Y-89787500D03*
X189000000Y-91612500D03*
%TD*%
%TO.C,R18*%
X210200000Y-97012500D03*
X210200000Y-98837500D03*
%TD*%
D15*
%TO.C,R1*%
X189825000Y-109437500D03*
X189825000Y-107612500D03*
%TD*%
D16*
%TO.C,C5*%
X173460000Y-106250000D03*
X170840000Y-106250000D03*
%TD*%
D17*
%TO.C,C19*%
X183875000Y-91625000D03*
X183875000Y-89725000D03*
%TD*%
D18*
%TO.C,C14*%
X217775000Y-100812500D03*
X219675000Y-100812500D03*
%TD*%
D19*
%TO.C,U6*%
X189662500Y-78092500D03*
X190312500Y-78092500D03*
X190962500Y-78092500D03*
X191612500Y-78092500D03*
X191612500Y-80032500D03*
X190962500Y-80032500D03*
X190312500Y-80032500D03*
X189662500Y-80032500D03*
%TD*%
D12*
%TO.C,C13*%
X211500000Y-83840000D03*
X211500000Y-86460000D03*
%TD*%
D17*
%TO.C,C23*%
X187930000Y-80087500D03*
X187930000Y-78187500D03*
%TD*%
D15*
%TO.C,R19*%
X192750000Y-95287500D03*
X192750000Y-93462500D03*
%TD*%
D20*
%TO.C,Q1*%
X176995000Y-85950000D03*
X176995000Y-84850000D03*
D21*
X173485000Y-85400000D03*
%TD*%
D22*
%TO.C,C25*%
X177050000Y-90500000D03*
X175150000Y-90500000D03*
%TD*%
D15*
%TO.C,R25*%
X189050000Y-87987500D03*
X189050000Y-86162500D03*
%TD*%
D17*
%TO.C,C16*%
X198050000Y-98825000D03*
X198050000Y-96925000D03*
%TD*%
D23*
%TO.C,LED4*%
X172475000Y-96275000D03*
X174275000Y-96275000D03*
%TD*%
D13*
%TO.C,C20*%
X186700000Y-86050000D03*
X186700000Y-87950000D03*
%TD*%
D15*
%TO.C,R14*%
X194775000Y-109437500D03*
X194775000Y-107612500D03*
%TD*%
D24*
%TO.C,MISO*%
X210200000Y-100700000D03*
%TD*%
D17*
%TO.C,C6*%
X173075000Y-102875000D03*
X173075000Y-100975000D03*
%TD*%
%TO.C,C17*%
X195000000Y-95350000D03*
X195000000Y-93450000D03*
%TD*%
D15*
%TO.C,R9*%
X166625000Y-116087500D03*
X166625000Y-114262500D03*
%TD*%
D25*
%TO.C,R11*%
X181787500Y-107250000D03*
X179962500Y-107250000D03*
%TD*%
D15*
%TO.C,R20*%
X193300000Y-80062500D03*
X193300000Y-78237500D03*
%TD*%
D26*
%TO.C,J3*%
X208900000Y-105800000D03*
D27*
X229900000Y-105800000D03*
D28*
X227275000Y-103000000D03*
X224775000Y-103000000D03*
X222275000Y-103000000D03*
X219775000Y-103000000D03*
X217275000Y-103000000D03*
X214775000Y-103000000D03*
X212350000Y-103000000D03*
X210650000Y-103000000D03*
X229775000Y-103000000D03*
D29*
X209350000Y-103000000D03*
D30*
X206750000Y-104800000D03*
X231850000Y-104800000D03*
X234050000Y-126300000D03*
X206750000Y-126300000D03*
D29*
X208150000Y-103000000D03*
%TD*%
D31*
%TO.C,R17*%
X212737500Y-101012500D03*
X214562500Y-101012500D03*
%TD*%
D24*
%TO.C,CS-SD*%
X228325000Y-97325000D03*
%TD*%
D12*
%TO.C,C1*%
X176075000Y-124665000D03*
X176075000Y-127285000D03*
%TD*%
D16*
%TO.C,C10*%
X184890000Y-102050000D03*
X187510000Y-102050000D03*
%TD*%
D32*
%TO.C,MK1*%
X194875000Y-86600000D03*
X192975000Y-86600000D03*
%TD*%
D25*
%TO.C,R5*%
X164162500Y-116150000D03*
X162337500Y-116150000D03*
%TD*%
D31*
%TO.C,R2*%
X173312500Y-115850000D03*
X175137500Y-115850000D03*
%TD*%
D14*
%TO.C,R13*%
X197175000Y-107612500D03*
X197175000Y-109437500D03*
%TD*%
D25*
%TO.C,R10*%
X174462500Y-98700000D03*
X172637500Y-98700000D03*
%TD*%
D16*
%TO.C,C15*%
X222725000Y-100087500D03*
X225345000Y-100087500D03*
%TD*%
D23*
%TO.C,LED5*%
X178125000Y-106975000D03*
X176325000Y-106975000D03*
%TD*%
D33*
%TO.C,F1*%
X182195000Y-115400000D03*
X178955000Y-115400000D03*
%TD*%
D13*
%TO.C,C4*%
X190725000Y-114525000D03*
X190725000Y-116425000D03*
%TD*%
D34*
%TO.C,MH03*%
X184100000Y-95500000D03*
%TD*%
D25*
%TO.C,R30*%
X230062500Y-100812500D03*
X228237500Y-100812500D03*
%TD*%
%TO.C,R12*%
X181987500Y-109575000D03*
X180162500Y-109575000D03*
%TD*%
D16*
%TO.C,C7*%
X164490000Y-106225000D03*
X167110000Y-106225000D03*
%TD*%
D35*
%TO.C,J4*%
X175945000Y-79125000D03*
D36*
X178485000Y-79125000D03*
X181025000Y-79125000D03*
X183565000Y-79125000D03*
%TD*%
D13*
%TO.C,C12*%
X214350000Y-82900000D03*
X214350000Y-84800000D03*
%TD*%
%TO.C,C24*%
X235900000Y-83950000D03*
X235900000Y-85850000D03*
%TD*%
D14*
%TO.C,R29*%
X192950000Y-120637500D03*
X192950000Y-122462500D03*
%TD*%
D37*
%TO.C,BOOT*%
X195420000Y-128487500D03*
X195420000Y-125937500D03*
X196580000Y-128487500D03*
X196580000Y-125937500D03*
%TD*%
D25*
%TO.C,R6*%
X164137500Y-113925000D03*
X162312500Y-113925000D03*
%TD*%
D17*
%TO.C,C8*%
X163800000Y-102900000D03*
X163800000Y-101000000D03*
%TD*%
D15*
%TO.C,R7*%
X171550000Y-116187500D03*
X171550000Y-114362500D03*
%TD*%
D38*
%TO.C,U7*%
X192815000Y-90250000D03*
X192815000Y-90900000D03*
X192815000Y-91550000D03*
X194735000Y-91550000D03*
X194735000Y-90250000D03*
%TD*%
D17*
%TO.C,C11*%
X192175000Y-109455000D03*
X192175000Y-107555000D03*
%TD*%
D15*
%TO.C,R8*%
X169175000Y-116137500D03*
X169175000Y-114312500D03*
%TD*%
D23*
%TO.C,LED6*%
X178200000Y-109625000D03*
X176400000Y-109625000D03*
%TD*%
D25*
%TO.C,R31*%
X177012500Y-88100000D03*
X175187500Y-88100000D03*
%TD*%
D31*
%TO.C,R28*%
X197337500Y-114900000D03*
X199162500Y-114900000D03*
%TD*%
D15*
%TO.C,R22*%
X190600000Y-95237500D03*
X190600000Y-93412500D03*
%TD*%
D39*
%TO.C,Q3*%
X201475000Y-117362500D03*
X199575000Y-117362500D03*
X200525000Y-119237500D03*
%TD*%
D15*
%TO.C,R21*%
X195475000Y-80062500D03*
X195475000Y-78237500D03*
%TD*%
D14*
%TO.C,R16*%
X213700000Y-89737500D03*
X213700000Y-91562500D03*
%TD*%
D39*
%TO.C,Q2*%
X197075000Y-117412500D03*
X195175000Y-117412500D03*
X196125000Y-119287500D03*
%TD*%
D40*
%TO.C,U2*%
X184675000Y-109725000D03*
D41*
X185175000Y-110025000D03*
X185675000Y-110025000D03*
X186175000Y-110025000D03*
X186675000Y-110025000D03*
D40*
X187175000Y-109725000D03*
D42*
X187475000Y-109225000D03*
X187475000Y-108725000D03*
X187475000Y-108225000D03*
X187475000Y-107725000D03*
D40*
X187175000Y-107225000D03*
D41*
X186675000Y-106925000D03*
X186175000Y-106925000D03*
X185675000Y-106925000D03*
X185175000Y-106925000D03*
D40*
X184675000Y-107225000D03*
D42*
X184375000Y-107725000D03*
X184375000Y-108225000D03*
X184375000Y-108725000D03*
X184375000Y-109225000D03*
D43*
X185925000Y-108475000D03*
%TD*%
D34*
%TO.C,MH01*%
X158900000Y-88250000D03*
%TD*%
D44*
%TO.C,U4*%
X200650000Y-94695000D03*
X200650000Y-95965000D03*
X200650000Y-97235000D03*
X200650000Y-98505000D03*
X207850000Y-98505000D03*
X207850000Y-97235000D03*
X207850000Y-95965000D03*
X207850000Y-94695000D03*
%TD*%
D14*
%TO.C,R3*%
X179725000Y-124812500D03*
X179725000Y-126637500D03*
%TD*%
D18*
%TO.C,C9*%
X185300000Y-105100000D03*
X187200000Y-105100000D03*
%TD*%
D24*
%TO.C,MOSI*%
X212125000Y-94900000D03*
%TD*%
D22*
%TO.C,C22*%
X201125000Y-122375000D03*
X199225000Y-122375000D03*
%TD*%
%TO.C,C21*%
X197100000Y-122375000D03*
X195200000Y-122375000D03*
%TD*%
D14*
%TO.C,R27*%
X203475000Y-120675000D03*
X203475000Y-122500000D03*
%TD*%
D34*
%TO.C,MH01*%
X158900000Y-104400000D03*
%TD*%
D45*
%TO.C,J2*%
X159950000Y-125975000D03*
X161950000Y-125975000D03*
D46*
X157550000Y-123725000D03*
X164350000Y-123725000D03*
%TD*%
D15*
%TO.C,R15*%
X211000000Y-91562500D03*
X211000000Y-89737500D03*
%TD*%
D35*
%TO.C,J5*%
X160190000Y-79100000D03*
D36*
X162730000Y-79100000D03*
X165270000Y-79100000D03*
X167810000Y-79100000D03*
X170350000Y-79100000D03*
%TD*%
D47*
%TO.C,U5*%
X187375000Y-112300000D03*
X186425000Y-112300000D03*
X185475000Y-112300000D03*
X185475000Y-114575000D03*
X186425000Y-114575000D03*
X187375000Y-114575000D03*
%TD*%
D24*
%TO.C,CS*%
X218775000Y-97275000D03*
%TD*%
D14*
%TO.C,R4*%
X179775000Y-120812500D03*
X179775000Y-122637500D03*
%TD*%
D48*
%TO.C,LED3*%
X169300000Y-112000000D03*
X169300000Y-110200000D03*
%TD*%
D49*
%TO.C,U1*%
X170810000Y-120800000D03*
X170810000Y-120300000D03*
X170810000Y-119800000D03*
X170810000Y-119300000D03*
X170810000Y-118800000D03*
D50*
X169875000Y-117865000D03*
X169375000Y-117865000D03*
X168875000Y-117865000D03*
X168375000Y-117865000D03*
X167875000Y-117865000D03*
D49*
X166940000Y-118800000D03*
X166940000Y-119300000D03*
X166940000Y-119800000D03*
X166940000Y-120300000D03*
X166940000Y-120800000D03*
D50*
X167875000Y-121735000D03*
X168375000Y-121735000D03*
X168875000Y-121735000D03*
X169375000Y-121735000D03*
X169875000Y-121735000D03*
D51*
X168875000Y-119800000D03*
%TD*%
D15*
%TO.C,R24*%
X186702500Y-91585000D03*
X186702500Y-89760000D03*
%TD*%
D24*
%TO.C,SCLK*%
X208525000Y-91925000D03*
%TD*%
D52*
%TO.C,J1*%
X183625000Y-118245000D03*
X184125000Y-118245000D03*
X184625000Y-118245000D03*
X185125000Y-118245000D03*
X185625000Y-118245000D03*
X186125000Y-118245000D03*
X186625000Y-118245000D03*
X187125000Y-118245000D03*
X187625000Y-118245000D03*
X188125000Y-118245000D03*
X188625000Y-118245000D03*
X189125000Y-118245000D03*
D53*
X189175000Y-119495000D03*
X188775000Y-120205000D03*
X187975000Y-120205000D03*
X187575000Y-119495000D03*
X187175000Y-120205000D03*
X186775000Y-119495000D03*
X185975000Y-119495000D03*
X185575000Y-120205000D03*
X185175000Y-119495000D03*
X184775000Y-120205000D03*
X183975000Y-120205000D03*
X183575000Y-119495000D03*
X188375000Y-119495000D03*
X184375000Y-119495000D03*
D54*
X186375000Y-122825000D03*
X186375000Y-125925000D03*
D55*
X182105000Y-120645000D03*
X190645000Y-120645000D03*
X182105000Y-125375000D03*
X190645000Y-125375000D03*
%TD*%
D15*
%TO.C,R26*%
X183825000Y-87962500D03*
X183825000Y-86137500D03*
%TD*%
D48*
%TO.C,LED1*%
X172050000Y-112000000D03*
X172050000Y-110200000D03*
%TD*%
D37*
%TO.C,ENABLE*%
X199820000Y-128487500D03*
X199820000Y-125937500D03*
X200980000Y-128487500D03*
X200980000Y-125937500D03*
%TD*%
D56*
%TO.C,VR1*%
X166325000Y-103000000D03*
X168625000Y-103000000D03*
X170925000Y-103000000D03*
D57*
X168625000Y-97200000D03*
%TD*%
D12*
%TO.C,C3*%
X168125000Y-124665000D03*
X168125000Y-127285000D03*
%TD*%
D48*
%TO.C,LED2*%
X166550000Y-112050000D03*
X166550000Y-110250000D03*
%TD*%
M02*
