M48
; DRILL file KiCad 10.0.4 date 2026-08-08T00:18:13
; FORMAT={-:-/ absolute / metric / decimal}
; #@! TF.CreationDate,2026-08-08T00:18:13+02:00
; #@! TF.GenerationSoftware,Kicad,Pcbnew,10.0.4
; #@! TF.FileFunction,Plated,1,4,PTH
FMAT,2
METRIC
; #@! TA.AperFunction,Plated,PTH,ViaDrill
T1C0.300
; #@! TA.AperFunction,Plated,PTH,ComponentDrill
T2C0.300
; #@! TA.AperFunction,Plated,PTH,ViaDrill
T3C0.400
; #@! TA.AperFunction,Plated,PTH,ComponentDrill
T4C0.450
; #@! TA.AperFunction,Plated,PTH,ComponentDrill
T5C0.650
; #@! TA.AperFunction,Plated,PTH,ComponentDrill
T6C0.700
; #@! TA.AperFunction,Plated,PTH,ComponentDrill
T7C1.000
%
G90
G05
T1
X160.25Y-76.9
X163.8Y-99.9
X166.6Y-97.2
X167.15Y-108.35
X167.95Y-110.2
X169.1Y-122.6
X170.65Y-110.2
X172.0Y-120.3
X173.55Y-90.5
X175.55Y-96.25
X176.075Y-122.35
X176.325Y-105.35
X179.9Y-114.3
X179.95Y-116.3
X180.8Y-88.65
X181.3Y-114.2
X181.3Y-116.3
X182.35Y-117.75
X183.05Y-105.6
X183.3Y-114.85
X183.85Y-105.5
X184.05Y-85.0
X184.526Y-114.706
X185.41Y-89.76
X186.425Y-115.6
X187.95Y-77.2
X188.05Y-105.1
X188.1Y-114.6
X188.7Y-116.0
X189.15Y-81.05
X189.825Y-110.525
X190.962Y-81.462
X192.95Y-123.6
X195.15Y-114.85
X195.5Y-81.1
X196.05Y-90.3
X196.85Y-96.95
X197.115Y-120.985
X199.55Y-119.5
X200.4Y-115.85
X201.925Y-119.925
X203.3Y-94.95
X203.3Y-119.45
X205.4Y-93.85
X208.35Y-84.85
X208.35Y-85.7
X208.75Y-109.15
X209.05Y-83.84
X209.25Y-95.7
X209.6Y-108.15
X209.75Y-94.1
X209.973Y-95.5
X210.6Y-107.45
X213.5Y-106.1
X214.8Y-92.9
X214.837Y-88.237
X216.35Y-98.1
X216.5Y-97.1
X217.85Y-99.05
X219.35Y-84.2
X219.8Y-104.35
X221.55Y-97.1
X222.725Y-97.7
X224.5Y-85.7
X228.65Y-84.85
X229.9Y-98.3
X230.0Y-91.3
X230.062Y-99.162
X230.2Y-85.5
X230.45Y-95.05
X230.95Y-94.4
X231.0Y-86.05
X232.6Y-88.15
T2
X225.01Y-88.675
X225.01Y-89.775
X225.56Y-88.125
X225.56Y-89.225
X225.56Y-90.325
X226.11Y-88.675
X226.11Y-89.775
X226.66Y-88.125
X226.66Y-89.225
X226.66Y-90.325
X227.21Y-88.675
X227.21Y-89.775
T3
X158.0Y-126.4
X158.0Y-127.25
X158.0Y-128.1
X161.1Y-113.6
X161.1Y-115.0
X161.1Y-116.2
X166.85Y-117.75
X169.4Y-127.25
X170.45Y-76.9
X172.15Y-85.4
X173.05Y-104.05
X173.4Y-127.25
X173.95Y-104.05
X174.8Y-127.25
X175.15Y-114.5
X175.95Y-77.5
X178.3Y-126.75
X182.7Y-102.0
X183.55Y-77.2
X184.4Y-113.4
X186.375Y-124.4
X186.7Y-84.95
X186.9Y-93.45
X187.9Y-81.25
X190.25Y-89.8
X190.312Y-81.037
X191.6Y-80.9
X192.05Y-117.75
X192.1Y-114.55
X192.15Y-110.55
X195.2Y-123.9
X196.65Y-90.9
X196.85Y-98.85
X198.9Y-128.487
X199.225Y-123.825
X199.82Y-125.1
X205.25Y-104.837
X205.45Y-126.337
X209.11Y-86.46
X214.8Y-104.5
X215.05Y-95.025
X219.675Y-99.075
X222.3Y-104.45
X225.345Y-97.705
X231.875Y-101.45
X235.9Y-86.85
T4
X183.575Y-119.495
X183.975Y-120.205
X184.375Y-119.495
X184.775Y-120.205
X185.175Y-119.495
X185.575Y-120.205
X185.975Y-119.495
X186.775Y-119.495
X187.175Y-120.205
X187.575Y-119.495
X187.975Y-120.205
X188.375Y-119.495
X188.775Y-120.205
X189.175Y-119.495
T6
X192.975Y-86.6
X194.875Y-86.6
T7
X160.19Y-79.1
X162.73Y-79.1
X165.27Y-79.1
X167.81Y-79.1
X170.35Y-79.1
X175.945Y-79.125
X178.485Y-79.125
X181.025Y-79.125
X183.565Y-79.125
T5
G00X182.105Y-120.345
M15
G01X182.105Y-120.945
M16
G05
G00X182.105Y-125.075
M15
G01X182.105Y-125.675
M16
G05
G00X190.645Y-120.345
M15
G01X190.645Y-120.945
M16
G05
G00X190.645Y-125.075
M15
G01X190.645Y-125.675
M16
G05
M30
