%TF.GenerationSoftware,KiCad,Pcbnew,10.0.4*%
%TF.CreationDate,2026-08-08T00:18:09+02:00*%
%TF.ProjectId,IOT DEV BOARD,494f5420-4445-4562-9042-4f4152442e6b,rev?*%
%TF.SameCoordinates,Original*%
%TF.FileFunction,Copper,L4,Bot*%
%TF.FilePolarity,Positive*%
%FSLAX46Y46*%
G04 Gerber Fmt 4.6, Leading zero omitted, Abs format (unit mm)*
G04 Created by KiCad (PCBNEW 10.0.4) date 2026-08-08 00:18:09*
%MOMM*%
%LPD*%
G01*
G04 APERTURE LIST*
%TA.AperFunction,ComponentPad*%
%ADD10C,0.400000*%
%TD*%
%TA.AperFunction,ComponentPad*%
%ADD11C,1.208000*%
%TD*%
%TA.AperFunction,ComponentPad*%
%ADD12R,1.700000X1.700000*%
%TD*%
%TA.AperFunction,ComponentPad*%
%ADD13C,1.700000*%
%TD*%
%TA.AperFunction,ComponentPad*%
%ADD14C,0.650000*%
%TD*%
%TA.AperFunction,ComponentPad*%
%ADD15O,1.050000X2.100000*%
%TD*%
%TA.AperFunction,ViaPad*%
%ADD16C,0.500000*%
%TD*%
%TA.AperFunction,ViaPad*%
%ADD17C,0.600000*%
%TD*%
%TA.AperFunction,Conductor*%
%ADD18C,0.200000*%
%TD*%
%TA.AperFunction,Conductor*%
%ADD19C,0.254000*%
%TD*%
G04 APERTURE END LIST*
D10*
%TO.P,U3,28,GND_28*%
%TO.N,GND*%
X225560000Y-88125000D03*
%TO.P,U3,29,GND_29*%
X226660000Y-88125000D03*
%TO.P,U3,30,GND_30*%
X225010000Y-88675000D03*
%TO.P,U3,31,GND_31*%
X226110000Y-88675000D03*
%TO.P,U3,32,GND_32*%
X227210000Y-88675000D03*
%TO.P,U3,33,GND_33*%
X225560000Y-89225000D03*
%TO.P,U3,34,GND_34*%
X226660000Y-89225000D03*
%TO.P,U3,35,GND_35*%
X225010000Y-89775000D03*
%TO.P,U3,36,GND_36*%
X226110000Y-89775000D03*
%TO.P,U3,37,GND_37*%
X227210000Y-89775000D03*
%TO.P,U3,38,GND_38*%
X225560000Y-90325000D03*
%TO.P,U3,39,GND_39*%
X226660000Y-90325000D03*
%TD*%
D11*
%TO.P,MK1,GND*%
%TO.N,GND*%
X194875000Y-86600000D03*
%TO.P,MK1,OUT*%
%TO.N,Net-(C19-Pad2)*%
X192975000Y-86600000D03*
%TD*%
D12*
%TO.P,J4,1,Pin_1_1*%
%TO.N,+3.3V*%
X175945000Y-79125000D03*
D13*
%TO.P,J4,2,Pin_2_2*%
%TO.N,/ESP32-C3-02/SCL*%
X178485000Y-79125000D03*
%TO.P,J4,3,Pin_3_3*%
%TO.N,/ESP32-C3-02/SDA*%
X181025000Y-79125000D03*
%TO.P,J4,4,Pin_4_4*%
%TO.N,GND*%
X183565000Y-79125000D03*
%TD*%
D12*
%TO.P,J5,1,Pin_1_1*%
%TO.N,+3.3V*%
X160190000Y-79100000D03*
D13*
%TO.P,J5,2,Pin_2_2*%
%TO.N,/ESP32-C3-02/GPIO08*%
X162730000Y-79100000D03*
%TO.P,J5,3,Pin_3_3*%
%TO.N,/ESP32-C3-02/GPIO18*%
X165270000Y-79100000D03*
%TO.P,J5,4,Pin_4_4*%
%TO.N,/ESP32-C3-02/GPIO19*%
X167810000Y-79100000D03*
%TO.P,J5,5,Pin_5_5*%
%TO.N,GND*%
X170350000Y-79100000D03*
%TD*%
D14*
%TO.P,J1,B1,GNDB1_B1*%
%TO.N,GND*%
X189175000Y-119495000D03*
%TO.P,J1,B2,SSTXP2_B2*%
%TO.N,unconnected-(J1-SSTXP2-PadB2)*%
X188775000Y-120205000D03*
%TO.P,J1,B3,SSTXN2_B3*%
%TO.N,unconnected-(J1-SSTXN2-PadB3)*%
X187975000Y-120205000D03*
%TO.P,J1,B4,VBUSB1_B4*%
%TO.N,/VBUS*%
X187575000Y-119495000D03*
%TO.P,J1,B5,CC2_B5*%
%TO.N,Net-(J1-CC2)*%
X187175000Y-120205000D03*
%TO.P,J1,B6,DP2_B6*%
%TO.N,/USB-DP*%
X186775000Y-119495000D03*
%TO.P,J1,B7,DN2_B7*%
%TO.N,/USB-DN*%
X185975000Y-119495000D03*
%TO.P,J1,B8,SBU2_B8*%
%TO.N,unconnected-(J1-SBU2-PadB8)*%
X185575000Y-120205000D03*
%TO.P,J1,B9,VBUSB2_B9*%
%TO.N,/VBUS*%
X185175000Y-119495000D03*
%TO.P,J1,B10,SSRXN1_B10*%
%TO.N,unconnected-(J1-SSRXN1-PadB10)*%
X184775000Y-120205000D03*
%TO.P,J1,B11,SSRXP1_B11*%
%TO.N,unconnected-(J1-SSRXP1-PadB11)*%
X183975000Y-120205000D03*
%TO.P,J1,B12,GNDB2_B12*%
%TO.N,GND*%
X183575000Y-119495000D03*
%TO.P,J1,G1,GND/SHIELD_G1*%
X188375000Y-119495000D03*
%TO.P,J1,G2,GND/SHIELD_G2*%
X184375000Y-119495000D03*
D15*
%TO.P,J1,S1,GND/SHIELD_S1*%
X182105000Y-120645000D03*
%TO.P,J1,S2,GND/SHIELD_S2*%
X190645000Y-120645000D03*
%TO.P,J1,S3,GND/SHIELD_S3*%
X182105000Y-125375000D03*
%TO.P,J1,S4,GND/SHIELD_S4*%
X190645000Y-125375000D03*
%TD*%
D16*
%TO.N,+3.3V*%
X188050000Y-105100000D03*
X163800000Y-99900000D03*
X175550000Y-96250000D03*
X184050000Y-85000000D03*
X176325000Y-105350000D03*
D17*
X187950000Y-77200000D03*
D16*
X196850000Y-96950000D03*
X209750000Y-94100000D03*
X230062500Y-99162500D03*
X189150000Y-81050000D03*
X217850000Y-99050000D03*
X196050000Y-90300000D03*
X166600000Y-97200000D03*
X189825000Y-110525000D03*
X192950000Y-123600000D03*
X209050000Y-83840000D03*
X195500000Y-81100000D03*
X219800000Y-104350000D03*
X160250000Y-76900000D03*
X209250000Y-95700000D03*
X167150000Y-108350000D03*
X185410000Y-89760000D03*
D17*
X172150000Y-85400000D03*
D16*
X222725000Y-97700000D03*
D17*
X175950000Y-77500000D03*
D16*
X190962500Y-81462500D03*
D17*
%TO.N,/ESP32-C3-02/EN*%
X208750000Y-109150000D03*
D16*
X219350000Y-84200000D03*
D17*
%TO.N,/ESP32-C3-02/SDA*%
X224500000Y-85700000D03*
X208350000Y-85700000D03*
D16*
%TO.N,/ESP32-C3-02/GPIO08*%
X214800000Y-92900000D03*
%TO.N,/ESP32-C3-02/BOOT*%
X199550000Y-119500000D03*
X216350000Y-98100000D03*
X197115196Y-120984804D03*
D17*
X213500000Y-106100000D03*
%TO.N,GND*%
X192100000Y-114550000D03*
X215050000Y-95025000D03*
X196650000Y-90900000D03*
X209110000Y-86460000D03*
X235900000Y-86850000D03*
X184400000Y-113400000D03*
X196850000Y-98850000D03*
X158000000Y-128100000D03*
X192050000Y-117750000D03*
X186375000Y-124400000D03*
X173400000Y-127250000D03*
X161100000Y-113600000D03*
X173550000Y-90500000D03*
X214800000Y-104500000D03*
X173050000Y-104050000D03*
X187900000Y-81250000D03*
X199820000Y-125100000D03*
X183550000Y-77200000D03*
X182700000Y-102000000D03*
X170450000Y-76900000D03*
X161100000Y-116200000D03*
X174800000Y-127250000D03*
X166850000Y-117750000D03*
X169400000Y-127250000D03*
X205450000Y-126337500D03*
X192150000Y-110550000D03*
X186900000Y-93450000D03*
X231875000Y-101450000D03*
X222300000Y-104450000D03*
X205250000Y-104837500D03*
X175150000Y-114500000D03*
X191600000Y-80900000D03*
X199225000Y-123825000D03*
X158000000Y-126400000D03*
X178300000Y-126750000D03*
X190312500Y-81037500D03*
X190250000Y-89800000D03*
X161100000Y-115000000D03*
X225345000Y-97705000D03*
X219675000Y-99075000D03*
X198900000Y-128487500D03*
X173950000Y-104050000D03*
X195200000Y-123900000D03*
X186700000Y-84950000D03*
X158000000Y-127250000D03*
%TO.N,/ESP32-C3-02/CS*%
X216500000Y-97100000D03*
X203300000Y-94950000D03*
X221550000Y-97100000D03*
X230450000Y-95050000D03*
D16*
%TO.N,/ESP32-C3-02/TX-RX*%
X210600000Y-107450000D03*
X230950000Y-94400000D03*
%TO.N,/ESP32-C3-02/RX-TX*%
X209600000Y-108150000D03*
X229900000Y-98300000D03*
%TO.N,/ESP32-C3-02/GPIO18*%
X230000000Y-91300000D03*
%TO.N,/ESP32-C3-02/GPIO19*%
X232600000Y-88150000D03*
D17*
%TO.N,/ESP32-C3-02/SCL*%
X208350000Y-84850000D03*
X228650000Y-84850000D03*
D16*
%TO.N,/ESP32-C3-02/PHOTO-C*%
X231000000Y-86050000D03*
X180800000Y-88650000D03*
%TO.N,/ESP32-C3-02/MIC_OUT*%
X214837500Y-88237500D03*
X230200000Y-85500000D03*
D17*
%TO.N,Net-(U4-DO(IO1))*%
X209972844Y-95500000D03*
X205400000Y-93850000D03*
%TO.N,/+5V-USB*%
X167950000Y-110200000D03*
X172000000Y-120300000D03*
X170650000Y-110200000D03*
X169100000Y-122600000D03*
X179900000Y-114300000D03*
X176075000Y-122350000D03*
X179950000Y-116300000D03*
%TO.N,/VBUS*%
X188700000Y-116000000D03*
X181300000Y-114200000D03*
X186425000Y-115600000D03*
X181300000Y-116300000D03*
D16*
%TO.N,/ESP32-C3-02/RTS*%
X195150000Y-114850000D03*
X183050000Y-105600000D03*
D17*
%TO.N,/ESP32-C3-02/DTS*%
X203300000Y-119450000D03*
X200400000Y-115850000D03*
X183850000Y-105500000D03*
X201925000Y-119925000D03*
%TO.N,/USB-DP*%
X184526384Y-114706169D03*
%TO.N,/USB-DN*%
X188100000Y-114600000D03*
%TO.N,Net-(J1-CC1)*%
X183300000Y-114850000D03*
X182350000Y-117750000D03*
%TD*%
%TO.N,/ESP32-C3-02/EN*%
D18*
X233550000Y-97200000D02*
X233550000Y-106450000D01*
X231650000Y-85500000D02*
X231650000Y-95300000D01*
X230850000Y-109150000D02*
X208750000Y-109150000D01*
X219350000Y-84200000D02*
X230350000Y-84200000D01*
X231650000Y-95300000D02*
X233550000Y-97200000D01*
X230350000Y-84200000D02*
X231650000Y-85500000D01*
X233550000Y-106450000D02*
X230850000Y-109150000D01*
%TO.N,/ESP32-C3-02/SDA*%
X224500000Y-85700000D02*
X208350000Y-85700000D01*
%TO.N,/ESP32-C3-02/GPIO08*%
X165600000Y-92850000D02*
X162810000Y-90060000D01*
X162810000Y-90060000D02*
X162810000Y-79125000D01*
X214750000Y-92850000D02*
X165600000Y-92850000D01*
X214800000Y-92900000D02*
X214750000Y-92850000D01*
%TO.N,/ESP32-C3-02/BOOT*%
X213500000Y-106100000D02*
X213500000Y-100950000D01*
X198600000Y-119500000D02*
X199550000Y-119500000D01*
X197115196Y-120984804D02*
X198600000Y-119500000D01*
X213500000Y-100950000D02*
X216350000Y-98100000D01*
%TO.N,/ESP32-C3-02/CS*%
X221550000Y-97100000D02*
X228400000Y-97100000D01*
X205450000Y-97100000D02*
X216500000Y-97100000D01*
X228400000Y-97100000D02*
X230450000Y-95050000D01*
X203300000Y-94950000D02*
X205450000Y-97100000D01*
X203300000Y-94950000D02*
X203200000Y-94850000D01*
%TO.N,/ESP32-C3-02/TX-RX*%
X226600000Y-99892893D02*
X231000000Y-95492893D01*
X231000000Y-95492893D02*
X231000000Y-94450000D01*
X231000000Y-94450000D02*
X230950000Y-94400000D01*
X223700000Y-107450000D02*
X226600000Y-104550000D01*
X226600000Y-104550000D02*
X226600000Y-99892893D01*
X210600000Y-107450000D02*
X223700000Y-107450000D01*
%TO.N,/ESP32-C3-02/RX-TX*%
X229050000Y-99150000D02*
X229900000Y-98300000D01*
X224700000Y-108150000D02*
X229050000Y-103800000D01*
X209600000Y-108150000D02*
X224700000Y-108150000D01*
X229050000Y-103800000D02*
X229050000Y-99150000D01*
%TO.N,/ESP32-C3-02/GPIO18*%
X163500000Y-80975000D02*
X163500000Y-89800000D01*
X217500000Y-91250000D02*
X218950000Y-92700000D01*
X214850000Y-92150000D02*
X215750000Y-91250000D01*
X165350000Y-79125000D02*
X163500000Y-80975000D01*
X218950000Y-92700000D02*
X228600000Y-92700000D01*
X215750000Y-91250000D02*
X217500000Y-91250000D01*
X230000000Y-91300000D02*
X229950000Y-91250000D01*
X228600000Y-92700000D02*
X230000000Y-91300000D01*
X163500000Y-89800000D02*
X165850000Y-92150000D01*
X165850000Y-92150000D02*
X214850000Y-92150000D01*
%TO.N,/ESP32-C3-02/GPIO19*%
X210850000Y-82350000D02*
X229250000Y-82350000D01*
X167890000Y-80840000D02*
X170340000Y-83290000D01*
X232250000Y-87800000D02*
X232400000Y-87950000D01*
X232250000Y-85350000D02*
X232250000Y-87800000D01*
X229250000Y-82350000D02*
X232250000Y-85350000D01*
X170340000Y-83290000D02*
X209910000Y-83290000D01*
X167890000Y-79125000D02*
X167890000Y-80840000D01*
X209910000Y-83290000D02*
X210850000Y-82350000D01*
%TO.N,/ESP32-C3-02/SCL*%
X228650000Y-84850000D02*
X208350000Y-84850000D01*
%TO.N,/ESP32-C3-02/PHOTO-C*%
D19*
X231000000Y-88900000D02*
X231000000Y-86050000D01*
X228200000Y-91700000D02*
X231000000Y-88900000D01*
X215500000Y-89900000D02*
X217600000Y-89900000D01*
X180800000Y-88650000D02*
X207350000Y-88650000D01*
X207350000Y-88650000D02*
X209250000Y-90550000D01*
X217600000Y-89900000D02*
X219400000Y-91700000D01*
X209250000Y-90550000D02*
X214850000Y-90550000D01*
X219400000Y-91700000D02*
X228200000Y-91700000D01*
X214850000Y-90550000D02*
X215500000Y-89900000D01*
%TO.N,/ESP32-C3-02/MIC_OUT*%
D18*
X216725000Y-86350000D02*
X229350000Y-86350000D01*
X229350000Y-86350000D02*
X230200000Y-85500000D01*
X214837500Y-88237500D02*
X216725000Y-86350000D01*
%TO.N,Net-(U4-DO(IO1))*%
X208550000Y-93850000D02*
X205400000Y-93850000D01*
X209972844Y-95500000D02*
X209972844Y-95272844D01*
X209972844Y-95272844D02*
X208550000Y-93850000D01*
%TO.N,/ESP32-C3-02/RTS*%
X183050000Y-105600000D02*
X183050000Y-109950000D01*
X184350000Y-111250000D02*
X191550000Y-111250000D01*
X183050000Y-109950000D02*
X184350000Y-111250000D01*
X191550000Y-111250000D02*
X195150000Y-114850000D01*
%TO.N,/ESP32-C3-02/DTS*%
X183850000Y-104500000D02*
X183850000Y-105500000D01*
X184800000Y-103550000D02*
X183850000Y-104500000D01*
D19*
X201150000Y-115100000D02*
X200400000Y-115850000D01*
D18*
X203300000Y-106400000D02*
X200450000Y-103550000D01*
D19*
X202200000Y-115100000D02*
X201150000Y-115100000D01*
X201925000Y-119925000D02*
X202550000Y-119300000D01*
D18*
X200450000Y-103550000D02*
X184800000Y-103550000D01*
X203300000Y-119450000D02*
X203300000Y-106400000D01*
D19*
X202550000Y-115450000D02*
X202200000Y-115100000D01*
X202550000Y-119300000D02*
X202550000Y-115450000D01*
%TO.N,/USB-DN*%
D18*
X188100000Y-114600000D02*
X188100000Y-115910381D01*
X185975000Y-118035381D02*
X185975000Y-119495000D01*
X188100000Y-115910381D02*
X185975000Y-118035381D01*
%TO.N,Net-(J1-CC1)*%
X183300000Y-114850000D02*
X183300000Y-117400000D01*
X182950000Y-117750000D02*
X182350000Y-117750000D01*
X183300000Y-117400000D02*
X182950000Y-117750000D01*
%TD*%
M02*
